<svg version="1.1" xmlns="http://www.w3.org/2000/svg" xmlns:xlink="http://www.w3.org/1999/xlink" width="88.32747" height="68.20815" viewBox="0,0,88.32747,68.20815"><g transform="translate(-195.83627,-145.89593)"><g data-paper-data="{&quot;isPaintingLayer&quot;:true}" fill-rule="nonzero" stroke="none" stroke-width="0.5" stroke-linecap="butt" stroke-linejoin="miter" stroke-miterlimit="10" stroke-dasharray="" stroke-dashoffset="0" style="mix-blend-mode: normal"><path d="M223.242,165.40512c0.99148,-3.39078 1.86159,-6.87844 2.71763,-10.34606c-0.02015,-7.79169 6.73,-6.15871 11.55518,-6.15871c2.01761,0 4.2536,-0.2034 6.31406,0.12075c-2.60992,3.89966 -2.23656,10.28353 -2.80012,14.73784c-0.07398,0.58498 -0.15207,1.17561 -0.22605,1.76059l-0.1503,0.83247c-0.22631,-0.13392 -0.45853,-0.25929 -0.69906,-0.37135c-2.57443,-1.19933 -5.99582,-1.83238 -8.77542,-1.83457c-2.52793,0.40271 -5.54523,1.05414 -8.29759,2.28662z" data-paper-data="{&quot;noHover&quot;:false,&quot;origItem&quot;:[&quot;Path&quot;,{&quot;applyMatrix&quot;:true,&quot;segments&quot;:[[[505.50795,284.42301],[0,0],[-2.10973,-6.38761]],[[499.71216,265.01845],[1.82152,6.53238],[0.04286,-14.67815]],[[475.26773,253.47542],[10.26725,0],[-4.29315,0]],[[461.86581,253.67363],[4.38436,-0.61067],[5.5535,7.34623]],[[467.82461,281.32042],[-1.19916,-8.39112],[0.15743,1.102]],[[468.2969,284.62642],[-0.15743,-1.102],[0,0]],[[468.61244,286.19036],[0,0],[0.48154,-0.25227]],[[470.09781,285.48886],[-0.51181,0.21109],[5.478,-2.25933]],[[488.66894,282.01397],[-5.91457,0.0041],[5.37902,0.75862]],[[506.27996,286.35533],[-5.8566,-2.32176],[0,0]]],&quot;closed&quot;:true}],&quot;index&quot;:null}" fill="#9519ff"/><path d="M246.35036,149.81313c0.17161,0.0713 1.10004,0.39176 1.51895,-0.71233c0.01053,-0.02772 0.02039,-0.05519 0.02935,-0.08217c0.44425,0.15617 0.92692,0.54013 1.37718,0.6184c3.03184,0.52697 5.7895,1.63009 8.65217,2.92348c0,0 0.56479,0.2543 1.0429,-0.05584c3.36266,0.75061 5.55605,2.43468 8.46948,4.40919c3.335,3.67205 2.14609,10.63892 1.14097,15.21026c-0.33539,1.5253 -0.48304,2.95635 -0.87754,4.45726c-0.1888,0.71833 0.08204,2.06112 -0.57594,2.15674c-0.29507,0.04288 -0.57443,-0.07654 -0.8478,-0.23855c-0.78613,-3.10196 -3.93879,-3.19721 -6.56919,-4.47857c-1.87697,-0.84824 -3.75442,-1.06465 -5.64853,-1.78291c-3.54269,-1.34341 -6.96251,-3.31636 -10.5409,-4.32499c-0.29389,-0.08285 -0.57125,-0.19451 -0.83731,-0.32168c0.09984,-0.21337 0.13162,-0.39537 0.13162,-0.39537l0.23227,-1.33046c0.07398,-0.58498 0.14758,-1.1762 0.22156,-1.76119c0.55314,-4.3751 -0.07831,-10.95397 3.08074,-14.29131z" data-paper-data="{&quot;noHover&quot;:false,&quot;origItem&quot;:[&quot;Path&quot;,{&quot;applyMatrix&quot;:true,&quot;segments&quot;:[[[453.13388,253.84936],[0.89139,2.07992],[-0.02237,-0.05219]],[[453.0718,253.69482],[0.01905,0.05084],[-0.94532,0.29419]],[[450.14662,254.86288],[0.95809,-0.14743],[-6.45129,0.99271]],[[431.80138,260.3809],[6.09133,-2.43653],[0,0]],[[429.59176,260.27354],[1.01736,0.58426],[-7.15522,1.41403]],[[411.63088,268.53135],[6.19935,-3.71961],[-7.09641,6.91746]],[[409.20156,297.08607],[-2.13877,-8.61156],[0.71364,2.87342]],[[411.05423,305.46364],[-0.83944,-2.82746],[0.40175,1.35321]],[[412.27215,309.51949],[-1.40005,-0.18013],[0.62788,0.08078]],[[414.07368,309.06815],[-0.5817,0.30522],[1.67274,-5.84355]],[[428.02706,300.61711],[-5.59709,2.41385],[3.99391,-1.5979]],[[439.9822,297.25523],[-4.03038,1.3531],[7.53829,-2.53078]],[[462.34271,289.17676],[-7.61428,1.90007],[0.62536,-0.15605]],[[464.12344,288.57428],[-0.56611,0.23959],[-0.21246,-0.40194]],[463.84286,287.83169],[[463.34715,285.33352],[0,0],[-0.15743,-1.102]],[[462.87486,282.02752],[0.15743,1.102],[-1.17698,-8.24188]],[[456.35761,255.18536],[6.72197,6.28694],[-0.36514,0.13434]]],&quot;closed&quot;:true}],&quot;index&quot;:null}" fill="#9519ff"/><path d="M218.91046,185.9569c0,0 0.2467,0.04645 0.49348,0.22504h0.49705c0.58875,0 1.07636,0.48917 1.16166,1.12732c1.34893,0.48646 2.60473,1.04544 3.67341,1.59547c-0.05103,0.62839 0.04873,1.27149 0.2209,1.87084c0.12023,0.41854 1.76596,3.19764 1.98548,3.32854c2.15194,1.28321 6.78965,-1.62197 7.65202,-3.85669c0.53974,-1.39864 0.18829,-2.49048 -0.06298,-3.83348c0,0 -0.09215,-0.66776 -0.67081,-0.89801c-0.31198,-0.32867 -0.73508,-0.37952 -0.73508,-0.37952l-1.77259,-0.15628c-0.15748,0.08604 -0.46322,0.22583 -0.83118,0.42126c-1.67146,-0.54869 -3.68543,-0.33152 -4.8543,1.08085c-2.04577,-1.04406 -4.55951,-2.02389 -7.05335,-2.60184c-0.13451,0.06057 -0.28126,0.09388 -0.43488,0.09388h-1.18367v-0.15614c-0.20605,0.02118 -0.41195,0.01187 -0.61768,-0.04207c-0.59394,-0.15575 -0.64748,-1.16723 -0.97122,-1.75085l-0.00044,-1.54094c0,0 0.13597,-0.92151 0.86424,-1.08933c0.32017,-1.75501 0.68016,-3.50389 1.36377,-5.12334c0.5679,-1.34529 2.12984,-2.1888 3.07444,-3.13714c3.00955,-3.02148 6.74452,-3.80442 10.64096,-4.44209c4.3763,-0.00451 7.61286,2.5854 11.6278,3.72122c3.51405,0.99411 6.8822,2.94593 10.37521,4.25305c1.86293,0.69713 3.65333,0.90658 5.48374,1.73339c1.04277,0.50189 4.33664,1.14802 5.12163,2.32968c-0.01763,0.05232 -0.03246,0.10348 -0.04476,0.1531c-0.19173,0.17139 -0.8349,0.85119 -0.27464,1.80045c0.37304,0.63202 0.85316,0.66253 1.19528,0.57182c4.0989,7.02383 -0.79688,18.47062 -6.51646,22.77761c-8.53825,9.56418 -21.54412,7.26205 -32.42814,7.24401c-2.82653,-0.50592 -6.40523,-0.6694 -8.99518,-2.13319c-3.059,-1.72888 -7.52279,-6.18693 -9.29869,-9.55658c-1.33349,-2.53021 -1.35388,-6.01868 -1.40164,-8.84267c1.68594,-4.61792 6.02472,-5.37391 10.3975,-4.6311c0.00552,0.02549 0.01117,0.051 0.01695,0.07652l1.17846,-0.33279l1.12375,0.09999z" data-paper-data="{&quot;index&quot;:null}" fill="#9519ff"/><path d="M198.11362,190.0314c1.95894,2.54289 3.18409,4.11447 5.91858,4.49298c-0.11068,-1.46313 -0.11521,-2.92598 -0.09881,-4.28463c0.22495,-0.64516 0.48378,-1.23719 0.77308,-1.77923c-1.30027,-0.56326 -2.27929,-1.64663 -3.51171,-3.20605l-0.07036,-0.07623c0,0 -0.83078,-0.9384 0,-1.87679c0.83078,-0.9384 1.66156,0 1.66156,0l0.16506,0.18969c1.20161,1.53271 1.87539,2.54423 3.34882,2.75365c1.81296,-1.88163 4.20251,-2.72628 6.78508,-2.88914c1.03427,-3.30697 1.04424,-7.08823 2.49981,-10.27096c1.17758,-2.57486 3.19552,-4.42765 5.53803,-5.77301c-0.86718,-0.53877 -0.47993,-1.63233 -0.47993,-1.63233l0.43155,-1.21711c0.95583,-3.2031 1.75208,-6.48558 2.60314,-9.75586c0.01029,-4.13786 2.23071,-7.89057 6.04632,-8.64026c2.4801,-0.48729 5.25517,0.22675 7.76863,0.22675c2.82636,0 5.7554,-0.23717 8.4658,0.60228c0.14846,-0.09585 0.30195,-0.18729 0.4607,-0.2741c0.30024,-0.1642 2.71732,0.34895 3.23871,0.43952c2.9693,0.51587 5.66154,1.54504 8.4436,2.77827c0.14863,-0.03611 0.25491,-0.03611 0.25491,-0.03611l0.41511,0.01805c4.07901,0.77973 6.66018,2.71287 10.07393,5.02645c4.08232,4.6836 3.0786,11.04045 2.15625,16.96303c1.37538,0.42448 2.92894,1.2061 4.26122,0.63778c1.28388,-0.54769 3.92077,-4.27304 5.2871,-3.81882c2.54298,0.84539 2.88501,7.5472 3.15314,9.82737c0.07698,0.65471 0.6389,1.32357 0.40361,1.92817c-0.76541,1.96691 -4.15354,2.28095 -5.64626,2.65044c-1.43939,0.00782 -3.0115,0.04314 -4.50135,-0.22066c-0.02759,0.13466 -0.05983,0.21961 -0.05983,0.21961l-0.42557,1.09075c-1.60272,3.01559 -3.40256,5.43039 -5.38596,7.97085c-0.04086,0.18665 -0.08392,0.37306 -0.12912,0.55916c0.97729,1.8515 1.78006,4.2624 3.4222,5.17883l0.73904,0.75849c0,0 0.83078,0.9384 0,1.87679c-0.83078,0.9384 -1.66156,0 -1.66156,0l-0.20268,-0.30521c-1.57024,-1.02764 -2.44697,-2.59129 -3.31229,-4.26297c-1.60666,4.18831 -4.21908,7.93036 -7.17627,10.1572c-8.91998,10.17706 -22.61207,7.79848 -34.03714,7.81801c-3.13405,-0.5439 -6.97381,-0.76986 -9.84508,-2.3906c-3.48282,-1.96595 -8.20025,-6.69288 -10.24335,-10.51944c-0.60642,-1.13578 -1.00337,-2.41305 -1.26089,-3.74647c-3.83004,-0.33432 -5.66185,-2.39117 -8.25349,-5.72354l-0.29069,-1.00685c0,0 -0.00002,-1.32709 1.17489,-1.32709c0.71075,0 0.99155,0.48569 1.10247,0.86941zM206.6614,195.94052c0,0.1582 -0.01671,0.29755 -0.04612,0.42027c0.20062,1.14804 0.51755,2.2472 1.02481,3.20971c1.7759,3.36966 6.22964,7.8082 9.28866,9.53709c2.58995,1.46379 6.15597,1.61619 8.9825,2.12211c10.88402,0.01805 23.82759,2.33982 32.36583,-7.22436c2.88761,-2.17445 5.56391,-6.15862 6.97876,-10.4748c-0.76002,-0.86118 -0.02455,-1.79574 -0.02455,-1.79574c0.2481,-0.31467 0.49318,-0.62497 0.73521,-0.93242c0.65149,-3.39082 0.41997,-6.79601 -1.17828,-9.53479c-0.34214,0.09071 -0.82193,0.06163 -1.19497,-0.57042c-0.56026,-0.94926 0.08359,-1.6265 0.27532,-1.79787c0.01231,-0.04962 0.0272,-0.10058 0.04483,-0.1529c-0.78499,-1.18166 -4.07634,-1.8208 -5.11909,-2.32269c-1.83041,-0.82682 -3.61639,-1.02814 -5.47932,-1.72527c-1.39951,-0.52373 -2.77577,-1.14815 -4.14876,-1.77244c-0.09899,0.72748 -0.78473,1.00412 -0.78473,1.00412c-3.94341,1.57147 -7.39989,3.54169 -11.57272,4.42757c-0.54602,0.11594 -3.46002,0.90303 -3.46918,0.89179c-2.31286,-2.84018 1.44758,-5.76605 2.63581,-7.50544l0.31185,-0.36673c0,0 0.83076,-0.9384 1.66154,0c0.83078,0.9384 0,1.87679 0,1.87679l-0.11859,0.11946c-0.11734,0.16926 -0.89569,1.26255 -1.65771,2.21551c1.14938,-0.26571 2.52136,-0.28607 3.45658,-0.54931c2.49723,-0.70291 4.71226,-2.13626 7.06112,-3.21716c-1.2317,-0.52598 -2.47042,-1.00335 -3.73046,-1.35981c-4.01491,-1.13582 -7.22254,-3.72341 -11.59884,-3.71892c-3.65046,0.59742 -7.14024,1.31045 -10.04113,3.88268c1.80481,2.11438 3.22197,2.60721 5.5974,4.04728c0.72643,0.4404 1.45884,0.87033 2.20903,1.25655c0.06263,0.03224 0.1506,0.09045 0.2444,0.15779c-0.69599,-0.73865 -1.04997,-1.87025 -1.60844,-2.7683l-0.19596,-0.41064c0,0 -0.52541,-1.187 0.52544,-1.78048c1.05085,-0.5935 1.57629,0.59348 1.57629,0.59348l0.01927,0.07555c1.34904,2.18361 4.22627,5.66194 0.4118,7.17548c-1.06467,0.42244 -3.43429,-1.42187 -4.30151,-1.96597c-0.73081,-0.45851 -1.63616,-0.44579 -2.39378,-0.84499c-1.9772,-1.04185 -2.71259,-2.26269 -3.95541,-3.89162c-0.71754,0.58189 -1.42987,1.21229 -1.77566,2.03147c-0.84186,1.99433 -1.18739,4.17298 -1.57751,6.32924c-0.40435,0.38394 -0.45643,0.90542 -0.27269,1.42113c-0.00241,0.03808 -0.00364,0.07652 -0.00364,0.1153c0,0.87953 0.63123,1.59251 1.40987,1.59251c0.09406,0 0.18593,-0.0104 0.27482,-0.03024c0.41217,0.17325 0.86313,0.25561 1.31557,0.20124c2.43501,0.58056 4.80043,1.51773 6.80249,2.53947c1.16887,-1.41237 3.18796,-1.6445 4.85943,-1.09581c0.36796,-0.19543 0.67678,-0.34056 0.83426,-0.4266l1.77899,0.14839c0,0 0.42606,0.04814 0.73804,0.3768c0.57865,0.23027 0.7268,0.98327 0.7268,0.98327c0.25128,1.34297 0.61542,2.36474 0.07571,3.76338c-0.86236,2.23472 -5.58294,5.18976 -7.73486,3.90655c-0.2195,-0.13089 -1.86937,-2.92585 -1.9896,-3.34439c-0.17217,-0.59935 -0.27232,-1.25014 -0.22127,-1.87855c-1.19918,-0.61717 -2.63375,-1.24913 -4.17123,-1.77529c-0.05019,-0.13724 -0.11313,-0.26886 -0.18974,-0.39305c-0.71005,-1.15106 -2.27083,-0.89823 -3.59276,-0.16206c-0.0323,-0.151 -0.06474,-0.30208 -0.09745,-0.45317c-2.84677,-0.48359 -5.67897,-0.33603 -7.77424,1.10006c0.01452,0.07481 0.02505,0.15527 0.03094,0.24184c0.09012,1.32317 -1.08131,1.42496 -1.08131,1.42496c-0.2218,0.015 -0.43475,0.02299 -0.63962,0.02402c-0.36513,0.52785 -0.67906,1.13534 -0.93288,1.83056c0.0231,1.36599 0.03929,2.88422 0.20075,4.37415c0.13006,0.1921 0.21996,0.45766 0.21996,0.82476zM271.70058,182.09496c-0.66824,-0.36307 -1.26477,-0.96827 -1.9959,-1.07553l-0.77619,-0.37275c0,0 -0.20675,-0.11677 -0.39099,-0.35031c-0.3447,0.30793 -0.74638,0.52167 -1.2174,0.61886c0.89059,1.95793 1.29238,4.13992 1.29981,6.39329c1.00622,-1.4093 1.95147,-2.87793 2.83871,-4.54918zM247.89445,149.14561c-0.41892,1.10409 -1.34341,0.7805 -1.51501,0.7092c-3.15903,3.33734 -2.50971,9.87371 -3.06283,14.2488c-0.07398,0.58498 -0.14798,1.16996 -0.22195,1.75494l-0.23297,1.32611c0,0 -0.032,0.18082 -0.13186,0.39419c0.26606,0.12719 0.54298,0.23698 0.83687,0.31982c3.57839,1.00861 6.96581,2.94492 10.50851,4.28835c1.89412,0.71828 3.74145,0.9364 5.61842,1.78462c2.6304,1.28137 5.77139,1.38414 6.55752,4.48613c0.27337,0.16201 0.55156,0.28246 0.84664,0.23958c0.65795,-0.09561 0.38357,-1.43464 0.57237,-2.15299c0.3945,-1.50093 0.53529,-2.9218 0.87068,-4.44712c1.00515,-4.57134 2.19335,-11.48586 -1.14167,-15.1579c-2.91345,-1.97451 -5.07823,-3.63292 -8.44088,-4.38355c-0.47811,0.31014 -1.03843,0.05698 -1.03843,0.05698c-2.86269,-1.29341 -5.58967,-2.40221 -8.62151,-2.92918c-0.45028,-0.07825 -0.93047,-0.46388 -1.37472,-0.62004c-0.00896,0.027 -0.01866,0.05433 -0.02917,0.08204zM222.918,166.40096c2.75236,-1.23246 5.74853,-1.90185 8.27644,-2.30456c2.7796,0.00219 6.15325,0.64527 8.72768,1.8446c0.24052,0.11206 0.47176,0.23846 0.69805,0.37238l0.1483,-0.83019c0.07398,-0.58498 0.14798,-1.16996 0.22195,-1.75494c0.56356,-4.45431 0.19046,-10.77627 2.80039,-14.67591c-2.06046,-0.32418 -4.28073,-0.10523 -6.29834,-0.10523c-4.8252,0 -11.50803,-1.66424 -11.48788,6.12746c-0.85603,3.46762 -1.7323,6.90986 -2.72378,10.30064zM276.07458,174.93881c-1.93367,0.77643 -3.64034,-0.07214 -5.46022,-0.53641c-0.18853,1.37847 -0.42741,2.70131 -0.81285,3.79423c0.10994,0.03771 0.17782,0.07606 0.17782,0.07606l0.11164,0.12866c2.92686,0.62961 4.90645,1.97442 8.11291,1.99553c0.61229,-0.15621 1.22765,-0.29768 1.83685,-0.46859c0.60535,-0.16983 1.86545,0.31305 1.83897,-0.39086c-0.05685,-1.51217 -0.94466,-4.51847 -1.34976,-6.23851c-0.16057,-0.68178 0.03747,-1.58266 -0.42038,-2.06248c-0.17344,-0.18174 -0.03116,0.57898 -0.19618,0.77049c-0.78832,0.91494 -2.76445,2.50049 -3.83882,2.93189zM227.82273,191.229c0.04264,0.21961 0.06576,0.45098 0.21639,0.57637c0.17708,0.14738 0.38335,0.12888 0.59968,0.0376c-0.28174,-0.17984 -0.5589,-0.38506 -0.81609,-0.61398zM215.99088,183.43471c-0.08431,-0.30151 -0.17342,-0.60055 -0.2686,-0.89624c-0.06233,0.28537 -0.12838,0.56924 -0.19942,0.85108c0.15577,0.01312 0.31181,0.02821 0.46802,0.04516zM229.1966,189.46793c0.10407,0.20529 0.25699,0.35096 0.47014,0.37731c0.09318,-0.06163 0.17984,-0.12205 0.26019,-0.1812c-0.25213,-0.03224 -0.50045,-0.09809 -0.73035,-0.19609z" data-paper-data="{&quot;index&quot;:null}" fill="#000000"/><path d="M270.56861,174.39021c1.81988,0.46427 3.58601,1.27431 5.51968,0.49789c1.07439,-0.43142 3.00053,-1.9324 3.78884,-2.84734c0.16501,-0.19151 0.0931,-1.02253 0.26654,-0.84077c0.45785,0.47982 0.2682,1.39452 0.42877,2.07628c0.4051,1.72004 1.29164,4.77452 1.34849,6.28669c0.02645,0.70392 -1.23941,0.23038 -1.84475,0.40021c-0.6092,0.1709 -1.23641,0.32346 -1.8487,0.47964c-3.20645,-0.02111 -5.25329,-1.39211 -8.18015,-2.0217l-0.11204,-0.12982c0,0 -0.0682,-0.03933 -0.17813,-0.07704c0.38543,-1.09292 0.62291,-2.44559 0.81147,-3.82406z" data-paper-data="{&quot;noHover&quot;:false,&quot;origItem&quot;:[&quot;Path&quot;,{&quot;applyMatrix&quot;:true,&quot;segments&quot;:[[[412.35667,304.82218],[3.08615,1.09709],[-1.71472,-0.60957]],[[406.22987,300.67951],[1.25817,1.29278],[-0.26336,-0.2706]],[[405.91677,299.59083],[0.27681,-0.25683],[-0.73074,0.67799]],[[405.24582,302.50505],[0.25627,-0.96332],[-0.64653,2.43037]],[[403.0916,311.31991],[0.09074,-2.13666],[-0.04224,0.99462]],[[406.02664,311.8722],[-0.96616,-0.23997],[0.97228,0.2415]],[[408.95826,312.53429],[-0.97721,-0.2207],[5.11754,-0.02983]],[[421.90656,309.71467],[-4.67128,0.8896],[0,0]],[422.08473,309.53288],[[422.36855,309.42541],[-0.17544,0.05328],[-0.61515,-1.54427]],[[421.07123,304.06425],[0.30092,1.94773],[-2.90454,0.65602]]],&quot;closed&quot;:true}],&quot;index&quot;:null}" fill="#9519ff"/><path d="M253.09889,190.64569c0.41546,-1.40781 1.6618,-0.93855 1.6618,-0.93855l0.75212,0.37236c2.44005,2.14377 4.33011,4.75718 6.65848,6.96866c0.67081,0.63712 2.6339,2.50533 2.50244,3.49029c-0.27368,2.05037 -4.83691,3.2575 -6.25266,3.69682c-5.60863,1.72654 -11.89661,3.15003 -17.65502,1.3599c-3.45704,-1.0747 -6.45676,-3.75037 -9.62985,-5.54171c0,0 -0.11596,-0.0655 -0.25682,-0.19648c-0.15168,-0.02249 -0.3032,-0.04737 -0.45457,-0.07479l-0.74664,0.02021c0,0 -1.31378,0 -1.31378,-1.48398c0,-1.48398 1.31378,-1.48396 1.31378,-1.48396l1.17859,0.02017c4.66807,0.92094 9.71336,-0.9845 14.27721,-1.772c3.20445,-0.55292 6.28139,-0.75267 9.3177,-2.15982c-0.17977,-0.1681 -0.36358,-0.33498 -0.55204,-0.50056l0.03016,0.10052c0,0 -1.24637,-0.46926 -0.83091,-1.87708zM259.19706,198.15023c-1.01134,-1.14195 -1.92427,-2.25382 -2.89221,-3.32582c-0.21985,0.54515 -0.73237,0.78637 -0.73237,0.78637c-3.2885,1.53991 -6.59322,1.8208 -10.06506,2.40963c-3.06953,0.5206 -6.25495,1.4385 -9.43909,1.82607c1.73173,1.17809 3.49638,2.30892 5.38412,2.8838c5.31227,1.61776 11.11517,0.23301 16.27723,-1.35839c0.27425,-0.08377 2.42492,-0.96851 3.59162,-1.24578c-0.85021,-0.56917 -2.11699,-1.96768 -2.12424,-1.97587z" data-paper-data="{&quot;index&quot;:null}" fill="#000000"/><path d="M256.35183,194.79785c0.96794,1.07201 1.8863,2.20559 2.89762,3.34752c0.00725,0.00819 1.27405,1.41572 2.12428,1.98489c-1.1667,0.27727 -3.31846,1.1706 -3.59269,1.25436c-5.16206,1.5914 -11.06443,2.98732 -16.37669,1.36956c-1.88774,-0.57489 -3.65677,-1.72663 -5.3885,-2.90472c3.18413,-0.38758 6.37185,-1.32602 9.44141,-1.84662c3.47185,-0.58884 6.87458,-0.87666 10.16309,-2.41657c0,0 0.51166,-0.2433 0.73149,-0.78845z" data-paper-data="{&quot;noHover&quot;:false,&quot;origItem&quot;:[&quot;Path&quot;,{&quot;applyMatrix&quot;:true,&quot;segments&quot;:[[[433.40186,342.55073],[1.92446,-1.9238],[-0.0138,0.01379]],[[429.35965,345.87942],[1.61788,-0.95887],[2.22012,0.46714]],[[436.19413,347.97815],[-0.52182,-0.14113],[9.8229,2.68098]],[[467.16814,350.26659],[-10.10872,2.72542],[3.59218,-0.96849]],[[477.41363,345.40834],[-3.29531,1.98469],[-6.0591,-0.65293]],[[459.45193,342.33201],[5.84104,0.87702],[-6.60661,-0.99197]],[[440.29907,338.27258],[6.25772,2.59425],[0,0]],[[438.90546,336.94781],[0.41834,0.9184],[-1.84189,1.80597]]],&quot;closed&quot;:true}],&quot;index&quot;:null}" fill="#9519ff"/><path d="M237.60978,179.0069c0.11368,-0.22692 0.30642,-0.44163 0.62024,-0.60636c1.1914,-0.62539 1.74509,0.72034 1.74509,0.72034c0.72365,1.78718 3.04673,8.61801 1.48777,10.46504c-2.0498,2.42857 -3.32024,0.93546 -4.43977,-1.01093c-1.11147,-1.93237 -0.87325,-5.08655 -0.81004,-7.26582l0.63044,-1.58713c0,0 0.27046,-0.5317 0.76627,-0.71513z" data-paper-data="{&quot;index&quot;:null}" fill="#000000"/><path d="M253.03424,200.7042c-0.75613,-0.45586 -0.35254,-1.30994 -0.35254,-1.30994l0.32114,-0.66566c0.74229,-1.08105 0.8711,-1.85172 2.40313,-1.47592c0.40799,0.10008 0.59076,0.71106 0.98042,0.88036c0.69842,0.30346 1.23796,-0.96148 1.91153,-1.32974c0,0 0.77214,-0.42027 1.14421,0.45185c0.37207,0.87213 -0.40004,1.2924 -0.40004,1.2924c-0.6892,0.37326 -2.05241,1.62418 -2.80579,1.51429c-0.49324,-0.07194 -0.80529,-0.66588 -1.24414,-0.93021c-0.35298,-0.2126 -0.55292,0.64271 -0.58115,0.70101l-0.21707,0.47329c0,0 -0.40359,0.85408 -1.15971,0.39822z" data-paper-data="{&quot;index&quot;:null}" fill="#000000"/><path d="M218.43883,178.12785c0.13105,-0.21464 0.33986,-0.40919 0.66537,-0.54186c1.23581,-0.50365 1.68169,0.89225 1.68169,0.89225c0.58054,1.85262 2.35832,8.88919 0.66053,10.57283c-2.23235,2.21376 -3.38057,0.5993 -4.34295,-1.45155c-0.95543,-2.03607 -0.47058,-5.15395 -0.23658,-7.31833l0.75253,-1.51775c0,0 0.31113,-0.50251 0.81939,-0.63557z" data-paper-data="{&quot;index&quot;:null}" fill="#000000"/></g></g></svg>