<svg version="1.1" xmlns="http://www.w3.org/2000/svg" xmlns:xlink="http://www.w3.org/1999/xlink" width="70.7381" height="64.2619" viewBox="0,0,70.7381,64.2619"><g transform="translate(-207.56831,-146.59286)"><g data-paper-data="{&quot;isPaintingLayer&quot;:true}" fill="#ffffff" fill-rule="nonzero" stroke="#ff0000" stroke-width="1" stroke-linecap="butt" stroke-linejoin="miter" stroke-miterlimit="10" stroke-dasharray="" stroke-dashoffset="0" style="mix-blend-mode: normal"><path d="M220.86887,165.6077c-0.88388,0.88388 -1.76777,0 -1.76777,0l-0.7619,-0.76191c-0.69846,-0.70874 -1.30058,-1.51887 -1.81221,-2.37376c-0.09286,-0.03086 -0.14864,-0.05875 -0.14864,-0.05875l-0.31433,-0.15958c-0.44445,-0.19047 -0.88889,-0.38096 -1.33334,-0.57143c0,0 -1.14893,-0.4924 -0.65653,-1.64133c0.4924,-1.14893 1.64133,-0.65653 1.64133,-0.65653c0.44445,0.19047 0.88889,0.38095 1.33334,0.57143l0.44757,0.22137c0,0 0.18123,0.09062 0.36127,0.27184c0.47698,0.15291 0.73645,0.60697 0.73645,0.60697c0.41172,0.73422 0.91209,1.43238 1.51286,2.02201l0.76191,0.7619c0,0 0.88388,0.88389 0,1.76777z"/><path d="M208.06832,157.29524c0,-0.69036 0.55964,-1.25 1.25,-1.25c0.69036,0 1.25,0.55964 1.25,1.25c0,0.69036 -0.55964,1.25 -1.25,1.25c-0.69036,0 -1.25,-0.55964 -1.25,-1.25z"/><path d="M216.17546,198.92619c-1.25,0 -1.25,-1.25 -1.25,-1.25l0.07959,-0.81985c0.38713,-1.01798 0.86446,-2.0117 1.46368,-2.92114c0,0 0.06754,-0.10132 0.1921,-0.21963c-0.01385,-0.0745 -0.02108,-0.15133 -0.02108,-0.22985c0,-0.69036 0.55964,-1.25 1.25,-1.25c0.69036,0 1.25,0.55964 1.25,1.25c0,0.35162 -0.14518,0.66934 -0.37887,0.89647c0.08185,0.49898 -0.21201,0.93976 -0.21201,0.93976c-0.50338,0.74427 -0.89215,1.56917 -1.20299,2.4122l0.07959,-0.05796c0,0 0,1.25 -1.25,1.25z"/><path d="M221.40165,189.48572c0,-0.69036 0.55964,-1.25 1.25,-1.25c0.69036,0 1.25,0.55964 1.25,1.25c0,0.69036 -0.55964,1.25 -1.25,1.25c-0.69036,0 -1.25,-0.55964 -1.25,-1.25z"/><path d="M211.87784,186.24762c0,-0.69036 0.55964,-1.25 1.25,-1.25c0.69036,0 1.25,0.55964 1.25,1.25c0,0.69036 -0.55964,1.25 -1.25,1.25c-0.69036,0 -1.25,-0.55964 -1.25,-1.25z"/><path d="M214.92546,202.24762c0,-0.69036 0.55964,-1.25 1.25,-1.25c0.69036,0 1.25,0.55964 1.25,1.25c0,0.69036 -0.55964,1.25 -1.25,1.25c-0.69036,0 -1.25,-0.55964 -1.25,-1.25z"/><path d="M232.74689,210.35476c-1.25,0 -1.25,-1.25 -1.25,-1.25v-1.14285c0.0022,-1.80535 0.18965,-3.49012 0.3886,-5.2809c0,0 0.02922,-0.26295 0.18174,-0.53346c-0.12002,-0.19193 -0.18939,-0.41878 -0.18939,-0.66183c0,-0.69036 0.55964,-1.25 1.25,-1.25c0.69036,0 1.25,0.55964 1.25,1.25c0,0.23688 -0.06589,0.45838 -0.18035,0.64715c0.2215,0.38511 0.1727,0.82422 0.1727,0.82422c-0.18896,1.70042 -0.37557,3.29165 -0.37331,5.00482v1.14285c0,0 0,1.25 -1.25,1.25z"/><path d="M224.06832,206.81905c0,-0.69036 0.55964,-1.25 1.25,-1.25c0.69036,0 1.25,0.55964 1.25,1.25c0,0.69036 -0.55964,1.25 -1.25,1.25c-0.69036,0 -1.25,-0.55964 -1.25,-1.25z"/><path d="M225.59213,196.15238c0,-0.69036 0.55964,-1.25 1.25,-1.25c0.69036,0 1.25,0.55964 1.25,1.25c0,0.69036 -0.55964,1.25 -1.25,1.25c-0.69036,0 -1.25,-0.55964 -1.25,-1.25z"/><path d="M250.74111,206.63353c0.22118,0.18293 0.39863,0.47645 0.39863,0.94742c0,1.25 -1.25,1.25 -1.25,1.25l-1.40315,-0.94683c-0.39625,-1.5891 -0.93003,-3.0748 -1.16762,-4.69782c0,0 -0.01291,-0.09033 -0.00734,-0.22565c-0.23797,-0.22758 -0.38618,-0.54824 -0.38618,-0.9035c0,-0.69036 0.55964,-1.25 1.25,-1.25c0.69036,0 1.25,0.55964 1.25,1.25c0,0.00847 -0.00008,0.01692 -0.00025,0.02535c0.30677,0.31715 0.36864,0.75026 0.36864,0.75026c0.18194,1.31185 0.59584,2.53438 0.94726,3.80078z"/><path d="M253.7826,194.24762c0,-0.69036 0.55964,-1.25 1.25,-1.25c0.69036,0 1.25,0.55964 1.25,1.25c0,0.69036 -0.55964,1.25 -1.25,1.25c-0.69036,0 -1.25,-0.55964 -1.25,-1.25z"/><path d="M240.63974,194.62857c0,-0.69036 0.55964,-1.25 1.25,-1.25c0.69036,0 1.25,0.55964 1.25,1.25c0,0.69036 -0.55964,1.25 -1.25,1.25c-0.69036,0 -1.25,-0.55964 -1.25,-1.25z"/><path d="M266.2022,192.46484c-0.88389,0.88388 -1.76776,0 -1.76776,0l0.20101,0.07458c-0.95664,-0.41151 -1.88961,-0.88144 -2.79444,-1.39696c0,0 -1.08531,-0.62017 -0.46513,-1.70548c0.36959,-0.64678 0.90437,-0.68786 1.27619,-0.61547c0.06198,-0.00946 0.12545,-0.01436 0.19007,-0.01436c0.46431,0 0.8695,0.25316 1.08506,0.62897c0.5537,0.29044 1.11846,0.56018 1.69305,0.80543l0.58196,0.45552c0,0 0.88389,0.88388 0,1.76776z"/><path d="M226.38948,155.46147c1.07187,-0.64312 1.71499,0.42875 1.71499,0.42875l0.66059,1.13233c0.89808,2.25131 1.73222,4.2027 1.98753,6.6245c0,0 0.12438,1.24379 -1.11942,1.36817c-1.2438,0.12438 -1.36818,-1.11941 -1.36818,-1.11941c-0.20389,-2.1795 -1.014,-3.92159 -1.82199,-5.94693l-0.48227,-0.77242c0,0 -0.64312,-1.07187 0.42874,-1.71499z"/><path d="M225.59213,150.4381c0,-0.69036 0.55964,-1.25 1.25,-1.25c0.69036,0 1.25,0.55964 1.25,1.25c0,0.69036 -0.55964,1.25 -1.25,1.25c-0.69036,0 -1.25,-0.55964 -1.25,-1.25z"/><path d="M231.11594,155.00953c0,-0.69036 0.55964,-1.25 1.25,-1.25c0.69036,0 1.25,0.55964 1.25,1.25c0,0.69036 -0.55964,1.25 -1.25,1.25c-0.69036,0 -1.25,-0.55964 -1.25,-1.25z"/><path d="M242.65165,157.75953c1.25,0 1.25,1.25 1.25,1.25v0.38095c0,2.04042 -0.116,4.08762 0.17791,6.10894c0,0 0.17678,1.23744 -1.06066,1.41422c-1.23744,0.17677 -1.41422,-1.06066 -1.41422,-1.06066c-0.30161,-2.14481 -0.20304,-4.29939 -0.20304,-6.46249v-0.38095c0,0 0,-1.25 1.25,-1.25z"/><path d="M244.63974,156.53334c0,-0.69036 0.55964,-1.25 1.25,-1.25c0.69036,0 1.25,0.55964 1.25,1.25c0,0.69036 -0.55964,1.25 -1.25,1.25c-0.69036,0 -1.25,-0.55964 -1.25,-1.25z"/><path d="M236.83022,148.34286c0,-0.69036 0.55964,-1.25 1.25,-1.25c0.69036,0 1.25,0.55964 1.25,1.25c0,0.69036 -0.55964,1.25 -1.25,1.25c-0.69036,0 -1.25,-0.55964 -1.25,-1.25z"/><path d="M260.4488,159.33581c0.24514,1.22573 -0.98058,1.47087 -0.98058,1.47087l-0.70512,0.11368c-0.70224,0.28564 -1.36916,0.71192 -1.89423,1.25876c0,0 -0.88389,0.88388 -1.76777,0c-0.88388,-0.88388 0,-1.76777 0,-1.76777c0.76966,-0.74804 1.69644,-1.35292 2.6772,-1.78885l1.19964,-0.26728c0,0 1.22573,-0.24514 1.47087,0.98059z"/><path d="M260.83022,156.91429c0,-0.69036 0.55964,-1.25 1.25,-1.25c0.69036,0 1.25,0.55964 1.25,1.25c0,0.69036 -0.55964,1.25 -1.25,1.25c-0.69036,0 -1.25,-0.55964 -1.25,-1.25z"/><path d="M270.75879,167.58095c0,1.25 -1.25,1.25 -1.25,1.25h-0.95185c-2.35764,-0.0037 -4.3981,0.3029 -6.55575,1.23227c0,0 -0.95797,0.41056 -1.49931,-0.39284c-0.26551,-0.22922 -0.43357,-0.56827 -0.43357,-0.94657c0,-0.69036 0.55964,-1.25 1.25,-1.25c0.10965,0 0.216,0.01412 0.31734,0.04064c2.25448,-0.86502 4.44736,-1.17799 6.92022,-1.1835h0.95291c0,0 1.25,0 1.25,1.25z"/><path d="M275.30641,164.15238c0,-0.69036 0.55964,-1.25 1.25,-1.25c0.69036,0 1.25,0.55964 1.25,1.25c0,0.69036 -0.55964,1.25 -1.25,1.25c-0.69036,0 -1.25,-0.55964 -1.25,-1.25z"/></g></g></svg>