<svg version="1.1" xmlns="http://www.w3.org/2000/svg" xmlns:xlink="http://www.w3.org/1999/xlink" width="39.14798" height="31.99613" viewBox="0,0,39.14798,31.99613"><g transform="translate(-216.68224,-163.5371)"><g data-paper-data="{&quot;isPaintingLayer&quot;:true}" fill="#ffffff" fill-rule="nonzero" stroke="#ff0000" stroke-width="1" stroke-linecap="butt" stroke-linejoin="miter" stroke-miterlimit="10" stroke-dasharray="" stroke-dashoffset="0" style="mix-blend-mode: normal"><path d="M231.80641,165.81905c1,-0.75 1.75,0.25 1.75,0.25l0.38492,0.56283c2.5879,2.24617 4.60601,5.3977 6.51229,8.2557c0,0 0.69338,1.04006 -0.34669,1.73344c-1.04006,0.69338 -1.73344,-0.34669 -1.73344,-0.34669c-1.76372,-2.64694 -3.6368,-5.69952 -6.05914,-7.7443l-0.75794,-0.96098c0,0 -0.75,-1 0.25,-1.75z"/><path d="M242.78745,164.06951c1.22573,-0.24515 1.47087,0.98058 1.47087,0.98058l0.21475,1.19753c-0.00211,3.03987 0.26349,5.90755 0.92261,8.87169c0,0 0.27116,1.22023 -0.94907,1.4914c-1.22023,0.27116 -1.4914,-0.94907 -1.4914,-0.94907c-0.69817,-3.14374 -0.98004,-6.1932 -0.98215,-9.41402l-0.1662,-0.70724c0,0 -0.24515,-1.22573 0.98058,-1.47087z"/><path d="M253.67444,175.21241c0.55902,1.11803 -0.55902,1.67705 -0.55902,1.67705l-0.59657,0.27435c-2.11698,0.5952 -3.73764,1.84964 -5.62799,2.93102c0,0 -1.0853,0.62017 -1.70548,-0.46513c-0.62017,-1.0853 0.46513,-1.70548 0.46513,-1.70548c2.07864,-1.18643 3.85606,-2.49081 6.18153,-3.16422l0.16534,-0.10661c0,0 1.11803,-0.55902 1.67705,0.55902z"/><path d="M242.95482,190.88887c-1.21268,0.30317 -1.51585,-0.90951 -1.51585,-0.90951l-0.21815,-0.91003c-0.13108,-1.06157 -0.19852,-2.13303 -0.20013,-3.20266c0,0 0,-1.25 1.25,-1.25c1.25,0 1.25,1.25 1.25,1.25c-0.00161,0.96607 0.05941,1.93416 0.18082,2.89258l0.16281,0.61378c0,0 0.30317,1.21268 -0.90951,1.51585z"/><path d="M226.98498,187.95c-0.75,-1 0.25,-1.75 0.25,-1.75l0.42262,-0.18459c0.87214,-1.52765 2.00149,-2.93032 3.29606,-4.12129c0,0 0.92493,-0.84084 1.76577,0.08408c0.84084,0.92493 -0.08408,1.76577 -0.08408,1.76577c-1.11191,0.9968 -2.07597,2.19126 -2.79918,3.49776l-1.10119,0.95827c0,0 -1,0.75 -1.75,-0.25z"/><path d="M231.01364,195.03323c-0.97609,-0.78087 -0.19522,-1.75695 -0.19522,-1.75695l1.51173,-1.88942c1.28673,-1.71606 2.12647,-2.74043 2.63263,-4.87098c0,0 0.30317,-1.21268 1.51585,-0.90951c1.21268,0.30317 0.90951,1.51585 0.90951,1.51585c-0.64539,2.48114 -1.56745,3.77724 -3.08166,5.79569l-1.53589,1.9201c0,0 -0.78087,0.97609 -1.75695,0.19522z"/><path d="M254.08022,188.25952c-0.45056,0 -0.73871,-0.1624 -0.92301,-0.37013c-2.10453,-0.50332 -2.96728,-0.9452 -4.86558,-2.61742c0,0 -0.92912,-0.83621 -0.09291,-1.76532c0.83621,-0.92912 1.76532,-0.09291 1.76532,-0.09291c1.78861,1.65312 2.12296,1.68323 4.38734,2.18507l0.97884,1.41071c0,0 0,1.25 -1.25,1.25z"/><path d="M217.47181,165.29316c0.76398,-0.98936 1.75334,-0.22538 1.75334,-0.22538l0.53105,0.41389c3.91536,2.61024 7.71765,5.15748 11.31966,8.19076c0,0 0.95614,0.80517 0.15097,1.76131c-0.80517,0.95614 -1.76131,0.15097 -1.76131,0.15097c-3.53049,-2.97305 -7.25767,-5.46398 -11.09608,-8.02291l-0.67226,-0.5153c0,0 -0.98936,-0.76398 -0.22538,-1.75334z"/></g></g></svg>