<svg version="1.1" xmlns="http://www.w3.org/2000/svg" xmlns:xlink="http://www.w3.org/1999/xlink" width="51.5" height="59.69048" viewBox="0,0,51.5,59.69048"><g transform="translate(-214.23498,-148.49762)"><g data-paper-data="{&quot;isPaintingLayer&quot;:true}" fill="#ffffff" fill-rule="nonzero" stroke="#ff0000" stroke-width="1" stroke-linecap="butt" stroke-linejoin="miter" stroke-miterlimit="10" stroke-dasharray="" stroke-dashoffset="0" style="mix-blend-mode: normal"><path d="M242.25567,161.01463c1.23299,-0.2055 1.43849,1.0275 1.43849,1.0275l0.19492,1.17158c0.38275,2.72181 0.44833,5.4167 0.94478,8.14365c0,0 0.2236,1.22984 -1.00623,1.45344c-1.22984,0.2236 -1.45344,-1.00623 -1.45344,-1.00623c-0.50032,-2.75522 -0.56078,-5.49194 -0.95998,-8.23731l-0.18603,-1.11413c0,0 -0.2055,-1.233 1.02749,-1.4385z"/><path d="M243.11594,158.24762c0,-0.69036 0.55964,-1.25 1.25,-1.25c0.69036,0 1.25,0.55964 1.25,1.25c0,0.69036 -0.55964,1.25 -1.25,1.25c-0.69036,0 -1.25,-0.55964 -1.25,-1.25z"/><path d="M246.35403,169.86667c0,-0.69036 0.55964,-1.25 1.25,-1.25c0.69036,0 1.25,0.55964 1.25,1.25c0,0.69036 -0.55964,1.25 -1.25,1.25c-0.69036,0 -1.25,-0.55964 -1.25,-1.25z"/><path d="M259.40114,166.84387c1.11804,0.55901 0.55901,1.67705 0.55901,1.67705l-0.80561,1.24296c-3.34713,2.23142 -5.80176,5.40595 -8.8153,8.08467c0,0 -0.93426,0.83045 -1.76471,-0.10381c-0.83046,-0.93426 0.1038,-1.76471 0.1038,-1.76471c3.10546,-2.76039 5.63279,-5.99183 9.08946,-8.29628l-0.0437,-0.28085c0,0 0.55901,-1.11803 1.67705,-0.55902z"/><path d="M253.38685,166.14483c-1.04006,-0.69338 -0.34669,-1.73344 -0.34669,-1.73344l0.47195,-0.69154c0.38095,-0.44445 0.7619,-0.88889 1.14285,-1.33334c0,0 0.81349,-0.94907 1.76256,-0.13558c0.94907,0.81349 0.13558,1.76256 0.13558,1.76256c-0.38095,0.44445 -0.76191,0.88889 -1.14286,1.33334l-0.28996,0.45131c0,0 -0.69337,1.04006 -1.73344,0.34669z"/><path d="M263.98498,172.64048c-1.25,0 -1.25,-1.25 -1.25,-1.25c0,-0.44445 0,-1.07936 0,-1.52381c0,0 0,-1.25 1.25,-1.25c1.25,0 1.25,1.25 1.25,1.25c0,0.44445 0,0.88889 0,1.33333v0.19048c0,0 0,1.25 -1.25,1.25z"/><path d="M226.91066,159.49327c1.04006,-0.69338 1.73344,0.34669 1.73344,0.34669l0.36493,0.54798c2.3695,3.40066 5.46748,6.25471 8.12672,9.4404c0,0 0.80022,0.96028 -0.16005,1.76051c-0.96027,0.80023 -1.7605,-0.16004 -1.7605,-0.16004c-2.70226,-3.24864 -5.82491,-6.15127 -8.25424,-9.60722l-0.39697,-0.59488c0,0 -0.69338,-1.04006 0.34669,-1.73344z"/><path d="M225.7826,150.24762c0,-0.69036 0.55964,-1.25 1.25,-1.25c0.69036,0 1.25,0.55964 1.25,1.25c0,0.69036 -0.55964,1.25 -1.25,1.25c-0.69036,0 -1.25,-0.55964 -1.25,-1.25z"/><path d="M222.98498,187.75953c-0.75,-1 0.25,-1.75 0.25,-1.75l0.57764,-0.40188c0.93069,-1.04027 1.9326,-2.03708 3.06485,-2.85338c0,0 1.01717,-0.72654 1.74372,0.29062c0.72655,1.01717 -0.29062,1.74371 -0.29062,1.74371c-0.988,0.69796 -1.84906,1.57293 -2.64943,2.47996l-0.94616,0.74097c0,0 -1,0.75 -1.75,-0.25z"/><path d="M216.25879,188.53334c0,-0.69036 0.55964,-1.25 1.25,-1.25c0.69036,0 1.25,0.55964 1.25,1.25c0,0.69036 -0.55964,1.25 -1.25,1.25c-0.69036,0 -1.25,-0.55964 -1.25,-1.25z"/><path d="M218.03722,163.94758c0.39529,-1.18586 1.58114,-0.79057 1.58114,-0.79057l0.86952,0.33626c1.74609,1.1852 3.16834,2.78511 4.34669,4.53717c0,0 0.69338,1.04006 -0.34669,1.73344c-1.04006,0.69338 -1.73344,-0.34669 -1.73344,-0.34669c-0.96469,-1.4624 -2.18542,-2.88801 -3.65331,-3.84379l-0.27334,-0.04469c0,0 -1.18586,-0.39528 -0.79057,-1.58113z"/><path d="M214.73498,166.81905c0,-0.69036 0.55964,-1.25 1.25,-1.25c0.69036,0 1.25,0.55964 1.25,1.25c0,0.69036 -0.55964,1.25 -1.25,1.25c-0.69036,0 -1.25,-0.55964 -1.25,-1.25z"/><path d="M230.2826,201.34286c-1,-0.75 -0.25,-1.75 -0.25,-1.75l0.4534,-0.57092c1.35798,-2.6849 2.33362,-5.2591 4.094,-7.77686c0,0 0.71682,-1.02404 1.74086,-0.30721c1.02404,0.71683 0.30722,1.74087 0.30722,1.74087c-1.6969,2.42117 -2.61919,4.86264 -3.90601,7.46124l-0.68946,0.95289c0,0 -0.75,1 -1.75,0.25z"/><path d="M227.68736,206.4381c0,-0.69036 0.55964,-1.25 1.25,-1.25c0.69036,0 1.25,0.55964 1.25,1.25c0,0.69036 -0.55964,1.25 -1.25,1.25c-0.69036,0 -1.25,-0.55964 -1.25,-1.25z"/><path d="M233.97308,203.77143c0,-0.69036 0.55964,-1.25 1.25,-1.25c0.69036,0 1.25,0.55964 1.25,1.25c0,0.69036 -0.55964,1.25 -1.25,1.25c-0.69036,0 -1.25,-0.55964 -1.25,-1.25z"/><path d="M243.99931,194.86205c-1.18585,0.39528 -1.58114,-0.79057 -1.58114,-0.79057l-0.4451,-1.53814c0,-0.50794 0,-1.01587 0,-1.52381c0,0 0,-1.25 1.25,-1.25c1.25,0 1.25,1.25 1.25,1.25c0,0.50794 0,1.01587 0,1.52381l0.31681,0.74757c0,0 0.39528,1.18585 -0.79057,1.58114z"/><path d="M245.40165,196.15238c0,-0.69036 0.55964,-1.25 1.25,-1.25c0.69036,0 1.25,0.55964 1.25,1.25c0,0.69036 -0.55964,1.25 -1.25,1.25c-0.69036,0 -1.25,-0.55964 -1.25,-1.25z"/><path d="M259.69171,189.60766c-0.69338,1.04006 -1.73344,0.34669 -1.73344,0.34669l-0.47662,-0.32365c-1.18366,-0.64576 -2.37342,-1.28124 -3.5795,-1.8841c0,0 -1.11803,-0.55902 -0.55902,-1.67705c0.55902,-1.11803 1.67705,-0.55902 1.67705,-0.55902c1.23254,0.61645 2.44871,1.26562 3.6586,1.92543l0.66624,0.43826c0,0 1.04006,0.69338 0.34669,1.73344z"/></g></g></svg>