<svg version="1.1" xmlns="http://www.w3.org/2000/svg" xmlns:xlink="http://www.w3.org/1999/xlink" width="531.53153" height="498.4985" viewBox="0,0,531.53153,498.4985"><defs><radialGradient cx="237.74776" cy="191.0572" r="249.24925" gradientUnits="userSpaceOnUse" id="color-1"><stop offset="0" stop-color="#000000" stop-opacity="0"/><stop offset="1" stop-color="#000000"/></radialGradient></defs><g transform="translate(25.76576,58.19205)"><g data-paper-data="{&quot;isPaintingLayer&quot;:true}" fill-rule="nonzero" stroke-miterlimit="10" stroke-dasharray="" stroke-dashoffset="0" style="mix-blend-mode: normal"><path d="M-25.76576,387.20721v-414.41441h531.53153v414.41441z" fill="#000000" stroke="none" stroke-width="NaN" stroke-linecap="butt" stroke-linejoin="miter"/><path d="M219.01854,362.33925v0v0v0v0v0v0c13.19226,7.80433 18.26078,11.69091 14.33796,22.59648c-2.94244,8.17669 1.07251,27.93307 1.07251,27.93307c0,0 3.32271,1.603 1.63921,4.21473c-1.68867,2.64397 -10.68281,3.04751 -21.81602,0.51826c-11.13053,-2.52546 -19.97861,-3.91217 -20.78849,-6.82811c-0.81582,-2.90316 1.74112,-3.75093 1.74112,-3.75093c0,0 1.52834,-6.28884 2.7173,-13.12642c1.176,-6.84015 3.30596,-25.74167 3.30596,-25.74167c0,0 4.59815,-13.61982 17.79041,-5.81545z" fill="#484848" stroke="#000000" stroke-width="3" stroke-linecap="butt" stroke-linejoin="miter"/><path d="M247.5698,367.44989v0v0v0v0v0v0c9.81965,-6.61489 16.14613,-8.4924 19.81002,-3.28463c0,0 6.9787,9.06306 11.38108,18.98044c4.39526,9.91219 8.28995,21.50567 8.28995,21.50567c0,0 3.86473,1.29924 4.14775,3.16631c0.28992,1.866 -2.16136,6.01779 -18.20383,9.14995c-16.0396,3.11126 -22.21953,1.42123 -23.12157,-0.93417c-0.91457,-2.35001 0.93914,-2.87947 0.93914,-2.87947c0,0 -0.21684,-2.68073 -1.50187,-9.03941c-1.28135,-6.35895 -5.89324,-17.69589 -5.89324,-17.69589c0,0 -5.66746,-12.35353 4.15245,-18.96883z" fill="#484848" stroke="#000000" stroke-width="3" stroke-linecap="butt" stroke-linejoin="miter"/><path d="M234.66657,321.07507v0v0v0v0v0v0c29.84806,-0.73441 40.29552,17.1026 40.2891,17.09897c2.1852,4.58004 4.85931,11.02076 5.80528,16.82299c0.26058,1.60267 0.37868,3.39682 0.3308,5.31203c0,0 -0.52498,6.63344 -1.27713,8.62743c-3.15434,8.35318 -8.0525,17.42066 -18.81801,21.07034c-16.9036,5.75802 -34.48106,4.01672 -52.33151,-5.65769c-6.02447,-3.25642 -9.42206,-8.44451 -11.09858,-14.23518c-1.19457,-4.16677 -1.51583,-9.53454 -1.51583,-9.53454c-0.40006,-8.92165 1.60836,-17.50431 2.63405,-21.22876c0,0 6.13747,-17.54132 35.98187,-18.27555z" fill="#484848" stroke="#000000" stroke-width="3" stroke-linecap="butt" stroke-linejoin="miter"/><path d="M209.12196,341.08449v0v0v0v0v0v0c14.18788,9.43613 10.22334,36.96349 9.94656,39.34537c-0.9969,3.13774 0,0 -0.00856,0.06823l-25.27104,1.20023l0.0249,0.04667c-0.21053,-1.13424 -0.41173,-2.30715 -0.56336,-3.55567c-0.86132,-7.06478 -1.39196,-21.49315 -1.39196,-21.49315c0,0 2.89398,-25.16899 17.26345,-15.61164z" fill="#484848" stroke="#000000" stroke-width="3" stroke-linecap="round" stroke-linejoin="round"/><path d="M84.9571,295.31787v0v0v0v0v0v0c-0.16697,-0.30957 -5.05347,-9.01246 -5.05335,-9.0161c-13.57928,-23.21587 -15.29098,-74.91377 -13.60623,-90.98679l0.13088,-0.76856c5.94226,-68.16102 38.70887,-103.7158 57.9978,-122.47943c43.78216,-42.61809 108.34399,-42.60121 108.34399,-42.60121l1.05011,44.38205c0,0 0.23278,-12.74953 26.80742,-34.30916c26.56799,-21.5598 64.84706,-17.23473 64.84706,-17.23473l-21.90936,54.96972c0,0 12.48477,-16.96475 22.49732,-23.01236c17.75086,-10.70312 32.36244,-5.48359 32.36244,-5.48359l-5.02511,34.33311c0,0 25.01526,34.36873 43.99753,66.53775c4.0627,6.86398 8.79855,13.82977 11.7034,21.77166c10.5643,28.85575 10.78581,79.76637 -2.65139,104.60547c-2.32378,4.39614 -4.8397,8.65758 -7.44313,12.84348c-0.67654,1.07479 -1.35616,2.14286 -2.04536,3.19745c-2.38023,3.67854 -4.85791,7.2813 -7.45506,10.76826c-0.35092,0.46409 -0.67327,0.95882 -1.02422,1.42325c-2.94311,3.87813 -6.0374,7.60622 -9.2484,11.22523c-0.7668,0.87351 -1.57274,1.71581 -2.35625,2.58227c-2.74885,2.9857 -5.59148,5.88248 -8.50363,8.66456c-0.67132,0.65098 -1.32641,1.31198 -2.00368,1.9393c-3.50198,3.2366 -7.14164,6.31315 -10.88379,9.24436c-0.83348,0.64315 -1.68599,1.25568 -2.52605,1.88507c-3.13932,2.36503 -6.37837,4.61775 -9.68705,6.7591c-0.95526,0.60962 -1.8883,1.25297 -2.8498,1.84922c-4.03824,2.49568 -8.16824,4.82975 -12.42553,6.97441c-0.75986,0.38661 -1.56489,0.722 -2.33462,1.09506c-3.6365,1.76443 -7.35188,3.37757 -11.14298,4.86255c-16.03641,6.27713 -33.36856,10.17174 -51.88522,10.98793c-21.16196,0.9312 -40.2632,-0.2413 -57.47039,-2.97451c-4.25472,-0.67558 -8.39042,-1.45692 -12.41486,-2.31486c-0.76434,-0.17711 -1.52555,-0.34746 -2.28306,-0.51771c-4.07886,-0.92228 -8.08008,-1.90195 -11.91524,-2.99999c-0.02295,-0.00723 -0.05252,-0.01472 -0.07874,-0.02204c-3.84243,-1.08801 -7.5321,-2.2911 -11.13372,-3.55831c-0.63056,-0.21963 -1.27757,-0.43971 -1.90467,-0.66291c-3.45979,-1.23971 -6.82826,-2.55657 -10.07161,-3.94272c-0.57063,-0.23451 -1.12014,-0.4985 -1.68688,-0.73951c-3.20053,-1.39519 -6.31954,-2.84109 -9.30752,-4.36261c-0.11414,-0.06933 -0.24219,-0.11622 -0.35319,-0.17888c-3.05937,-1.56984 -5.97809,-3.20222 -8.8125,-4.86901c-0.52876,-0.31266 -1.054,-0.61902 -1.56877,-0.93168c-2.72575,-1.65015 -5.36473,-3.33134 -7.87602,-5.05817c-0.38397,-0.25941 -0.74796,-0.52817 -1.12855,-0.79041c-2.38353,-1.67039 -4.6869,-3.37195 -6.88649,-5.10367c-0.2272,-0.16539 -0.47761,-0.34137 -0.69482,-0.523c-2.29331,-1.82359 -4.45588,-3.68369 -6.53888,-5.55432c-0.40475,-0.35955 -0.80242,-0.72181 -1.19028,-1.08056c-2.02975,-1.86957 -3.98011,-3.7398 -5.81031,-5.65006c-0.20946,-0.20825 -0.39914,-0.42884 -0.60522,-0.63996c-1.72342,-1.81474 -3.35657,-3.63973 -4.8971,-5.46259c-0.2149,-0.26421 -0.45969,-0.52311 -0.67804,-0.78082c-1.57766,-1.91647 -4.97569,-6.45229 -5.23744,-6.81412c-1.36537,-1.91382 -2.66519,-3.82257 -3.83568,-5.71774c-0.07274,-0.11813 -0.1426,-0.23615 -0.20873,-0.3537c-1.12286,-1.8244 -2.14039,-3.61909 -3.08875,-5.40556z" fill="#484848" stroke="#000000" stroke-width="3" stroke-linecap="butt" stroke-linejoin="miter"/><path d="M338.27908,202.69965v0v0v0v0v0v0c0,0 37.37863,44.70873 24.19018,89.63828c-13.18147,44.91614 -84.94972,62.10042 -139.58622,57.13376c-72.22677,-6.57065 -104.56875,-50.59561 -91.51559,-91.38619c13.06968,-40.7901 109.39495,-57.34252 109.39495,-57.34252l-16.55353,29.1066c0,0 12.44379,-1.56844 22.61142,-7.01183c10.1644,-5.43318 21.34928,-12.74712 21.34928,-12.74712l-23.824,31.83033c0,0 30.27885,0.51951 56.7831,-9.24043c26.50392,-9.74676 37.15041,-29.98089 37.15041,-29.98089z" fill="#757575" stroke="#000000" stroke-width="3" stroke-linecap="butt" stroke-linejoin="miter"/><g stroke="#000000" stroke-width="3" stroke-linejoin="miter"><path d="M388.32235,180.48508c0,0 63.09609,-33.16145 76.46786,-3.09408c13.3721,30.06704 -12.99748,64.13013 -66.88106,94.11172c0,0 2.60978,-51.62402 -9.58676,-91.01764v0v0v0v0v0v0zM388.32235,180.48508c-0.98273,-4.59745 -4.40672,-13.43214 -4.40672,-13.43214M396.30684,279.50777l0.89885,-8.33614" fill="#484848" stroke-linecap="round"/><path d="M397.20577,271.16829c0.61106,-9.55764 1.03708,-25.31088 -0.5711,-45.04137c-0.92334,-11.48277 -2.99587,-23.35868 -5.17611,-33.62675l0.0062,0.0134c36.64694,-8.24794 68.09636,26.28699 68.09636,26.28699l0.01322,0.00037c-19.02953,29.68414 -62.05385,51.54077 -62.05385,51.54077l-0.31471,0.82662v0v0v0v0v0v0z" fill="#757575" stroke-linecap="butt"/></g><g stroke="#000000" stroke-width="3" stroke-linejoin="miter"><path d="M93.59427,285.79229c-51.02581,-21.97021 -78.0933,-50.51023 -69.48148,-79.45768c8.6152,-28.95028 68.15658,-5.00613 68.15658,-5.00613c-6.56261,37.37904 1.32491,84.46381 1.32491,84.46381zM94.73046,188.55837c0,0 -2.08564,8.44895 -2.45775,12.77021M94.182,285.41081l1.69885,7.55704" fill="#484848" stroke-linecap="round"/><path d="M93.81423,284.68823c0,0 -40.52019,-15.63558 -60.60372,-40.90566l0.01002,-0.00305c0,0 24.16489,-34.89973 57.55849,-31.09545l0.00356,-0.00984c-0.82563,9.63759 -1.38072,20.74413 -0.95764,31.368c0.70418,18.26372 2.78263,32.66841 4.35703,41.36855z" fill="#757575" stroke-linecap="butt"/></g><g stroke-linejoin="miter"><path d="M295.2344,300.22863c0,15.41367 -18.45733,8.81335 -48.47343,8.81335c-30.01611,0 -41.86342,2.19365 -41.86342,-13.22002c0,-15.41367 11.84731,-42.59786 41.86342,-42.59786c26.79744,0 48.47343,45.3517 48.47343,47.00454z" fill="#231f20" stroke="none" stroke-width="3" stroke-linecap="butt"/><path d="M195.34978,245.14519l103.55687,66.83458" fill="none" stroke="#231f20" stroke-width="3" stroke-linecap="round"/><path d="M307.71999,251.02075l-116.04245,63.16234" fill="none" stroke="#231f20" stroke-width="3" stroke-linecap="round"/><path d="M240.15098,288.84472c0,-4.25905 3.45263,-7.71168 7.71168,-7.71168c4.25905,0 7.71168,3.45263 7.71168,7.71168c0,4.25905 -3.45263,16.37835 -7.71168,16.37835c-4.25905,0 -7.71168,-12.1193 -7.71168,-16.37835z" fill="none" stroke="#ff104c" stroke-width="5" stroke-linecap="butt"/></g><path d="M295.6867,337.79825v0v0v0v0v0v0c0,0 -14.62635,-22.8051 -3.34327,-29.18887c6.7848,-3.91963 14.20007,-2.42148 19.04246,-0.72209c8.85654,-11.17271 19.5212,-16.84019 32.15067,-14.95335c19.2936,2.86711 27.86818,26.94803 31.52698,43.47269c2.35118,6.95525 5.07948,14.64637 7.77574,21.09508c2.97399,7.12207 -22.43686,25.95595 -43.13335,24.9859c-26.61269,-1.24735 -50.33612,-24.4467 -47.73719,-33.33918c1.2007,-4.0454 2.5054,-7.85949 3.85329,-11.52728z" data-paper-data="{&quot;index&quot;:null}" fill="#484848" stroke="#000000" stroke-width="3" stroke-linecap="round" stroke-linejoin="round"/><path d="M-11.5015,191.0572c0,-137.65656 111.59269,-249.24925 249.24925,-249.24925c137.65656,0 249.24925,111.59269 249.24925,249.24925c0,137.65656 -111.59269,249.24925 -249.24925,249.24925c-137.65656,0 -249.24925,-111.59269 -249.24925,-249.24925z" fill="url(#color-1)" stroke="none" stroke-width="0" stroke-linecap="butt" stroke-linejoin="miter"/></g></g></svg>