<svg version="1.1" xmlns="http://www.w3.org/2000/svg" xmlns:xlink="http://www.w3.org/1999/xlink" width="66.17418" height="102.76522" viewBox="0,0,66.17418,102.76522"><g transform="translate(-204.8856,-128.61736)"><g data-paper-data="{&quot;isPaintingLayer&quot;:true}" fill-rule="nonzero" stroke="none" stroke-width="0.5" stroke-linecap="butt" stroke-linejoin="miter" stroke-miterlimit="10" stroke-dasharray="" stroke-dashoffset="0" style="mix-blend-mode: normal"><path d="M240.16563,141.35834c1.70344,1.29089 3.27746,2.81693 4.6287,4.6977l2.28364,1.05847c3.54354,6.44577 4.04278,13.78261 8.01297,19.87449c1.70164,2.61101 4.38953,4.57615 6.13732,7.19757c5.70274,8.55323 4.8491,18.41728 3.57786,28.13009c-4.88696,16.94208 -21.2633,32.01231 -38.24493,18.61947c0,0 -0.02134,-0.01668 -0.06103,-0.04446c-0.03811,-0.02993 -0.06033,-0.04544 -0.06033,-0.04544l-1.94516,-1.35062c-4.11693,-3.31734 -6.56228,-6.54 -3.97512,-11.5416c0.23242,-0.41978 0.61986,-1.0325 0.79596,-1.43831c0.20074,0.15056 0.39903,0.2989 0.59977,0.44946l-0.08159,-0.04288c0,0 1.917,1.91902 3.84455,-0.00856c1.92757,-1.92757 -0.16999,-3.64236 -0.16999,-3.64236l-0.50474,-0.46574c-0.8404,-0.63028 -1.69205,-1.2723 -2.53242,-1.9026c0,0 -0.11558,-0.08718 -0.31169,-0.1933c-0.1435,-3.60474 -1.27099,-7.09608 -0.18414,-11.27816c1.66067,-6.39018 6.32318,-12.33955 8.57798,-18.5948c1.26562,-3.51108 1.90694,-6.99732 2.42709,-10.53849c1.10127,1.14914 2.11373,2.36229 3.24505,3.74505l-0.00169,0.33691c0,0 1.03386,2.52585 3.56489,1.51344c2.531,-1.01241 1.54779,-3.27271 1.54779,-3.27271l-0.8371,-1.76459c-2.30834,-2.82132 -4.23976,-5.0728 -7.12135,-7.35581c0,0 -0.06559,-0.05218 -0.18384,-0.12627c-0.76712,-1.6109 -1.73136,-3.38748 -2.69562,-4.84062c1.66735,-2.84634 3.79035,-4.28801 7.36268,-5.81789c0.41244,-0.03124 1.71345,-0.2204 2.30452,-1.35752z" data-paper-data="{&quot;noHover&quot;:false,&quot;origItem&quot;:[&quot;Path&quot;,{&quot;applyMatrix&quot;:true,&quot;segments&quot;:[[[552.1385,344.97926],[0.30261,-0.02292],[-2.62093,1.12244]],[[546.7577,349.24295],[1.22331,-2.08831],[0.70745,1.06615]],[[548.67337,352.6043],[-0.56281,-1.18188],[0.08675,0.05436]],[[548.80866,352.69681],[0,0],[2.11416,1.675]],[[554.0535,358.08968],[-1.69359,-2.06994],[0,0]],[554.67083,359.38409],[[553.55665,361.98383],[1.85695,-0.74278],[-1.85695,0.74278]],[550.95692,360.86965],[[550.95767,360.62263],[0,0],[-0.83003,-1.01449]],[[548.58403,357.87234],[0.80798,0.8431],[-0.38163,2.59808]],[[546.83363,365.58478],[0.92856,-2.576],[-1.6543,4.58933]],[[540.5683,379.12759],[1.21841,-4.68834],[-0.7974,3.06832]],[[540.68392,387.36488],[-0.10527,-2.64473],[0.14387,0.07785]],[[540.91174,387.5057],[0,0],[0.61657,0.46243]],[[542.76145,388.89299],[-0.61657,-0.46243],[0,0]],[543.12981,389.23292],[[543.12981,392.06134],[1.41421,-1.41421],[-1.41421,1.41421]],[540.30138,392.06134],[[540.36145,392.09299],[0,0],[-0.14727,-0.11045]],[[539.91964,391.76162],[0.14727,0.11045],[-0.1292,0.29773]],[[539.47124,392.66984],[0.17052,-0.30797],[-1.89814,3.66955]],[[542.3655,401.12235],[-3.0205,-2.43386],[0,0]],[543.78738,402.1108],[[543.83148,402.14406],[-0.02796,-0.02196],[0.02912,0.02039]],[[543.8761,402.17662],[0,0],[12.45906,9.82604]],[[571.81933,388.54359],[-3.58547,12.43004],[0.93269,-7.12609]],[[569.18202,368.01486],[4.18399,6.27533],[-1.28233,-1.92329]],[[564.70837,362.76871],[1.24846,1.91564],[-2.91284,-4.46947]],[[558.87709,348.20638],[2.59982,4.72913],[0,0]],[[557.20797,347.43037],[0,0],[-0.99138,-1.37988]],[[553.82354,343.98377],[1.24979,0.9471],[-0.43366,0.83428]]],&quot;closed&quot;:true}]}" fill="#4c262f"/><path d="M224.03096,150.37875l-0.34086,0.08009c-0.87191,0.50992 -2.57336,1.18221 -4.11227,1.89505c1.0657,-1.56581 2.36463,-3.28523 3.65863,-4.62314c0.3646,0.44308 0.78435,0.96195 1.13398,1.41514c-0.05725,0.13633 -0.10833,0.29413 -0.1649,0.43373c0,0 -0.12147,0.35623 -0.1746,0.79912z" data-paper-data="{&quot;noHover&quot;:false,&quot;origItem&quot;:[&quot;Path&quot;,{&quot;applyMatrix&quot;:true,&quot;segments&quot;:[[[542.01044,349.93643],[0,0],[0.0415,-0.10242]],[[542.13567,349.63277],[-0.04199,0.10002],[-0.25651,-0.3325]],[[541.34911,348.64688],[0.2675,0.32508],[-0.94938,0.9816]],[[538.78496,351.88168],[0.78187,-1.14879],[1.12905,-0.523]],[[541.63271,350.53804],[-0.6397,0.37412],[0,0]],[[541.88137,350.48656],[0,0],[0.03899,-0.32493]]],&quot;closed&quot;:true}]}" fill="#904f1d"/><path d="M234.9307,138.24817c-3.34991,1.55112 -5.8506,3.42482 -7.7767,5.95397c-0.96811,-1.16874 -2.09915,-2.32333 -3.12995,-3.46253c-0.00442,-0.13976 -0.03721,-0.30089 -0.06095,-0.45524c-0.41451,-2.69429 -2.88699,-2.34531 -2.88699,-2.34531c-1.68687,0.27415 -3.94838,0.76505 -5.88026,1.54209c1.57802,-2.20148 3.53891,-4.16439 7.98669,-5.17878l0.99842,-0.20069c0,0 0.29773,-0.05793 0.65805,-0.2241c3.36177,1.45213 6.91237,2.81404 10.09162,4.37058z" data-paper-data="{&quot;noHover&quot;:false,&quot;origItem&quot;:[&quot;Path&quot;,{&quot;applyMatrix&quot;:true,&quot;segments&quot;:[[[542.57741,338.49539],[2.46645,1.06541],[-0.26438,0.12191]],[542.10783,338.65834],[[541.3946,338.8001],[0,0],[-3.26324,0.74423]],[[535.59796,342.50227],[1.15776,-1.61518],[1.41736,-0.5701]],[[539.71591,341.34857],[-1.23763,0.20115],[0,0]],[[541.99677,343.0212],[-0.30411,-1.97674],[0.01742,0.11325]],[[542.02738,343.34475],[-0.00325,-0.10253],[0.75627,0.83581]],[[544.2339,345.87771],[-0.71027,-0.85749],[1.41314,-1.85559]],[[549.87739,341.61012],[-2.45776,1.13801],[-2.33254,-1.142]]],&quot;closed&quot;:true}]}" fill="#904f1d"/><path d="M229.74447,217.84501l-1.18458,-0.94766c-0.31747,-0.24954 -0.52137,-0.63704 -0.52137,-1.07219c0,-0.36299 0.14189,-0.69284 0.37324,-0.93711l-0.27576,0.11032l-0.5217,-1.3043c-0.07014,-0.16424 -0.10899,-0.34506 -0.10899,-0.53489c0,-0.75275 0.61024,-1.363 1.363,-1.363c0.37638,0 0.71715,0.15255 0.9638,0.39919l1.06638,1.06641c1.33265,1.3531 2.95247,2.38102 4.58313,2.13382c-0.46178,-3.96329 -0.63652,-8.24585 -1.03416,-11.3984c0,0 -0.11771,-0.94164 0.62902,-1.35171c-1.44398,-2.26958 -1.88704,-5.54235 -2.4966,-7.97557c-0.96893,-2.93712 -1.29953,-5.9929 -2.49744,-8.85941c-0.18338,-0.04929 -0.37755,-0.14889 -0.57723,-0.32003c-1.03487,-0.88701 -0.14783,-1.9219 -0.14783,-1.9219c9.85666,-11.29446 14.42649,11.87907 25.26161,6.48216c1.18641,-0.79397 5.17636,-4.36526 6.67884,-3.23676c1.40626,1.05621 0.49978,6.61407 0.39153,8.2151c-0.49327,7.29579 -3.5639,15.02623 -8.39572,20.66968c-0.66481,0.82884 -3.27822,4.17562 -4.26612,3.98082c-0.16383,-0.0323 -0.32723,-0.11553 -0.48934,-0.24038c-2.76189,3.30932 -8.59837,7.30061 -11.0344,4.06494c-3.00952,0.09552 -5.69233,-2.44562 -7.75934,-5.6591z" fill="#000000"/><path d="M235.17748,139.41023c-0.75605,1.13409 -1.89015,0.37804 -1.89015,0.37804l-0.46628,-0.31474c-7.57754,-4.33002 -10.88068,-4.16632 -18.07926,0.33647c0,0 -1.15582,0.72239 -1.87821,-0.43343c-0.72239,-1.15582 0.43343,-1.87821 0.43343,-1.87821c7.94822,-4.96337 12.60473,-5.11837 20.8765,-0.39167l0.62591,0.4134c0,0 1.13409,0.75605 0.37804,1.89015z" fill="#f19f5f"/><path d="M237.8767,142.85125c-3.57233,1.52988 -5.66665,2.96503 -7.334,5.81137c0.96424,1.45314 1.84394,2.97062 2.61104,4.58152c0.11825,0.07409 0.18439,0.1261 0.18439,0.1261c2.88159,2.28302 4.84035,4.52912 7.14869,7.35044l0.84143,1.76429c0,0 1.01238,2.53103 -1.51862,3.54343c-2.531,1.01241 -3.54343,-1.51862 -3.54343,-1.51862l0.00104,-0.33669c-1.13131,-1.38276 -2.13399,-2.5995 -3.23526,-3.74865c-0.52015,3.54117 -1.12016,7.00094 -2.38579,10.51202c-2.2548,6.25525 -6.87893,12.06859 -8.5396,18.45877c-1.08685,4.18211 0.01409,7.62263 0.15759,11.2274c0.19608,0.10612 0.31052,0.19194 0.31052,0.19194c0.8404,0.63028 1.68076,1.26058 2.52113,1.89088l0.50207,0.46334c0,0 1.92757,1.92755 0,3.85512c-1.92757,1.92757 -3.85515,0 -3.85515,0l0.08186,0.04313c-0.20074,-0.15056 -0.40146,-0.30111 -0.6022,-0.45164c-0.1761,0.40582 -0.37875,0.81815 -0.61117,1.2379c-2.58716,5.00159 -0.17206,8.20338 3.94486,11.52072l1.93802,1.34727c0,0 0.022,0.0154 0.06011,0.04533c0.03969,0.02781 0.06082,0.04438 0.06082,0.04438c16.98164,13.39284 33.19951,-1.63966 38.08647,-18.58177c1.27124,-9.71281 2.10812,-19.42731 -3.59463,-27.98054c-1.74782,-2.62145 -4.3959,-4.53948 -6.09758,-7.15046c-3.97019,-6.09188 -4.40446,-13.4026 -7.94801,-19.84837l-2.275,-1.05771c-1.35125,-1.88077 -2.9095,-3.40681 -4.61295,-4.6977c-0.59108,1.13712 -1.88423,1.32562 -2.2967,1.35686zM224.07221,149.60786c0.05656,-0.1396 0.11346,-0.27756 0.17067,-0.41389c-0.34964,-0.4532 -0.70748,-0.90067 -1.07208,-1.34375c-1.294,1.33792 -2.42924,2.84321 -3.49494,4.40902c1.5389,-0.71285 3.00957,-1.32145 3.88148,-1.83137l0.33892,-0.07017c0.05316,-0.44286 0.17594,-0.74981 0.17594,-0.74981zM225.73007,155.4734c-3.78403,2.22713 -6.86246,4.25541 -10.55656,5.35812l0.26439,0.85929l-2.67054,0.82172c-0.27102,0.09031 -0.56098,0.13922 -0.86237,0.13922c-1.50551,0 -2.72599,-1.22045 -2.72599,-2.72599c0,-0.45786 0.11286,-0.88935 0.31229,-1.26816l1.44617,-2.89228l0.04659,0.02328l0.03388,-0.17245c2.67987,-4.03239 5.12383,-8.32899 8.49007,-11.79386c-2.746,0.92725 -4.51634,2.66476 -7.25563,4.47847c-1.49801,0.99182 -2.99068,3.32732 -4.67049,2.69009c-4.14961,-1.57415 -2.52247,-6.70373 -1.55319,-9.13487c2.89181,-7.25337 8.66587,-11.03448 15.97825,-12.73921l1.12886,-0.22697c0,0 0.50038,-0.1001 1.1115,0.00286c1.1278,-0.59683 2.40661,-0.03735 2.40661,-0.03735c7.51196,3.28664 14.7943,5.67409 20.34431,11.50455c1.30875,-0.20115 2.34059,0.83069 2.34059,0.83069l1.18098,1.25584c4.55423,6.83716 4.77817,15.12009 9.04225,21.65213c2.31159,3.54103 5.68361,6.02125 7.70215,9.89976c4.87034,9.35813 4.14928,19.20068 2.77484,29.3431c-5.89179,20.79609 -26.45672,37.61629 -46.73304,21.80285l-2.20216,-1.5506c-6.17938,-5.11799 -8.99773,-10.73509 -5.29935,-18.31287c3.29185,-5.53092 -0.58107,-11.04947 1.02584,-17.25824c2.97155,-11.48138 9.3671,-20.44007 11.39085,-32.45973c-0.1876,-0.39895 -0.38376,-0.79138 -0.58783,-1.1779c-0.52917,0.76982 -1.40443,1.01221 -1.9032,1.08854zM224.845,134.01378c-0.36035,0.16618 -0.64004,0.22211 -0.64004,0.22211l-0.97212,0.19322c-4.44778,1.0144 -6.32277,2.84457 -7.90079,5.04605c1.93185,-0.77704 3.92586,-1.29833 5.61276,-1.57249c0,0 2.69429,-0.41449 3.1088,2.2798c0.02374,0.15435 0.03729,0.30125 0.04173,0.44101c1.03078,1.13919 2.03937,2.28364 3.00748,3.45241c1.9261,-2.52917 4.34215,-4.2656 7.69206,-5.81669c-3.17924,-1.55654 -6.58806,-2.79321 -9.94984,-4.24538z" fill="#000000"/></g></g></svg>