<svg version="1.1" xmlns="http://www.w3.org/2000/svg" xmlns:xlink="http://www.w3.org/1999/xlink" width="567.56756" height="567.56756" viewBox="0,0,567.56756,567.56756"><defs><radialGradient cx="240.00001" cy="180" r="283.78378" gradientUnits="userSpaceOnUse" id="color-1"><stop offset="0" stop-color="#000000" stop-opacity="0"/><stop offset="1" stop-color="#000000"/></radialGradient></defs><g transform="translate(43.78378,103.78378)"><g data-paper-data="{&quot;isPaintingLayer&quot;:true}" fill-rule="nonzero" stroke-linejoin="miter" stroke-miterlimit="10" stroke-dasharray="" stroke-dashoffset="0" style="mix-blend-mode: normal"><path d="M-25.76575,387.20721v-414.41441h531.53153v414.41441z" fill="#000000" stroke="none" stroke-width="NaN" stroke-linecap="butt"/><path d="M70.11744,88.24731l52.83189,-31.94185l45.49497,30.3971l63.20448,-48.8321c0,0 -12.82002,-31.16999 -6.73809,-32.39885c26.48986,-5.35224 52.55227,-52.35993 52.55227,-52.35993c0,0 17.28255,32.35735 35.67757,62.29025c18.77479,30.52845 69.69308,63.85533 117.58989,134.53002c5.71128,8.4571 10.29936,17.04398 13.89397,25.64301l0.85524,1.08824c11.04587,13.95112 49.26779,68.49548 30.59081,133.73924c-14.23956,49.70831 -40.37018,61.29123 -52.38323,63.44675l-0.16168,0.35334c7.9337,-10.27917 13.66775,-21.70232 17.62779,-33.65086c13.08155,-39.51772 -3.82538,-70.03404 -11.15893,-107.97459c-9.50716,-49.19515 -54.45245,-84.42196 -119.24215,-95.44662c-123.30868,-20.9972 -163.48267,42.65481 -163.48267,42.65481l-0.26119,0.87537c14.7497,46.51271 6.01937,141.78069 -45.98151,160.87585c-56.00462,20.52578 -128.42703,-4.17053 -135.23358,-126.03451c-6.2338,-111.53054 79.60668,-129.92956 102.92293,-125.19853l1.40111,-2.05625v0v0v0v0v0v0v0v0v0v0v0v0v0v0v0v0v0v0v0v0v0v0v0v0v0v0v0v0v0v0v0v0v0v0v0v0v0zM444.62015,175.57413c0,0 22.5049,57.16468 -0.00541,118.21461M68.7172,90.29922c22.48271,4.9166 34.55656,23.92098 34.55656,23.92098M147.0058,180.65128c-2.67673,-6.63673 -4.40149,-12.01037 -4.40149,-12.01037" fill="#b35f43" stroke="#000000" stroke-width="3" stroke-linecap="round"/><path d="M433.88403,358.23699c0,0 13.67399,-16.44189 26.96236,-48.83337c13.28311,-32.41035 12.87467,-80.00044 12.87467,-80.00044c7.44642,22.69349 11.03144,50.67895 2.36664,81.00262c-13.85292,48.4325 -40.01021,60.86349 -52.39186,63.44509l10.18814,-15.61391v0v0v0v0v0v0v0v0v0v0v0v0v0v0v0v0v0v0v0v0v0v0v0v0v0v0v0v0v0v0v0v0v0v0v0v0v0z" fill="#a2a3a4" stroke="#000000" stroke-width="3" stroke-linecap="butt"/><g fill="#a2a3a4" stroke="#231f20" stroke-width="3"><path d="M-33.53854,226.37185v0v0v0v0v0v0v0v0v0v0v0v0v0v0v0v0v0v0v0v0v0v0v0v0v0v0v0v0v0v0v0v0v0v0v0v0v0c-1.37864,-20.95152 0.04276,-52.94247 8.81687,-76.35955c9.03735,-24.16252 26.86728,-37.53782 43.84359,-38.36741c31.79037,-1.58502 60.19874,49.05546 63.48649,113.08889c3.07809,60.35579 -17.2235,111.06706 -46.18892,118.04289c0,0 -8.94495,-0.5528 -24.72829,-13.55721c-15.77393,-12.98077 -27.84602,-32.41859 -32.01742,-44.29527c-4.19101,-11.86751 -11.82724,-37.56435 -13.21231,-58.55233z" stroke-linecap="butt"/><path d="M-4.96201,179.09249c12.63957,-2.7603 28.6524,21.08394 35.76792,53.27694c7.10615,32.16886 2.6306,60.51619 -9.9957,63.27449c-12.64654,2.75001 -28.64913,-21.1012 -35.75773,-53.28342c-7.12609,-32.18159 -2.64587,-60.5062 9.98556,-63.26801v0v0v0v0v0v0v0v0v0v0v0v0v0v0v0v0v0v0v0v0v0v0v0v0v0v0v0v0v0v0v0v0v0v0v0v0v0zM26.83431,291.75701c-42.33658,-39.56936 -27.841,-112.68768 -27.841,-112.68768" stroke-linecap="round"/></g><path d="M96.50033,343.52015v0v0v0v0v0v0v0v0v0v0v0v0v0v0v0v0v0v0v0v0v0v0v0v0v0v0v0v0v0v0v0v0v0v0v0v0v0l-0.19702,-0.37757c1.58473,-0.50195 3.15878,-1.04168 4.72016,-1.61111c52.06778,-19.11818 60.74442,-114.62019 45.92364,-161.04372l0.32764,-0.7059c0,0 40.17613,-63.6605 163.50422,-42.65067c64.79023,11.02471 109.72645,46.24982 119.23791,95.44574c7.32926,37.93977 24.24043,68.45681 11.15459,107.97381c-13.63834,41.11854 -48.36785,76.25906 -121.18665,79.40117c-72.83334,3.1974 -68.34058,-5.10168 -93.61216,0.4471c-25.2728,5.60211 -27.32106,9.78249 -27.32106,9.78249c0,0 10.26401,-13.1639 -18.24831,-26.32574c-43.05773,-19.84011 -79.40327,-55.42919 -84.30295,-60.3356z" fill="#a2a3a4" stroke="#000000" stroke-width="3" stroke-linecap="round"/><path d="M108.61861,347.88538c0,-26.5362 21.51184,-48.04805 48.04805,-48.04805c26.5362,0 48.04805,21.51184 48.04805,48.04805c0,26.5362 -21.51184,48.04805 -48.04805,48.04805c-26.5362,0 -48.04805,-21.51184 -48.04805,-48.04805z" fill="#b35f43" stroke="#000000" stroke-width="3" stroke-linecap="butt"/><path d="M174.68468,243.3133c0,-24.46306 19.83123,-44.29429 44.29429,-44.29429c24.46306,0 44.29429,19.83123 44.29429,44.29429c0,24.46306 -19.83123,44.29429 -44.29429,44.29429c-24.46306,0 -44.29429,-19.83123 -44.29429,-44.29429z" fill="#000000" stroke="#000000" stroke-width="3" stroke-linecap="butt"/><path d="M331.33634,255.82081c0,-24.46306 19.83123,-44.2943 44.2943,-44.2943c24.46307,0 44.2943,19.83123 44.2943,44.2943c0,24.46307 -19.83123,44.2943 -44.2943,44.2943c-24.46307,0 -44.2943,-19.83123 -44.2943,-44.2943z" fill="#000000" stroke="#000000" stroke-width="3" stroke-linecap="butt"/><path d="M240.24024,335.89589c0,-24.46307 19.83123,-44.29429 44.29429,-44.29429c24.46307,0 44.29429,19.83123 44.29429,44.29429c0,24.46307 -19.83123,44.2943 -44.29429,44.2943c-24.46307,0 -44.29429,-19.83123 -44.29429,-44.2943z" fill="#000000" stroke="#000000" stroke-width="3" stroke-linecap="butt"/><path d="M-43.78378,180c0,-156.72946 127.05433,-283.78378 283.78378,-283.78378c156.72946,0 283.78378,127.05433 283.78378,283.78378c0,156.72946 -127.05433,283.78378 -283.78378,283.78378c-156.72946,0 -283.78378,-127.05433 -283.78378,-283.78378z" fill="url(#color-1)" stroke="none" stroke-width="0" stroke-linecap="butt"/></g></g></svg>