<svg version="1.1" xmlns="http://www.w3.org/2000/svg" xmlns:xlink="http://www.w3.org/1999/xlink" width="45.4218" height="47.13214" viewBox="0,0,45.4218,47.13214"><defs><radialGradient cx="240" cy="180" r="20.56445" gradientUnits="userSpaceOnUse" id="color-1"><stop offset="0" stop-color="#ffffff"/><stop offset="1" stop-color="#f8b2b2"/></radialGradient><radialGradient cx="240" cy="180" r="20.56445" gradientUnits="userSpaceOnUse" id="color-2"><stop offset="0" stop-color="#a13d4c"/><stop offset="1" stop-color="#a13d4c" stop-opacity="0"/></radialGradient><radialGradient cx="240.00001" cy="180" r="20.56445" gradientUnits="userSpaceOnUse" id="color-3"><stop offset="0" stop-color="#ffffff"/><stop offset="1" stop-color="#f8b2b2"/></radialGradient><radialGradient cx="240" cy="180" r="20.56445" gradientUnits="userSpaceOnUse" id="color-4"><stop offset="0" stop-color="#ffffff"/><stop offset="1" stop-color="#d69a9a"/></radialGradient></defs><g transform="translate(-217.28265,-156.76193)"><g data-paper-data="{&quot;isPaintingLayer&quot;:true}" fill-rule="nonzero" stroke-linecap="round" stroke-linejoin="miter" stroke-miterlimit="10" stroke-dasharray="" stroke-dashoffset="0" style="mix-blend-mode: normal"><path d="M220.29173,174.97042c0,0 0.20427,-1.15631 1.17389,-1.12834c0.47986,0.01384 15.55789,0.0175 15.98666,-0.26426c0.41113,-0.27017 -8.1504,-5.78937 -8.1504,-5.78937c0,0 0.42262,-1.71819 1.78292,-3.1964c1.79088,-1.94611 4.72831,-3.85929 5.70218,-4.69974c0.8962,-0.77344 2.04736,-0.33049 2.04736,-0.33049c0,0 17.98654,14.09098 19.46886,15.68779c1.14208,1.23029 1.39771,5.71995 1.40499,5.86567c0.00879,0.17577 -0.846,4.95829 -2.14841,6.15752c-5.55021,5.11058 -20.16186,13.29165 -20.16186,13.29165c0,0 -1.5394,-0.64005 -2.29384,-1.50226c-0.85489,-0.97702 -2.93572,-3.12437 -4.13293,-4.82279c-0.67134,-0.95239 -0.88579,-2.03218 -0.88579,-2.03218c0,0 8.60789,-4.47179 7.5194,-5.16892c-0.28751,-0.18414 -15.16583,0.06684 -15.48193,0.06923c-0.49382,0.00377 -1.43934,-0.77649 -1.43934,-0.77649z" fill="url(#color-1)" stroke="url(#color-2)" stroke-width="6"/><path d="M220.29174,174.97042c0,0 0.20427,-1.15631 1.17388,-1.12834c0.47986,0.01384 15.55789,0.0175 15.98666,-0.26426c0.41113,-0.27017 -8.1504,-5.78937 -8.1504,-5.78937c0,0 0.42262,-1.71819 1.78292,-3.1964c1.79088,-1.94611 4.72831,-3.85929 5.70218,-4.69974c0.8962,-0.77344 2.04736,-0.33049 2.04736,-0.33049c0,0 17.98654,14.09098 19.46886,15.68779c1.14208,1.23029 1.39771,5.71995 1.40499,5.86567c0.00879,0.17577 -0.846,4.95829 -2.14841,6.15752c-5.55021,5.11058 -20.16186,13.29165 -20.16186,13.29165c0,0 -1.5394,-0.64005 -2.29384,-1.50226c-0.85489,-0.97702 -2.93572,-3.12437 -4.13293,-4.82279c-0.67134,-0.95239 -0.88579,-2.03218 -0.88579,-2.03218c0,0 8.60789,-4.47179 7.5194,-5.16892c-0.28751,-0.18414 -15.16583,0.06684 -15.48193,0.06923c-0.49382,0.00377 -1.43934,-0.77649 -1.43934,-0.77649z" fill="url(#color-3)" stroke="#962536" stroke-width="3.5"/><path d="M220.29174,174.97042c0,0 0.20427,-1.15631 1.17388,-1.12834c0.47986,0.01384 15.55789,0.0175 15.98666,-0.26426c0.41113,-0.27017 -8.1504,-5.78937 -8.1504,-5.78937c0,0 0.42262,-1.71819 1.78292,-3.1964c1.79088,-1.94611 4.72831,-3.85929 5.70218,-4.69974c0.8962,-0.77344 2.04736,-0.33049 2.04736,-0.33049c0,0 17.98654,14.09098 19.46886,15.68779c1.14208,1.23029 1.39771,5.71995 1.40499,5.86567c0.00879,0.17577 -0.846,4.95829 -2.14841,6.15752c-5.55021,5.11058 -20.16186,13.29165 -20.16186,13.29165c0,0 -1.5394,-0.64005 -2.29384,-1.50226c-0.85489,-0.97702 -2.93572,-3.12437 -4.13293,-4.82279c-0.67134,-0.95239 -0.88579,-2.03218 -0.88579,-2.03218c0,0 8.60789,-4.47179 7.5194,-5.16892c-0.28751,-0.18414 -15.16583,0.06684 -15.48193,0.06923c-0.49382,0.00377 -1.43934,-0.77649 -1.43934,-0.77649z" fill="#ffffff" stroke="#a52a3d" stroke-width="2"/><path d="M220.29174,174.97042c0,0 0.20427,-1.15631 1.17388,-1.12834c0.47986,0.01384 15.55789,0.0175 15.98666,-0.26426c0.41113,-0.27017 -8.1504,-5.78937 -8.1504,-5.78937c0,0 0.42262,-1.71819 1.78292,-3.1964c1.79088,-1.94611 4.72831,-3.85929 5.70218,-4.69974c0.8962,-0.77344 2.04736,-0.33049 2.04736,-0.33049c0,0 17.98654,14.09098 19.46886,15.68779c1.14208,1.23029 1.39771,5.71995 1.40499,5.86567c0.00879,0.17577 -0.846,4.95829 -2.14841,6.15752c-5.55021,5.11058 -20.16186,13.29165 -20.16186,13.29165c0,0 -1.5394,-0.64005 -2.29384,-1.50226c-0.85489,-0.97702 -2.93572,-3.12437 -4.13293,-4.82279c-0.67134,-0.95239 -0.88579,-2.03218 -0.88579,-2.03218c0,0 8.60789,-4.47179 7.5194,-5.16892c-0.28751,-0.18414 -15.16583,0.06684 -15.48193,0.06923c-0.49382,0.00377 -1.43934,-0.77649 -1.43934,-0.77649z" fill="url(#color-4)" stroke="#8b2332" stroke-width="2"/><path d="M221.35806,175.24254c0,0 0.19321,-0.53742 1.11037,-0.51097c0.34694,0.01001 8.91055,-0.00436 13.16037,-0.18315c1.31001,-0.05512 2.31083,-0.78286 2.40639,-0.84565c0.38888,-0.25555 -7.82068,-6.47752 -7.82068,-6.47752c0,0 0.06596,-0.40131 1.35268,-1.79955c1.694,-1.84082 4.47248,-3.65048 5.39366,-4.44547c0.8477,-0.73159 1.9366,-0.3126 1.9366,-0.3126c0,0 17.01338,13.3286 18.41549,14.83901c1.08029,1.16372 1.32208,5.41047 1.32898,5.54831c0.00831,0.16626 -0.80023,4.69002 -2.03217,5.82437c-5.24992,4.83407 -19.07099,12.57251 -19.07099,12.57251c0,0 -1.45612,-0.60543 -2.16973,-1.42099c-0.80863,-0.92414 -2.77689,-2.95533 -3.90932,-4.56185c-0.63502,-0.90086 -0.3928,-1.58843 -0.3928,-1.58843c0,0 8.36469,-3.67351 7.33508,-4.33294c-0.07496,-0.04802 -0.02539,-1.13376 -1.69359,-1.23075c-4.38372,-0.25488 -13.06791,-0.15185 -13.28449,-0.15019c-0.4671,0.00356 -1.69525,-0.17815 -1.69525,-0.17815z" fill="none" stroke="#d69aa3" stroke-width="1.5"/></g></g></svg>