<svg version="1.1" xmlns="http://www.w3.org/2000/svg" xmlns:xlink="http://www.w3.org/1999/xlink" width="49.0434" height="52.55024" viewBox="0,0,49.0434,52.55024"><defs><radialGradient cx="240" cy="180" r="23.28184" gradientUnits="userSpaceOnUse" id="color-1"><stop offset="0" stop-color="#ffffff"/><stop offset="1" stop-color="#f8b2b2"/></radialGradient><radialGradient cx="240" cy="180" r="23.28184" gradientUnits="userSpaceOnUse" id="color-2"><stop offset="0" stop-color="#ee5a70"/><stop offset="1" stop-color="#ee5a70" stop-opacity="0"/></radialGradient><radialGradient cx="240.00001" cy="180" r="23.28184" gradientUnits="userSpaceOnUse" id="color-3"><stop offset="0" stop-color="#ffffff"/><stop offset="1" stop-color="#f8b2b2"/></radialGradient><radialGradient cx="240" cy="180" r="23.28184" gradientUnits="userSpaceOnUse" id="color-4"><stop offset="0" stop-color="#ffffff"/><stop offset="1" stop-color="#f8b2b2"/></radialGradient></defs><g transform="translate(-214.67839,-154.06123)"><g data-paper-data="{&quot;isPaintingLayer&quot;:true}" fill-rule="nonzero" stroke-linecap="round" stroke-linejoin="miter" stroke-miterlimit="10" stroke-dasharray="" stroke-dashoffset="0" style="mix-blend-mode: normal"><path d="M217.68747,174.30581c0,0 0.23126,-1.3091 1.32901,-1.27744c0.54327,0.01567 17.61371,0.01981 18.09914,-0.29918c0.46546,-0.30587 -9.2274,-6.55438 -9.2274,-6.55438c0,0 0.47846,-1.94523 2.01852,-3.61877c2.02753,-2.20327 5.35311,-4.36926 6.45567,-5.32077c1.01462,-0.87564 2.3179,-0.37416 2.3179,-0.37416c0,0 20.36328,15.95297 22.04148,17.76078c1.293,1.39286 1.5824,6.47579 1.59065,6.64076c0.00995,0.199 -0.95779,5.61348 -2.4323,6.97118c-6.28362,5.78589 -22.82605,15.04801 -22.82605,15.04801c0,0 -1.74282,-0.72463 -2.59695,-1.70077c-0.96785,-1.10612 -3.32365,-3.53723 -4.67906,-5.46008c-0.76005,-1.07824 -1.00284,-2.30071 -1.00284,-2.30071c0,0 9.74534,-5.06269 8.51301,-5.85194c-0.3255,-0.20847 -17.16985,0.07567 -17.52772,0.07838c-0.55907,0.00427 -1.62953,-0.87909 -1.62953,-0.87909z" fill="url(#color-1)" stroke="url(#color-2)" stroke-width="6"/><path d="M217.68749,174.30581c0,0 0.23126,-1.3091 1.329,-1.27744c0.54327,0.01567 17.61371,0.01981 18.09914,-0.29918c0.46546,-0.30587 -9.2274,-6.55438 -9.2274,-6.55438c0,0 0.47846,-1.94523 2.01852,-3.61877c2.02753,-2.20327 5.35311,-4.36926 6.45567,-5.32077c1.01462,-0.87564 2.3179,-0.37416 2.3179,-0.37416c0,0 20.36328,15.95297 22.04148,17.76078c1.293,1.39286 1.5824,6.47579 1.59065,6.64076c0.00995,0.199 -0.95779,5.61348 -2.4323,6.97118c-6.28362,5.78589 -22.82605,15.04801 -22.82605,15.04801c0,0 -1.74282,-0.72463 -2.59695,-1.70077c-0.96785,-1.10612 -3.32365,-3.53723 -4.67906,-5.46008c-0.76005,-1.07824 -1.00284,-2.30071 -1.00284,-2.30071c0,0 9.74534,-5.06269 8.51301,-5.85194c-0.3255,-0.20847 -17.16985,0.07567 -17.52772,0.07838c-0.55907,0.00427 -1.62953,-0.87909 -1.62953,-0.87909z" fill="url(#color-3)" stroke="#c73248" stroke-width="3.5"/><path d="M217.68749,174.30581c0,0 0.23126,-1.3091 1.329,-1.27744c0.54327,0.01567 17.61371,0.01981 18.09914,-0.29918c0.46546,-0.30587 -9.2274,-6.55438 -9.2274,-6.55438c0,0 0.47846,-1.94523 2.01852,-3.61877c2.02753,-2.20327 5.35311,-4.36926 6.45567,-5.32077c1.01462,-0.87564 2.3179,-0.37416 2.3179,-0.37416c0,0 20.36328,15.95297 22.04148,17.76078c1.293,1.39286 1.5824,6.47579 1.59065,6.64076c0.00995,0.199 -0.95779,5.61348 -2.4323,6.97118c-6.28362,5.78589 -22.82605,15.04801 -22.82605,15.04801c0,0 -1.74282,-0.72463 -2.59695,-1.70077c-0.96785,-1.10612 -3.32365,-3.53723 -4.67906,-5.46008c-0.76005,-1.07824 -1.00284,-2.30071 -1.00284,-2.30071c0,0 9.74534,-5.06269 8.51301,-5.85194c-0.3255,-0.20847 -17.16985,0.07567 -17.52772,0.07838c-0.55907,0.00427 -1.62953,-0.87909 -1.62953,-0.87909z" fill="#ffffff" stroke="#a52a3d" stroke-width="2"/><path d="M217.68749,174.30581c0,0 0.23126,-1.3091 1.329,-1.27744c0.54327,0.01567 17.61371,0.01981 18.09914,-0.29918c0.46546,-0.30587 -9.2274,-6.55438 -9.2274,-6.55438c0,0 0.47846,-1.94523 2.01852,-3.61877c2.02753,-2.20327 5.35311,-4.36926 6.45567,-5.32077c1.01462,-0.87564 2.3179,-0.37416 2.3179,-0.37416c0,0 20.36328,15.95297 22.04148,17.76078c1.293,1.39286 1.5824,6.47579 1.59065,6.64076c0.00995,0.199 -0.95779,5.61348 -2.4323,6.97118c-6.28362,5.78589 -22.82605,15.04801 -22.82605,15.04801c0,0 -1.74282,-0.72463 -2.59695,-1.70077c-0.96785,-1.10612 -3.32365,-3.53723 -4.67906,-5.46008c-0.76005,-1.07824 -1.00284,-2.30071 -1.00284,-2.30071c0,0 9.74534,-5.06269 8.51301,-5.85194c-0.3255,-0.20847 -17.16985,0.07567 -17.52772,0.07838c-0.55907,0.00427 -1.62953,-0.87909 -1.62953,-0.87909z" fill="url(#color-4)" stroke="#a52a3d" stroke-width="2"/><path d="M218.89471,174.61389c0,0 0.21874,-0.60844 1.2571,-0.57849c0.39279,0.01133 10.08799,-0.00494 14.89938,-0.20735c1.48312,-0.0624 2.61618,-0.88631 2.72437,-0.9574c0.44027,-0.28932 -8.85411,-7.33346 -8.85411,-7.33346c0,0 0.07468,-0.45434 1.53142,-2.03734c1.91784,-2.08407 5.06348,-4.13286 6.10638,-5.03289c0.95972,-0.82826 2.1925,-0.35391 2.1925,-0.35391c0,0 19.26153,15.08984 20.84892,16.79984c1.22304,1.31749 1.49678,6.12541 1.50459,6.28146c0.00941,0.18823 -0.90597,5.30976 -2.3007,6.594c-5.94364,5.47284 -21.59104,14.23384 -21.59104,14.23384c0,0 -1.64853,-0.68543 -2.45644,-1.60876c-0.91548,-1.04626 -3.14383,-3.34585 -4.4259,-5.16465c-0.71893,-1.0199 -0.44471,-1.79833 -0.44471,-1.79833c0,0 9.47,-4.15893 8.30434,-4.90549c-0.08486,-0.05436 -0.02875,-1.28357 -1.91738,-1.39338c-4.96299,-0.28856 -14.79471,-0.17191 -15.03991,-0.17004c-0.52882,0.00403 -1.91926,-0.20169 -1.91926,-0.20169z" fill="none" stroke="#ffb7c2" stroke-width="1.5"/></g></g></svg>