<svg version="1.1" xmlns="http://www.w3.org/2000/svg" xmlns:xlink="http://www.w3.org/1999/xlink" width="531.53153" height="522.83417" viewBox="0,0,531.53153,522.83417"><defs><radialGradient cx="196.50001" cy="273.74939" r="42" gradientUnits="userSpaceOnUse" id="color-1"><stop offset="0" stop-color="#ff0000"/><stop offset="1" stop-color="#ff0000" stop-opacity="0"/></radialGradient><radialGradient cx="312.50001" cy="245.74939" r="42" gradientUnits="userSpaceOnUse" id="color-2"><stop offset="0" stop-color="#ff0000"/><stop offset="1" stop-color="#ff0000" stop-opacity="0"/></radialGradient><radialGradient cx="239.24927" cy="191.0572" r="249.24925" gradientUnits="userSpaceOnUse" id="color-3"><stop offset="0" stop-color="#000000" stop-opacity="0"/><stop offset="1" stop-color="#000000"/></radialGradient></defs><g transform="translate(25.76576,82.52773)"><g data-paper-data="{&quot;isPaintingLayer&quot;:true}" fill-rule="nonzero" stroke-miterlimit="10" stroke-dasharray="" stroke-dashoffset="0" style="mix-blend-mode: normal"><path d="M-25.76575,387.20721v-414.41441h531.53153v414.41441z" fill="#000000" stroke="none" stroke-width="NaN" stroke-linecap="butt" stroke-linejoin="miter"/><g stroke="#000000" stroke-width="0.90024" stroke-linecap="round" stroke-linejoin="miter"><path d="M369.92179,214.54617c0,0 29.63312,-41.25016 31.30058,-43.22293c1.66717,-1.97236 13.82274,-20.54879 51.55404,-29.29113c0,0 -17.33156,120.13073 -72.68463,151.27564c-0.00022,-0.00346 3.38026,-34.2645 -10.17,-78.76158zM370.20156,215.48437c-1.04814,-3.68453 -3.93001,-10.11915 -3.93001,-10.11915M377.90735,302.57847c0,0 1.84606,-5.83118 2.18425,-9.27414" fill="#793e3e"/><path d="M401.68121,273.07935c0,0 -5.99443,-4.36608 -7.59788,-20.02064c-1.00899,-9.7095 1.85272,-27.75119 1.85272,-27.75119l-0.28337,0.5893c2.30401,-3.31602 4.7127,-7.17043 6.85232,-11.36343c3.62651,-7.09335 7.73394,-17.63631 11.45677,-28.00612l0.58643,-1.43372c0,0 10.34837,-19.03431 33.933,-23.03231l0.28282,0.14294c-3.91438,18.35317 -10.47696,45.32999 -18.41973,64.00487c-8.90905,20.94854 -19.74307,36.47333 -29.06,47.27001l0.39684,-0.39964v0v0zM386.70146,236.72335c0,0 7.79052,-9.44548 9.23462,-11.41582" fill="#78797c"/></g><g stroke="#000000" stroke-width="0.90024" stroke-linecap="round" stroke-linejoin="round"><path d="M401.47937,277.04041l-1.52817,6.07916c-8.65551,30.77397 -22.49036,49.11622 -22.49036,49.11622c0,0 0.21082,-5.39873 -0.59379,-13.99114l-0.47451,-0.14312c-1.06705,4.63006 -2.91572,10.63494 -6.13884,18.11976c-7.06682,16.43625 -29.82407,31.41641 -29.82407,31.41641c0,0 1.13582,-5.55841 1.51581,-14.54766l-0.41244,-1.34167c-2.42451,2.32178 -4.95472,4.47715 -7.51661,6.58274c-0.75358,0.62323 -1.50768,1.23225 -2.27586,1.82494c-2.33657,1.82273 -4.72223,3.57221 -7.16494,5.22168c-0.96558,0.64493 -1.97203,1.25153 -2.95215,1.87321c-1.78759,1.13773 -3.60433,2.22163 -5.45112,3.2768c-1.3572,0.76657 -2.72403,1.53075 -4.11942,2.25143c-1.44392,0.75579 -2.93309,1.44848 -4.41126,2.16505c-2.7198,1.28365 -5.48526,2.49809 -8.31934,3.63762c-0.92467,0.37135 -1.84966,0.74269 -2.7918,1.09446c-2.02384,0.76245 -4.06478,1.51187 -6.1476,2.19525l0.00677,0.00648c-10.45495,3.44991 -21.61371,6.00926 -33.62395,7.67816c-12.99388,1.80194 -24.82929,2.50405 -35.92509,2.4556v0c-8.78024,-0.04327 -17.02978,-0.60023 -24.86858,-1.58903c-0.37903,-0.04581 -0.76175,-0.09489 -1.14395,-0.14047c-2.42443,-0.32366 -4.81262,-0.6807 -7.15851,-1.08243c-0.81911,-0.14665 -1.60429,-0.31277 -2.42027,-0.4662c-3.11915,-0.57558 -6.15683,-1.23372 -9.15655,-1.95007c-1.89628,-0.45461 -3.78108,-0.92433 -5.62651,-1.43464c-1.09579,-0.29312 -2.1958,-0.60365 -3.27058,-0.91911c-2.93585,-0.8736 -5.84734,-1.76589 -8.67832,-2.75111l-0.4496,0.53526c1.53082,8.04439 4.36644,12.22945 6.54672,14.16329c4.44477,3.94881 12.56897,4.38282 12.56897,4.38282c0,0 -24.42166,5.51208 -39.09026,-14.24004c-1.55856,-2.09967 -3.13456,-4.27825 -4.64658,-6.61063l-0.67142,-1.34748c-2.97926,-0.85277 -6.01765,-2.05217 -9.04264,-3.65893c-18.44967,-9.87787 -21.23618,-18.9119 -21.23618,-18.9119l0.57444,3.34314c2.2411,8.66037 4.24543,14.08456 4.24543,14.08456c0,0 -22.16085,-13.13601 -32.96076,-34.42039c-8.70871,-17.18188 -9.96234,-27.87676 -10.12184,-29.6776l-1.10326,-6.39808c-1.98175,-25.22168 -2.24643,-53.65154 -0.73644,-81.74651l0.1521,-0.75693c1.54458,-21.7452 -3.36201,-57.23758 20.70232,-95.62934c45.09492,-71.92372 95.518,-73.13298 122.54427,-125.83902c19.87906,-38.7741 11.62771,-81.02855 11.62771,-81.02855c0,0 14.82327,19.93197 20.97426,31.81895c5.96073,11.58786 12.4853,26.60676 12.4853,26.60676l0.17307,-0.14419c0.09673,-0.45843 0.18021,-0.92588 0.24776,-1.39222c1.0459,-7.26318 -0.1762,-17.80452 -0.1762,-17.80452c0,0 15.41684,40.32358 37.92387,65.87524c22.49352,25.53916 53.11665,31.11195 96.7678,120.95572c5.4314,11.16409 10.41934,20.53072 13.4224,31.09425l1.43921,6.09992c4.48157,19.06278 6.38829,72.47443 0.8016,96.00789v0v0zM152.10706,203.79353c0,0 -22.98408,29.64059 -19.02099,68.32065c3.50653,34.22425 12.32018,44.24443 16.88486,46.58453c4.69239,2.39003 11.61722,0.28198 11.61722,0.28198c0,0 -19.17209,12.86397 -36.29846,-1.51305c-11.45501,-9.60961 -24.04734,-22.16177 -29.62293,-59.70233M361.07084,250.97461c0,0 3.63965,9.32745 -2.62808,29.81303c-7.04897,23.07871 -24.36096,31.29768 -24.36096,31.29768c0,0 12.64642,-35.68244 -1.6785,-67.36121c-6.25271,-13.84073 -23.54527,-23.24905 -41.38051,-29.49125c-24.16975,-8.46691 -49.33204,-11.11453 -49.33204,-11.11453M376.47782,317.71723c-1.05101,4.68448 -2.92256,10.83322 -6.2423,18.51925c-7.06365,16.43603 -29.82091,31.41615 -29.82091,31.41615c0,0 3.29729,-16.2159 0.52617,-38.02141M102.36799,285.24279c-2.1256,5.05994 -3.67088,10.43207 -4.37928,16.03978c-4.46391,34.96679 9.33786,72.14639 9.33786,72.14639c0,0 -22.15411,-13.12994 -32.9608,-34.42076c-9.5808,-18.89674 -10.13806,-29.9471 -10.13806,-29.9471M399.93682,283.14489c-8.66188,30.77445 -22.49356,49.11647 -22.49356,49.11647c0,0 1.23655,-30.67497 -13.1143,-62.35536c-0.64751,-1.43247 -1.36588,-2.81818 -2.11946,-4.15982M241.69395,204.118c0,0 4.29109,0.91572 15.99978,9.7612c11.70906,8.84547 16.43621,19.07044 16.43621,19.07044c0,0 -33.42461,-7.07363 -52.04478,-12.89554c-18.60155,-5.83015 -81.01876,-19.62773 -81.01876,-19.62773M146.28438,354.91825c9.82533,14.59255 19.59186,22.21592 19.59186,22.21592c0,0 -21.35351,8.89945 -42.13303,-2.21453c-18.44964,-9.8775 -21.23618,-18.9119 -21.23618,-18.9119M341.51202,351.77066c-22.3068,21.34534 -50.22308,33.0179 -84.74454,37.8132c-41.15711,5.71676 -71.75831,1.30182 -98.23883,-7.87816M157.67367,379.74635c1.36812,9.6839 4.5496,14.52824 6.94511,16.64799c4.4479,3.94856 12.57217,4.3826 12.57217,4.3826c0,0 -24.42803,5.51256 -39.09346,-14.23982c-1.55856,-2.09967 -3.13456,-4.27825 -4.64658,-6.61063M244.14866,205.10227c0,0 90.72966,5.5264 93.95039,58.99007" fill="#793e3e"/><path d="M357.13376,285.95241c-1.04075,38.68967 -39.23997,81.70346 -98.45112,89.72545c-52.27182,7.11354 -131.36645,-13.03318 -145.46731,-59.51797c-1.40425,-4.67278 -2.27447,-9.22016 -2.70207,-13.61865l1.19472,0.8243c4.36475,6.06128 9.05787,10.32202 13.58216,14.10899c17.12596,14.37014 36.29802,1.50613 36.29802,1.50613c0,0 -6.92443,2.11497 -11.61686,-0.27506c-4.56468,-2.34014 -13.37833,-12.36036 -16.88486,-46.58453c-3.96349,-38.68698 19.02099,-68.32065 19.02099,-68.32065l0.03201,-0.89795c18.79317,4.2476 56.24293,12.85661 69.93933,17.15208c18.62039,5.82533 52.04478,12.89554 52.04478,12.89554c0,0 -4.72716,-10.225 -16.43621,-19.07044c-5.86077,-4.4238 -9.85748,-6.8635 -12.38758,-8.19977l2.31019,0.2273c0,0 70.07108,6.21221 84.79965,38.81645c14.32194,31.68245 1.68171,67.36099 1.68171,67.36099c0,0 14.74104,-7.00449 22.54062,-26.204l0.50174,0.07178v0v0z" fill="#78797c"/></g><g stroke="#000000" stroke-width="0.90024" stroke-linecap="round" stroke-linejoin="miter"><path d="M81.11349,316.27718c-58.61247,-23.01384 -90.20783,-139.65378 -90.20783,-139.65378c38.45769,3.30999 52.7378,20.00029 54.62709,21.71544c1.88932,1.71552 36.21803,38.4057 36.21803,38.4057c-8.09906,46.04519 -0.63732,79.53264 -0.63732,79.53264v0v0zM84.26516,227.1272c0,0 -2.08524,6.78904 -2.68205,10.5909M81.11349,316.27718c0.74799,3.36547 3.27813,8.88443 3.27813,8.88443" fill="#793e3e"/><path d="M57.72377,299.63261c-10.53262,-9.38396 -23.13319,-23.23677 -34.4825,-42.73646c-10.11834,-17.3863 -19.85757,-43.2 -25.94056,-60.83992l0.26362,-0.1819c23.8658,0.61605 36.40567,18.01391 36.40567,18.01391l0.75343,1.33814c4.93466,9.75215 10.2721,19.62129 14.71853,26.13862c2.62433,3.85312 5.47478,7.33235 8.1569,10.29259l-0.35162,-0.54401c0,0 5.00166,17.48067 5.16576,27.25044c0.28867,15.74838 -5.13103,20.92882 -5.13103,20.92882l0.44173,0.33981v0zM57.24731,251.11357c1.66813,1.7483 10.52508,10.00601 10.52508,10.00601" fill="#78797c"/></g><path d="M205.56525,263.07624v0v0v0v0v0c2.4794,-0.83405 5.19744,0.22822 6.07497,2.37359c0.88666,2.14625 -0.39934,4.54529 -2.88699,5.39825c-0.14511,0.04562 -14.55333,4.99614 -23.93792,15.52718c-0.29025,0.32223 -0.613,0.60078 -0.97397,0.83254c-1.68836,1.0839 -4.03233,1.13409 -5.72806,0.00026c-0.99457,-0.6598 -1.57011,-1.62596 -1.72858,-2.64585c-1.18144,-0.07771 -2.45549,-0.34026 -3.73733,-1.00631c-1.49285,-0.76797 -1.95338,-2.47053 -1.02312,-3.79863c0.92879,-1.30635 2.87948,-1.78402 4.38274,-1.0087c1.1952,0.61936 2.70336,0.04864 2.72263,0.04305c0.44254,-0.17197 0.9023,-0.23613 1.35197,-0.22576c0.32778,-0.31575 0.65608,-0.63522 0.98938,-0.93416c-0.82544,-0.25832 -1.67387,-0.59743 -2.48459,-1.16459c-1.35017,-0.9513 -1.52401,-2.69221 -0.39655,-3.90187c1.12864,-1.22743 3.13751,-1.40904 4.48146,-0.46049c1.07496,0.75767 2.63683,0.41071 2.65089,0.40847c0.69979,-0.19746 1.39038,-0.13116 2.02097,0.0688c3.28931,-2.31906 2.01078,-15.48498 4.83853,-16.93434c4.90821,-2.51579 13.06728,7.53452 13.38344,7.42856z" fill="#231f20" stroke="none" stroke-width="0.90024" stroke-linecap="butt" stroke-linejoin="miter"/><path d="M336.24935,239.06662v0v0v0v0v0c-1.20683,2.30445 -3.25682,3.44031 -4.84647,4.06015c0.13444,0.81944 0.0815,1.68402 -0.39456,2.49136c-1.21154,2.05187 -4.03822,2.94254 -6.43075,1.93988c-4.84828,-2.04172 -4.96469,5.57147 -9.75546,4.59901c-4.16383,-0.84516 -13.24036,-10.48126 -14.6917,-9.65799c-1.12625,0.63566 -2.42517,0.82463 -3.62806,0.60649c-1.18435,-0.21479 -2.24856,-0.81823 -2.94015,-1.76096c-1.39347,-1.89367 -0.71355,-4.45486 1.52563,-5.72357c6.02773,-3.41006 16.22326,-1.44495 24.14712,0.9764c0.48121,-0.22664 1.28343,-0.72312 1.5785,-1.55794c0.49456,-1.46327 2.16898,-2.46111 3.94708,-1.96295c1.68292,0.38444 2.64338,1.88248 2.14926,3.35712c-0.32028,0.92643 -0.8045,1.67037 -1.3342,2.33223c0.38492,0.14618 0.75351,0.28091 1.09546,0.41954c0.4404,-0.37293 0.94689,-0.67981 1.58932,-0.79523c0.09842,-0.02741 1.6317,-0.37182 2.21534,-1.47666c0.74177,-1.39575 2.6088,-2.0784 4.21946,-1.4554c1.59112,0.59964 2.28812,2.20581 1.55411,3.6087z" fill="#231f20" stroke="none" stroke-width="0.90024" stroke-linecap="butt" stroke-linejoin="miter"/><path d="M241.80083,320.85389c1.11969,12.34997 19.63093,75.17764 12.79642,80.0201c-2.26185,1.60259 -20.67018,-51.27943 -25.65557,-50.55082c-20.04944,2.93022 -39.0035,-24.4834 -40.49378,-40.92061c-1.49024,-16.43713 15.04767,-15.67332 35.09711,-18.60354c20.04944,-2.93022 16.76558,13.61777 18.25578,30.05487z" fill="#231f20" stroke="#000000" stroke-width="0.9" stroke-linecap="butt" stroke-linejoin="miter"/><path d="M268.12871,314.09091c0.49429,2.39004 0.89267,5.81713 1.19805,9.9547c0.26247,3.55616 0.45624,7.63716 0.58317,12.03565c0.79272,27.47064 -1.0219,67.32523 -4.99238,69.05225c-5.34589,2.32528 -12.57566,-65.34832 -16.14806,-82.62204c-3.57243,-17.27368 -2.13473,-33.16176 3.21116,-35.48704c5.34589,-2.32528 12.57566,9.79276 16.14806,27.06648z" fill="#231f20" stroke="#000000" stroke-width="0.9" stroke-linecap="butt" stroke-linejoin="miter"/><path d="M319.97819,262.7953c2.38161,11.51579 -1.33262,36.67525 -17.15646,43.55814c-4.23785,1.84333 -10.7558,88.84748 -15.93164,98.82877c-1.59388,3.07367 -4.18999,-58.48841 -5.11403,-59.04714c-2.08201,-1.25894 -3.56477,-6.22214 -4.65696,-12.84271c-2.72644,-16.52705 -3.01898,-43.38223 -4.12376,-48.72422c-2.38161,-11.51579 5.37787,-13.03417 21.20174,-19.91706c15.82388,-6.88286 23.3995,-13.37156 25.7811,-1.85577z" fill="#231f20" stroke="#000000" stroke-width="0.9" stroke-linecap="butt" stroke-linejoin="miter"/><path d="M216.50001,273.74939c0,23.19596 -8.95431,42 -20,42c-11.04569,0 -20,-18.80404 -20,-42c0,-23.19596 8.95431,-42 20,-42c11.04569,0 20,18.80404 20,42z" fill="url(#color-1)" stroke="none" stroke-width="0" stroke-linecap="butt" stroke-linejoin="miter"/><path d="M332.50001,245.74939c0,23.19596 -8.9543,42 -20,42c-11.0457,0 -20,-18.80404 -20,-42c0,-23.19596 8.9543,-42 20,-42c11.0457,0 20,18.80404 20,42z" fill="url(#color-2)" stroke="none" stroke-width="0" stroke-linecap="butt" stroke-linejoin="miter"/><path d="M-9.99999,191.0572c0,-137.65656 111.59269,-249.24925 249.24925,-249.24925c137.65656,0 249.24925,111.59269 249.24925,249.24925c0,137.65656 -111.59269,249.24925 -249.24925,249.24925c-137.65656,0 -249.24925,-111.59269 -249.24925,-249.24925z" fill="url(#color-3)" stroke="none" stroke-width="0" stroke-linecap="butt" stroke-linejoin="miter"/></g></g></svg>