<svg version="1.1" xmlns="http://www.w3.org/2000/svg" xmlns:xlink="http://www.w3.org/1999/xlink" width="98.20995" height="105.03939" viewBox="0,0,98.20995,105.03939"><g transform="translate(-181.11902,-133.15401)"><g data-paper-data="{&quot;isPaintingLayer&quot;:true}" fill-rule="nonzero" stroke="none" stroke-width="0.5" stroke-linecap="butt" stroke-linejoin="miter" stroke-miterlimit="10" stroke-dasharray="" stroke-dashoffset="0" style="mix-blend-mode: normal"><path d="M226.9279,211.11018c-1.22002,-0.70166 -2.42581,-1.42884 -3.61063,-2.15184c-0.04766,-0.05039 -0.09865,-0.10075 -0.15266,-0.15097c-0.62338,-0.57954 -1.23343,-0.72638 -1.75579,-0.67646c-0.7088,-0.09532 -1.70864,0.04237 -2.33672,1.29373c-0.08809,0.17552 -0.15439,0.34375 -0.20172,0.50474c-4.56347,4.72076 -8.64464,7.35398 -15.6632,6.37128c-1.41442,-0.19804 -2.91864,-0.39718 -4.13051,-1.15295c-1.09719,-0.68425 -4.97949,-2.96544 -4.80233,-4.68058c0.08928,-0.86433 0.9744,-1.49786 1.11888,-2.35469c0.19322,-1.14585 -0.01783,-2.32942 -0.13692,-3.48532c-0.26201,-2.54286 -0.73067,-3.5741 0.13326,-5.95565c2.84665,-2.4547 5.99019,-3.75399 9.83791,-4.07852c2.46734,-0.20811 6.55503,1.511 8.60563,-0.78439c1.21593,-1.36108 2.23906,-3.34722 1.73047,-5.10002c-0.84172,-2.90087 -4.81575,-2.10702 -6.72889,-2.52126c-3.57149,-0.7733 -8.64814,-2.1091 -11.85762,-3.81939c-1.35727,-0.72326 -2.37319,-1.96861 -3.63526,-2.8475l-0.15057,-0.15957c-0.06265,-0.76386 -0.50113,-1.35191 -0.50113,-1.35191c-2.00045,-2.67581 -4.25226,-5.22482 -5.64964,-8.26216c-0.21129,-0.45925 -0.66947,-0.86469 -0.65345,-1.36997c0.00929,-0.29298 0.43429,-0.42552 0.71344,-0.51496c1.56553,-0.50157 4.71413,-0.90862 6.27475,-1.7901c1.11447,-0.62948 2.22106,-1.36344 3.04938,-2.33924c1.44437,-1.70154 1.25512,-4.60663 3.59212,-5.59106c5.20417,-2.19216 8.63584,1.3846 12.5759,4.12128c3.53147,3.01541 7.62305,5.10027 12.05175,6.45492c3.24067,0.99125 5.59735,3.13055 7.16282,-2.43666c0.71195,-2.5319 -1.70369,-4.53805 -2.80003,-6.31669c-1.60218,-2.59928 -3.3193,-5.98199 -4.04284,-8.97712c-0.21117,-0.87418 -0.43669,-2.20015 0.337,-2.95248c1.08561,-1.05565 2.56664,-1.63271 3.93288,-2.28563c0.92966,-0.44428 1.92998,-0.72291 2.92555,-1.00283c0.21873,1.07802 0.71267,2.12472 1.43002,2.91885c0.72366,0.80113 2.09277,0.57389 3.09244,0.98149c0.821,0.33475 2.51617,1.4109 3.10786,2.1423c1.59715,1.97427 2.14952,3.81585 2.69413,6.15579c0.33086,1.42154 0.0722,3.3388 1.24664,4.20537c0.93341,0.68872 8.19362,0.30598 8.92068,-1.15808c1.65162,-3.32582 -2.81439,-5.06893 -2.44102,-7.91561c0.11792,-0.89905 1.81306,-0.5636 2.69411,-0.77792c1.52391,-0.37069 3.29975,-0.27309 4.40508,-1.38572c3.42648,-3.44912 0.35296,-6.06724 -0.70796,-9.23081c-0.58631,-5.05648 4.47083,-1.75672 6.51972,-0.19395c0.72181,0.55057 2.32143,1.15631 2.53249,2.3334c0.72979,4.06997 -3.27598,9.73133 -5.29278,12.75988c-1.59728,2.39858 -3.03909,3.70933 -1.56376,7.08534c0.19719,0.45124 4.16601,3.2537 4.84158,3.79083c2.46143,1.95701 4.55112,4.04479 6.43946,6.55539c0.03852,0.07677 0.07583,0.15293 0.11196,0.22804c-0.25274,0.1206 -0.40657,0.23586 -0.40657,0.23586l-1.05747,0.80614c-0.95124,0.58121 -2.51822,1.6697 -3.75328,1.80592c-6.91439,0.76263 -10.21814,-5.76084 -14.10151,-9.93112c-0.82051,-0.88112 -1.4038,-2.09788 -2.49795,-2.6003c-6.39096,-2.93468 -8.0979,3.13329 -9.17973,7.92644c-0.13301,1.91487 0.54151,7.12852 -0.76251,8.63866c-1.01559,1.17613 -2.6011,1.74264 -3.79873,2.73278c-2.41814,1.99918 -4.26627,4.23161 -5.91786,6.89041c-4.06348,6.54156 -4.32842,14.40126 -1.78687,21.36458z" data-paper-data="{&quot;noHover&quot;:false,&quot;origItem&quot;:[&quot;Path&quot;,{&quot;applyMatrix&quot;:true,&quot;segments&quot;:[[[677.06919,248.25167],[-15.16754,5.93502],[6.16481,-2.41227]],[[695.7636,244.05767],[-6.62797,0.32417],[3.28264,-0.16055]],[[705.62148,244.24711],[-3.20981,0.70615],[4.12138,-0.90669]],[[717.80142,230.62934],[-2.6503,3.07522],[7.90264,-6.74931]],[[743.57858,228.8874],[-7.10945,-13.06471],[1.21716,2.23672]],[[744.51345,236.46932],[-0.27403,-2.53166],[1.29696,11.98214]],[[755.80528,271.18339],[-12.67838,-7.46456],[2.26464,1.33334]],[[764.29422,272.75228],[-2.3474,-0.22011],[0,0]],[767.10525,272.72747],[[768.09233,272.84325],[-0.58086,-0.11578],[0.0339,-0.17299]],[[768.19113,272.31561],[-0.03196,0.17883],[-0.01931,-6.64423]],[[765.57557,253.07201],[1.69115,6.43223],[-0.46416,-1.76542]],[[762.16981,240.53249],[-0.23742,1.01411],[1.77625,-7.58713]],[[773.78815,230.52676],[-5.74325,2.04025],[7.25171,-2.57612]],[[798.91222,215.63251],[-3.918,7.81851],[1.13313,-2.26121]],[[797.57789,208.4797],[0.52548,1.84674],[-1.49159,-5.24195]],[[786.48531,200.51898],[5.41036,-9.30789],[-2.20923,6.70245]],[[775.9968,217.06925],[10.17223,-1.50332],[-3.28141,0.48495]],[[766.58045,213.85091],[3.05086,1.30195],[-1.76387,-0.75273]],[[761.23038,211.73498],[1.3383,-1.3736],[-4.23751,4.34929]],[[755.34093,228.26101],[7.0096,-3.54214],[-3.08568,1.55928]],[[738.56413,218.91543],[0.70894,2.34872],[-0.89201,-2.95524]],[[741.7803,210.23107],[-1.23979,2.82702],[2.04076,-4.65342]],[[745.01992,196.41385],[0.20526,5.36694],[-0.07604,-1.98827]],[[742.47536,188.8613],[0.96681,1.60677],[-1.17721,-1.95645]],[[738.48722,183.29206],[0.21129,2.27352],[-0.20945,-2.25364]],[[739.76597,176.54179],[-0.99468,2.10311],[-2.04093,-0.78661]],[[733.54742,174.54219],[2.13744,0.42474],[-3.1412,-0.6242]],[[724.00277,173.44187],[3.17583,-0.41339],[-2.26334,0.29461]],[[719.79466,177.84428],[0.74934,-1.74824],[-2.56739,5.98985]],[[715.29141,198.1832],[0.57774,-6.43203],[-0.39534,4.40132]],[[712.05872,212.46114],[4.41241,-3.38727],[-9.70214,7.44803]],[[696.73907,207.65976],[4.23418,5.78311],[-5.78643,-7.90321]],[[684.53571,181.45986],[2.16338,9.58021],[-3.20849,-9.62548]],[[668.46502,158.54786],[11.59172,2.87718],[-5.20543,-1.29204]],[[655.31727,163.45975],[4.60151,-1.05317],[-2.63888,0.60397]],[[647.19648,163.55504],[2.68504,0.34506],[-3.75993,-0.4832]],[[634.30604,158.63584],[3.2871,1.13296],[-0.58613,-0.20202]],[[632.44641,158.6036],[0.38678,-0.48453],[-0.66703,0.83561]],[[631.82052,161.74951],[0.22369,-1.04553],[-1.47941,6.91472]],[[630.94038,182.88232],[0,-7.06605],[0,0]],[[630.07915,185.80349],[0.86123,-1.37329],[0,0]],[[630.13237,186.26401],[0,0],[1.02488,3.08708]],[[632.68864,195.68152],[-1.38318,-2.94402],[3.27076,6.96165]],[[647.94455,217.13799],[-5.07061,-5.83288],[2.71616,3.12449]],[[656.14733,229.89998],[2.24785,-5.97987],[-1.35823,3.61325]],[[646.56523,236.40281],[3.78339,-0.76573],[-6.38047,1.29136]],[[630.98991,226.81209],[4.44309,2.77212],[-6.92882,-4.323]],[[609.35946,221.25087],[7.9307,-0.55312],[-4.47944,2.94011]],[[601.59081,231.16025],[2.77647,-4.63927],[-1.2621,2.10887]],[[597.40814,237.23209],[1.77841,-1.69631],[-1.32984,1.26844]],[[592.53054,239.80224],[1.24581,-1.35106],[-2.47214,2.681]],[[594.73454,253.79962],[-0.99204,-2.54857],[1.09572,2.81495]],[[600.26836,260.97581],[-2.14515,-2.1267],[10.64454,10.55297]],[[634.85491,269.99505],[-13.70865,2.21751],[0.28405,-0.21277]],[[635.83567,269.39535],[-0.3715,0.18575],[2.64868,-1.32434]],[[641.42863,270.15882],[-1.07997,-1.05908],[0.94807,0.57698]],[[643.54251,273.52449],[-0.32203,-1.77116],[0.0279,0.15345]],[[643.60957,273.9732],[-0.01691,-0.14572],[1.0914,2.72518]],[[646.99286,282.18398],[-1.17806,-2.73361],[4.51314,-15.01409]]],&quot;closed&quot;:true}]}" fill="#225f8d"/><path d="M270.94307,216.64013c0.13274,2.4892 0.68804,4.99971 0.35323,7.46985c-1.12271,3.28587 -3.32328,8.84587 -7.96689,8.80429c-2.84818,-0.0255 -5.06034,-2.80515 -7.85188,-3.37089c-0.3227,-0.0654 0.2752,0.63905 0.21828,0.96335c-0.1722,0.98102 -0.37006,2.00234 -0.88815,2.85301c-1.31815,2.1643 -4.47792,5.66656 -7.68545,4.65405c-2.97046,-0.93768 -3.75344,-6.76658 -4.60092,-9.18113c-1.13354,-3.22956 -1.89671,-5.13684 -2.15265,-8.15358c-1.74892,-0.03398 -3.46045,-0.20936 -5.0762,-0.61526c-4.9619,-1.2465 -9.61711,-3.90695 -14.00933,-6.57028c-3.1367,3.30608 -6.29913,6.18702 -11.03437,7.27676c-5.77992,1.33016 -12.56252,0.43604 -17.09791,-3.61922c-1.53768,-1.37489 -4.07812,-4.39255 -4.1931,-6.67597c-0.05836,-1.15895 0.97016,-2.13326 1.18354,-3.27389c0.18764,-1.00308 -0.66431,-4.50661 -0.69846,-5.15935c-0.15878,-3.03518 0.32921,-3.33405 1.45891,-6.15755c3.86075,-3.66692 7.89459,-5.61455 13.2977,-6.06284c0.16862,-0.01399 0.43942,-0.00902 0.77061,0.00779c-0.09092,-0.03574 -0.1661,-0.06335 -0.22285,-0.0806c-3.36547,-1.02225 -7.48148,-1.66905 -10.60422,-3.32883c-1.50927,-0.8022 -2.66892,-2.14052 -4.07403,-3.1137l-1.62719,-1.57817c0,0 -0.77228,-0.77466 -0.73926,-1.79542c-2.09496,-2.65373 -4.7419,-5.48678 -5.69096,-8.68355l-0.00002,0.00003c-0.39223,-1.32118 -1.1599,-2.7269 -0.7981,-4.05672c1.29259,-4.75114 6.04443,-3.74356 9.39769,-5.39141c2.51676,-1.23678 2.1631,-3.89506 3.96688,-5.86923c6.37006,-6.97183 14.49461,-1.51795 20.3236,2.53075c1.16941,1.01315 2.47455,1.87001 3.81009,2.65125c0.77775,0.45495 1.50962,0.98853 2.30458,1.41269c1.60261,0.8551 3.65613,0.98273 5.09061,2.05455c-0.09837,-0.1091 -0.18413,-0.20998 -0.23928,-0.28528c-1.15101,-1.57131 -2.18422,-3.23877 -3.05553,-4.98078c-1.51758,-3.03412 -4.06564,-7.28069 -3.32697,-10.83981c1.13907,-5.48835 7.48222,-7.1888 12.07771,-8.7128l2.29595,-0.76141c0.95159,-0.34047 2.05255,-0.04054 2.68931,0.8112c0.51495,0.6888 0.59788,1.56666 0.29566,2.30908l-0.76585,1.97321c0.01667,0.00723 0.03378,0.01416 0.05137,0.02079c0.50087,0.18892 1.10179,-0.11402 1.60444,0.07017c2.99882,1.0989 5.64663,3.78123 7.2769,6.70056c0.02458,-0.10835 0.0551,-0.21568 0.09223,-0.32183c1.70632,-4.87827 4.8706,-3.02192 8.34244,-4.17744c0.74111,-0.24666 -0.7924,-1.34866 -1.12662,-2.05464c-0.4349,-0.91865 -0.63584,-1.93079 -0.95376,-2.89618c-0.03451,-1.30041 -0.49071,-2.65932 -0.10354,-3.90125c2.28855,-7.34109 10.1778,-3.90403 14.09724,-0.84318c2.13991,1.67114 3.45872,1.84099 4.23724,4.97967c1.08897,4.39026 -2.3824,10.72142 -4.43145,14.23884c-0.01841,0.03159 -3.284,3.96136 -2.84221,4.49496c0.90525,1.09337 2.48687,1.39442 3.59834,2.27734c2.90428,2.30707 5.30206,4.78918 7.51424,7.76215c1.49935,3.0263 1.73159,5.14258 2.37737,8.33006c0.69779,3.44422 2.98854,6.86664 3.4009,10.33383c0.42577,3.58004 -0.33457,9.30897 -2.04576,12.52709c-1.2319,2.31676 -3.31492,4.15756 -5.36457,5.83272c-0.31524,3.02634 -1.03089,5.95886 -0.85954,9.17214zM240.01495,214.07378c0.79657,-2.46149 2.94941,-3.20812 4.97446,-3.96214c0.76833,-1.09122 1.78112,-1.95582 3.19202,-2.30625l0.00001,-0.00002c3.28095,-0.81489 6.55502,-0.03756 9.80165,-1.49046c2.41304,-1.07985 3.68956,-4.6396 6.51426,-5.82386c0.91557,-0.38386 4.7073,0.22582 6.7565,1.26883c0.69001,-0.72583 1.29037,-1.5027 1.73857,-2.34417c1.28268,-2.40817 1.84041,-7.04011 1.53411,-9.68091c-0.15297,-1.31886 -0.60785,-2.65293 -1.14282,-3.99028c-0.01953,2.82982 -0.70935,5.53062 -3.24876,6.67472c-0.5865,0.26423 -6.10645,1.05076 -6.69633,0.9367c-0.63756,-0.12329 -0.92991,-1.15607 -1.42041,-1.40642c-1.30464,-0.66588 -3.61167,0.18363 -4.56886,-1.26411c-1.27833,-1.93347 -1.3829,-5.47336 -1.23492,-7.69c0.03776,-0.56566 0.37299,-2.17166 0.93917,-3.67449c-1.879,-0.76823 -3.63407,-1.94773 -5.14018,-3.54733c-1.87312,-1.98939 -3.44249,-4.4724 -5.23426,-6.55857c-0.63146,-0.73522 -1.19568,-2.62834 -2.0092,-2.10159c-0.75992,0.49205 -1.36193,4.04772 -1.56503,4.966c-0.15925,2.50361 0.1584,5.6085 -0.51233,8.22632c0.93318,0.97992 1.69557,2.23472 2.17208,2.84893c2.65572,3.42326 8.26704,9.1463 7.31723,14.05811c-0.43596,2.25453 -5.42949,1.89718 -5.88441,2.61631c-0.69541,1.09929 0.1565,2.28484 -0.93912,3.5591c-1.09526,1.27385 -7.11368,2.07836 -8.53707,1.2725c-0.86688,-0.49079 -1.02992,-1.75266 -1.49399,-2.02058c-1.8098,-1.04484 -4.13503,0.07234 -5.87245,-0.70858c-0.01698,4.07006 1.15663,8.17845 3.44092,11.82105c0,0 0.15464,0.2473 0.26842,0.62248c1.09179,0.4325 2.20095,0.81012 3.32925,1.11572c1.06676,0.28892 2.20183,0.4351 3.37231,0.48778c-0.06264,-0.64933 -0.0502,-1.28868 0.14919,-1.90481zM260.92827,183.61111c0.18562,5.836 1.68152,3.58514 4.83198,2.34806c0.79547,-0.31236 1.89455,1.30476 2.47313,0.6758c1.3626,-1.48129 0.2926,-4.53254 -0.37682,-7.14082c-1.87565,0.67989 -3.84985,0.98141 -5.80547,0.89629c-0.07551,0.07423 -0.15689,0.14425 -0.24406,0.20941c-0.06453,0.04824 -0.13072,0.0927 -0.1983,0.1334c-0.36286,0.82555 -0.71902,1.66523 -0.68045,2.87788zM231.65002,196.88705c0.00011,0.11532 0.12021,0.72433 0.29859,0.81013c2.0237,0.97345 5.31483,-0.63023 7.26011,0.34614c1.24886,0.62683 0.90584,1.84082 2.26443,1.66073c0.38959,-0.05165 -0.28309,-1.80404 -0.44937,-2.15635c-0.62021,-1.31405 -1.44069,-2.88785 -0.35617,-4.21846c1.06002,-1.30057 2.86176,-1.23094 3.99205,-0.11463c0.35309,0.34872 2.3961,2.41611 2.47382,1.73064c0.08154,-0.71911 -1.63383,-2.77761 -1.99123,-3.29323c-1.76098,-2.54056 -3.17617,-4.94341 -5.15422,-7.23718c-1.64976,1.30969 -3.76478,2.3653 -5.11978,3.82481c-0.63739,0.68655 -1.21706,1.40214 -1.73976,2.14196c0.28387,0.82951 0.08502,1.76681 -0.53844,2.40946c-0.36619,1.20557 -0.94188,2.25752 -0.94002,4.09598zM228.08963,189.60851c1.6516,-2.6588 3.47381,-4.88155 5.89195,-6.88074c1.19764,-0.99014 2.77108,-1.54297 3.78667,-2.7191c1.30401,-1.51015 0.62406,-6.69022 0.75707,-8.60508c1.08183,-4.79316 2.87731,-10.89203 9.26828,-7.95736c1.09415,0.50242 1.68001,1.72537 2.50052,2.60649c3.88338,4.17028 7.18947,10.71153 14.10387,9.94891c1.23506,-0.13622 2.70756,-1.22795 3.6588,-1.80917l1.05747,-0.80522c0,0 0.15383,-0.11501 0.40657,-0.2356c-0.03613,-0.07511 -0.07344,-0.15101 -0.11197,-0.22778c-1.88834,-2.51061 -3.97706,-4.58977 -6.43848,-6.54678c-0.67557,-0.53713 -4.64255,-3.3331 -4.83974,-3.78433c-1.47534,-3.376 -0.03028,-4.6797 1.567,-7.07826c2.0168,-3.02855 6.02723,-8.68309 5.29745,-12.75305c-0.21107,-1.17709 -1.80849,-1.78034 -2.5303,-2.3309c-2.04887,-1.56277 -7.04065,-4.93069 -6.45434,0.12578c1.06092,3.16357 4.14014,5.7876 0.71366,9.23672c-1.10533,1.11263 -2.95306,1.07641 -4.47697,1.44711c-0.88105,0.21432 -2.50711,-0.18567 -2.62503,0.71338c-0.37337,2.84668 4.10002,4.59969 2.4484,7.92551c-0.72706,1.46406 -8.06553,1.89932 -8.99894,1.2106c-1.17444,-0.86658 -0.90983,-2.77762 -1.24069,-4.19916c-0.54461,-2.33994 -1.08781,-4.17528 -2.68496,-6.14955c-0.59169,-0.7314 -2.28076,-1.8049 -3.10177,-2.13966c-0.99968,-0.40761 -2.36328,-0.17878 -3.08695,-0.97991c-0.71734,-0.79412 -1.20808,-1.84023 -1.42681,-2.91825c-0.99557,0.27993 -1.99131,0.55902 -2.92097,1.0033c-1.36624,0.65292 -2.84032,1.22984 -3.92593,2.28549c-0.77369,0.75234 -0.55837,1.9843 -0.34719,2.85848c0.72354,2.99512 2.45061,6.37767 4.05278,8.97695c1.09634,1.77864 3.52998,3.79015 2.81802,6.32205c-1.56546,5.56721 -3.91997,3.51015 -7.16064,2.5189c-4.42869,-1.35465 -8.50716,-3.45124 -12.03863,-6.46666c-3.94006,-2.73668 -7.36813,-6.31886 -12.5723,-4.1267c-2.33701,0.98442 -2.14391,3.88074 -3.58826,5.58229c-0.82832,0.97581 -1.93378,1.70566 -3.04825,2.33514c-1.56063,0.88149 -4.70856,1.28498 -6.27408,1.78655c-0.27915,0.08943 -0.70405,0.22128 -0.71334,0.51427c-0.01602,0.50528 0.44232,0.90925 0.65362,1.36851c1.39738,3.03733 3.64911,5.57605 5.64957,8.25186c0,0 0.43822,0.58616 0.50087,1.35003l0.15053,0.15933c1.26208,0.87888 2.27692,2.1193 3.63419,2.84258c3.20948,1.7103 8.28018,3.03288 11.85168,3.80619c1.91314,0.41423 5.87757,-0.39036 6.71929,2.51051c0.50859,1.75281 -0.57167,3.81422 -1.7876,5.1753c-2.0506,2.29538 -6.14601,0.56951 -8.61335,0.77763c-3.84772,0.32455 -6.91891,1.5631 -9.76556,4.01779c-0.86393,2.38154 -0.39846,3.40904 -0.13645,5.9519c0.1191,1.15591 0.32829,2.33762 0.13507,3.48346c-0.14449,0.85683 -1.03017,1.48984 -1.11944,2.35416c-0.17715,1.71513 3.7002,3.99238 4.79739,4.67664c1.21187,0.75578 2.71279,0.95281 4.12721,1.15086c7.01856,0.98271 11.08737,-1.6555 15.65084,-6.37626c0.04733,-0.16099 0.11353,-0.32924 0.20162,-0.50476c0.62808,-1.25137 1.62531,-1.3896 2.33412,-1.2943c0.52237,-0.04991 1.12997,0.09654 1.75334,0.67607c0.05401,0.05021 0.10477,0.10054 0.15243,0.15094c1.18482,0.723 2.38572,1.44981 3.60574,2.15147c-2.54154,-6.96332 -2.28051,-14.82296 1.78297,-21.3645zM246.60105,157.08538c-0.09968,-0.12555 -0.19595,-0.26517 -0.2877,-0.41393c-0.24096,0.30817 -0.57928,0.60324 -0.31611,0.70393c0.22214,0.08499 0.41285,-0.08467 0.60381,-0.28999z" fill="#000000"/><path d="M242.5227,216.00701c-2.10452,0.10386 -4.18647,0.03109 -6.04951,-0.4735c-1.12831,-0.3056 -2.24294,-0.68628 -3.33474,-1.11878c-0.11378,-0.37518 -0.26928,-0.62305 -0.26928,-0.62305c-2.28428,-3.6426 -3.47302,-7.76783 -3.45604,-11.83788c1.73742,0.78092 4.14038,-0.38915 5.95018,0.65569c0.46406,0.26791 0.62198,1.52461 1.48885,2.01541c1.42338,0.80586 7.4198,-0.00929 8.51507,-1.28314c1.09563,-1.27426 0.24216,-2.46008 0.93757,-3.55937c0.45492,-0.71913 5.40838,-0.34919 5.84434,-2.60372c0.9498,-4.91181 -4.6158,-10.55527 -7.27153,-13.97853c-0.4765,-0.61422 -1.2694,-1.95839 -2.20257,-2.93831c0.67073,-2.61782 0.36082,-5.72506 0.52007,-8.22866c0.2031,-0.91828 0.80983,-4.4747 1.56976,-4.96675c0.81352,-0.52676 1.38135,1.36613 2.01282,2.10135c1.79176,2.08617 3.37508,4.57084 5.24819,6.56022c1.5061,1.59958 3.27692,2.78677 5.15592,3.555c-0.56618,1.50282 -0.8973,3.11226 -0.93507,3.67792c-0.14798,2.21665 -0.02907,5.78343 1.24925,7.7169c0.95718,1.44774 3.26482,0.60466 4.56945,1.27055c0.4905,0.25035 0.78276,1.2874 1.42032,1.41069c0.58988,0.11406 6.01538,-0.67579 6.60187,-0.94002c2.53941,-1.14409 3.23069,-3.83306 3.25021,-6.66288c0.53497,1.33735 1.08275,2.65531 1.23572,3.97418c0.3063,2.6408 -0.25295,7.28991 -1.53564,9.69808c-0.44819,0.84146 -1.05016,1.62312 -1.74018,2.34895c-2.04919,-1.043 -5.84225,-1.64966 -6.75782,-1.2658c-2.82469,1.18425 -4.11546,4.76134 -6.52851,5.84119c-3.24662,1.45289 -6.54692,0.68497 -9.82787,1.49986c-3.68958,0.91638 -4.66849,5.34802 -5.66086,8.1544z" data-paper-data="{&quot;noHover&quot;:false,&quot;origItem&quot;:[&quot;Path&quot;,{&quot;applyMatrix&quot;:true,&quot;segments&quot;:[[[688.059,304.52043],[-7.41045,-3.12019],[6.58973,2.77463]],[[706.54994,314.40851],[-7.33954,-1.65041],[5.45509,1.22667]],[[724.96007,312.79291],[-6.2846,-1.57115],[2.03705,0.50926]],[[734.79835,323.49867],[-2.15036,-4.3619],[2.08804,-0.35567]],[[740.71205,321.72951],[-1.82485,0.8578],[5.22251,-2.45492]],[[755.57068,307.2734],[-2.82546,4.86127],[1.41109,-2.42781]],[[758.68811,299.06682],[-0.78742,2.94287],[-3.61677,4.76882]],[[744.73201,306.25917],[5.75049,1.27789],[-1.32811,-0.29514]],[[732.20256,299.36562],[0.85478,0.94025],[-0.92386,-1.01625]],[[731.57756,295.18441],[0.51384,1.04525],[-1.36671,-2.78017]],[[725.43906,287.25705],[-0.21201,3.66458],[0.28314,-4.89407]],[[733.08581,272.6667],[-3.05784,3.56748],[0.78032,-0.91037]],[[739.3301,267.63169],[-2.86225,1.82869],[-2.21002,-3.68091]],[[735.11527,255.11319],[0.52553,4.61694],[-0.65359,-5.74203]],[[734.55452,237.37467],[0.39323,5.80295],[-0.13858,-2.0451]],[[733.81252,231.27024],[2.04514,0.13795],[-1.91039,-0.12886]],[[724.87249,237.7004],[1.50695,-1.29831],[-3.44034,4.03928]],[[713.58679,250.98651],[4.45139,-3.58503],[0.33977,2.84171]],[[713.65827,258.56315],[-0.02932,-1.64388],[0.16341,9.16203]],[[708.25001,291.64337],[7.82925,-7.1175],[-3.59364,3.26694]],[[694.96886,288.62321],[1.68132,-0.64205],[-2.57013,0.98146]],[[688.87078,293.46282],[3.46966,-0.77103],[-3.46851,0.77078]],[[672.79798,284.807],[1.39059,3.16766],[-0.8469,-1.92919]],[[672.82612,279.49227],[0.44681,1.04152],[-1.74251,-4.06184]],[[663.77588,270.8551],[1.95413,3.52311],[-5.1831,6.87294]],[[654.63439,295.23688],[0.74355,-9.06317],[0,0]],[[654.30077,296.63126],[0.2824,-0.77964],[1.30171,2.11527]],[[658.52739,302.7374],[-1.52429,-1.94656],[2.51686,3.21409]],[[668.16187,311.18117],[-3.69646,-2.48922],[5.23503,-3.4971]]],&quot;closed&quot;:true}]}" fill="#225f8d"/><path d="M261.57296,180.7023c0.06758,-0.0407 0.13545,-0.08699 0.19997,-0.13523c0.08716,-0.06516 0.17103,-0.13759 0.24655,-0.21181c1.95562,0.08513 3.98839,-0.22006 5.86404,-0.89994c0.66942,2.60828 1.74729,5.73032 0.38468,7.21162c-0.57857,0.62897 -1.69729,-0.97534 -2.49275,-0.66299c-3.15045,1.23708 -4.70884,3.44278 -4.89446,-2.39321c-0.03856,-1.21264 0.32912,-2.08287 0.69197,-2.90843z" data-paper-data="{&quot;noHover&quot;:false,&quot;origItem&quot;:[&quot;Path&quot;,{&quot;applyMatrix&quot;:true,&quot;segments&quot;:[[[740.29113,279.67935],[1.47036,-2.10299],[-7.07629,10.12092]],[[745.50263,289.77605],[-6.90334,-1.89419],[1.74305,0.47827]],[[748.83614,294.05278],[-1.77659,0.33273],[4.18409,-0.78362]],[[757.24098,281.47943],[-2.16917,5.26602],[-4.03826,-1.22363]],[[746.27178,275.64562],[3.20491,2.6208],[-0.22191,0.03011]],[[745.59317,275.69129],[0.23017,0],[-0.1704,0]],[[745.08833,275.66612],[0.16602,0.01665],[-1.66014,0.93892]]],&quot;closed&quot;:true}]}" fill="#225f8d"/><path d="M232.5437,192.78169c0.62346,-0.64264 0.83001,-1.5978 0.54615,-2.42732c0.5227,-0.73983 1.1174,-1.46912 1.75479,-2.15569c1.35499,-1.4595 3.50266,-2.52056 5.15242,-3.83025c1.97805,2.29377 3.4292,4.72851 5.19018,7.26906c0.3574,0.51562 2.07475,2.59404 1.99321,3.31314c-0.07773,0.68546 -2.21472,-1.38226 -2.56781,-1.73098c-1.13029,-1.11631 -2.83895,-1.20163 -3.89897,0.09895c-1.08451,1.33061 -0.2807,2.95209 0.33951,4.26613c0.16628,0.3523 0.83316,2.10865 0.44357,2.16029c-1.3586,0.18009 -1.02731,-1.0291 -2.27617,-1.65593c-1.94528,-0.97637 -5.28859,0.6062 -7.3123,-0.36725c-0.17838,-0.0858 -0.30111,-0.69977 -0.30122,-0.81509c-0.00187,-1.83845 0.57046,-2.91948 0.93665,-4.12505z" data-paper-data="{&quot;noHover&quot;:false,&quot;origItem&quot;:[&quot;Path&quot;,{&quot;applyMatrix&quot;:true,&quot;segments&quot;:[[[673.88275,265.08998],[2.32507,-3.1166],[-0.14584,0.19549]],[[673.36258,266.84043],[-0.1935,-0.37124],[2.19527,4.21178]],[[685.22243,276.62098],[-2.05871,-4.11741],[1.32168,2.64337]],[[686.9551,282.30184],[-2.52946,-1.41546],[0.72535,0.4059]],[[688.92469,278.08003],[-0.16448,0.80735],[0.61351,-3.01136]],[[693.66362,270.48314],[-3.5222,0.88055],[3.44266,-0.86067]],[[700.5711,275.3445],[-0.50095,-3.32236],[0.15649,1.03788]],[[702.56992,281.40897],[-0.99974,1.06271],[1.04881,-1.11486]],[[703.36744,273.30872],[-0.04756,1.32605],[0.23436,-6.53368]],[[703.80167,254.52202],[0.44586,6.39053],[-4.45319,0.12928]],[[690.28531,254.51733],[4.14361,-0.75635],[-1.94916,0.35579]],[[684.62567,255.94246],[1.82234,-0.59128],[-0.56964,1.76465]],[[680.66225,259.34206],[1.86995,-0.29905],[-2.14704,1.57843]]],&quot;closed&quot;:true}]}" fill="#225f8d"/></g></g></svg>