<svg version="1.1" xmlns="http://www.w3.org/2000/svg" xmlns:xlink="http://www.w3.org/1999/xlink" width="47.0908" height="43.11636" viewBox="0,0,47.0908,43.11636"><g transform="translate(-217.09491,-160.20079)"><g data-paper-data="{&quot;isPaintingLayer&quot;:true}" fill-rule="nonzero" stroke="#0a4447" stroke-linecap="round" stroke-linejoin="miter" stroke-miterlimit="10" stroke-dasharray="" stroke-dashoffset="0" style="mix-blend-mode: normal"><path d="M235.20513,200.80958c0,0 -1.18395,-0.20915 -1.15532,-1.20195c0.01417,-0.49133 0.01792,-15.92983 -0.27058,-16.36885c-0.27663,-0.42096 -5.92778,8.34525 -5.92778,8.34525c0,0 -1.75926,-0.43272 -3.27281,-1.82555c-1.99264,-1.8337 -3.95156,-4.84135 -4.8121,-5.8385c-0.79193,-0.91762 -0.33839,-2.09631 -0.33839,-2.09631c0,0 14.42786,-18.41654 16.06284,-19.9343c1.2597,-1.16939 5.8567,-1.43112 6.0059,-1.43858c0.17997,-0.009 5.07683,0.86623 6.30473,2.19977c5.23275,5.6829 13.60941,20.64386 13.60941,20.64386c0,0 -0.65536,1.57621 -1.53818,2.34868c-1.00037,0.87532 -3.19907,3.00591 -4.93809,4.23174c-0.97516,0.68739 -2.08076,0.90697 -2.08076,0.90697c0,0 -4.57869,-8.81368 -5.29249,-7.69916c-0.18854,0.29438 0.06843,15.5284 0.07089,15.85206c0.00386,0.50562 -0.79505,1.47374 -0.79505,1.47374z" data-paper-data="{&quot;index&quot;:null}" fill="#c24b99" stroke-width="5"/><path d="M235.20513,200.80958c0,0 -1.18395,-0.20915 -1.15532,-1.20195c0.01417,-0.49133 0.01792,-15.92983 -0.27058,-16.36885c-0.27663,-0.42096 -5.92778,8.34525 -5.92778,8.34525c0,0 -1.75926,-0.43272 -3.27281,-1.82555c-1.99264,-1.8337 -3.95156,-4.84135 -4.8121,-5.8385c-0.79193,-0.91762 -0.33839,-2.09631 -0.33839,-2.09631c0,0 14.42786,-18.41654 16.06284,-19.9343c1.2597,-1.16939 5.8567,-1.43112 6.0059,-1.43858c0.17997,-0.009 5.07683,0.86623 6.30473,2.19977c5.23275,5.6829 13.60941,20.64386 13.60941,20.64386c0,0 -0.65536,1.57621 -1.53818,2.34868c-1.00037,0.87532 -3.19907,3.00591 -4.93809,4.23174c-0.97516,0.68739 -2.08076,0.90697 -2.08076,0.90697c0,0 -4.57869,-8.81368 -5.29249,-7.69916c-0.18854,0.29438 0.06843,15.5284 0.07089,15.85206c0.00386,0.50562 -0.79505,1.47374 -0.79505,1.47374z" data-paper-data="{&quot;index&quot;:null}" fill="#12fa05" stroke-width="0.5"/></g></g></svg>