<svg version="1.1" xmlns="http://www.w3.org/2000/svg" xmlns:xlink="http://www.w3.org/1999/xlink" width="98.92916" height="67.31883" viewBox="0,0,98.92916,67.31883"><g transform="translate(-190.53541,-151.8256)"><g data-paper-data="{&quot;isPaintingLayer&quot;:true}" fill-rule="nonzero" stroke="none" stroke-width="0.5" stroke-linecap="butt" stroke-linejoin="miter" stroke-miterlimit="10" stroke-dasharray="" stroke-dashoffset="0" style="mix-blend-mode: normal"><path d="M229.65906,167.721c1.78706,-2.81495 3.47096,-5.73941 5.13592,-8.64888c1.73936,-6.91568 8.3222,-4.15372 13.29151,-3.21487c2.07788,0.3926 4.42657,0.6472 6.47538,1.33567c-3.56878,2.95144 -4.62634,8.68704 -6.21296,12.52864c-0.20832,0.5045 -0.42216,1.01324 -0.63047,1.51777l-0.34285,0.7092c-0.20282,-0.16283 -0.41366,-0.31925 -0.63606,-0.46544c-2.38038,-1.56481 -5.76097,-2.79209 -8.6231,-3.33485c-2.69441,-0.13464 -5.94898,-0.14387 -9.06197,0.4139z" data-paper-data="{&quot;noHover&quot;:false,&quot;origItem&quot;:[&quot;Path&quot;,{&quot;applyMatrix&quot;:true,&quot;segments&quot;:[[[505.50795,284.42301],[0,0],[-2.10973,-6.38761]],[[499.71216,265.01845],[1.82152,6.53238],[0.04286,-14.67815]],[[475.26773,253.47542],[10.26725,0],[-4.29315,0]],[[461.86581,253.67363],[4.38436,-0.61067],[5.5535,7.34623]],[[467.82461,281.32042],[-1.19916,-8.39112],[0.15743,1.102]],[[468.2969,284.62642],[-0.15743,-1.102],[0,0]],[[468.61244,286.19036],[0,0],[0.48154,-0.25227]],[[470.09781,285.48886],[-0.51181,0.21109],[5.478,-2.25933]],[[488.66894,282.01397],[-5.91457,0.0041],[5.37902,0.75862]],[[506.27996,286.35533],[-5.8566,-2.32176],[0,0]]],&quot;closed&quot;:true}],&quot;index&quot;:null}" fill="#9519ff"/><path d="M256.97973,158.386c0.16061,0.09663 1.0444,0.56156 1.72524,-0.33634c0.01708,-0.02253 0.03345,-0.04495 0.04878,-0.06718c0.42225,0.22498 0.83259,0.65953 1.27862,0.81653c3.00336,1.05739 5.59418,2.57246 8.2502,4.27682c0,0 0.52419,0.33549 1.08665,0.15338c3.29352,1.32012 5.17198,3.24076 7.72643,5.55917c2.60515,3.90624 -0.19304,9.85503 -2.26084,13.71454c-0.68996,1.28782 -1.1653,2.52851 -1.91063,3.78317c-0.35671,0.60047 -0.3811,1.84431 -1.08033,1.80112c-0.31356,-0.01936 -0.57429,-0.17965 -0.81922,-0.37655c-0.10889,-2.90462 -3.33421,-3.6025 -5.75372,-5.25097c-1.74141,-1.11763 -3.62606,-1.6749 -5.41449,-2.68062c-3.34504,-1.88099 -6.42129,-4.29655 -9.87873,-5.88752c-0.28395,-0.13067 -0.54439,-0.28366 -0.78966,-0.44825c0.15104,-0.16986 0.22487,-0.32513 0.22487,-0.32513l0.53974,-1.13502c0.20835,-0.50453 0.41771,-1.01466 0.62603,-1.51919c1.55798,-3.77336 2.39382,-9.73215 6.4011,-12.07792z" data-paper-data="{&quot;noHover&quot;:false,&quot;origItem&quot;:[&quot;Path&quot;,{&quot;applyMatrix&quot;:true,&quot;segments&quot;:[[[453.13388,253.84936],[0.89139,2.07992],[-0.02237,-0.05219]],[[453.0718,253.69482],[0.01905,0.05084],[-0.94532,0.29419]],[[450.14662,254.86288],[0.95809,-0.14743],[-6.45129,0.99271]],[[431.80138,260.3809],[6.09133,-2.43653],[0,0]],[[429.59176,260.27354],[1.01736,0.58426],[-7.15522,1.41403]],[[411.63088,268.53135],[6.19935,-3.71961],[-7.09641,6.91746]],[[409.20156,297.08607],[-2.13877,-8.61156],[0.71364,2.87342]],[[411.05423,305.46364],[-0.83944,-2.82746],[0.40175,1.35321]],[[412.27215,309.51949],[-1.40005,-0.18013],[0.62788,0.08078]],[[414.07368,309.06815],[-0.5817,0.30522],[1.67274,-5.84355]],[[428.02706,300.61711],[-5.59709,2.41385],[3.99391,-1.5979]],[[439.9822,297.25523],[-4.03038,1.3531],[7.53829,-2.53078]],[[462.34271,289.17676],[-7.61428,1.90007],[0.62536,-0.15605]],[[464.12344,288.57428],[-0.56611,0.23959],[-0.21246,-0.40194]],[463.84286,287.83169],[[463.34715,285.33352],[0,0],[-0.15743,-1.102]],[[462.87486,282.02752],[0.15743,1.102],[-1.17698,-8.24188]],[[456.35761,255.18536],[6.72197,6.28694],[-0.36514,0.13434]]],&quot;closed&quot;:true}],&quot;index&quot;:null}" fill="#9519ff"/><path d="M220.55561,185.10892c0,0 0.24357,0.08918 0.45739,0.29563l0.51189,0.09672c0.60634,0.11454 0.99802,0.64333 0.94172,1.22603c1.27932,0.69396 2.44634,1.4342 3.42272,2.13005c-0.19451,0.5475 -0.23706,1.13736 -0.19513,1.70255c0.02928,0.39466 1.09639,3.18014 1.29287,3.33894c1.92635,1.55698 7.35884,-0.11771 8.75176,-1.93227c0.87179,-1.13565 0.75647,-2.1726 0.80109,-3.41282c0,0 0.05597,-0.61026 -0.48797,-0.9271c-0.24705,-0.35226 -0.6713,-0.47968 -0.6713,-0.47968l-1.79024,-0.48353c-0.18163,0.04569 -0.52806,0.11017 -0.95116,0.21195c-1.59744,-0.81194 -3.72062,-1.01117 -5.24346,0.01428c-1.87101,-1.32417 -4.23849,-2.68244 -6.67627,-3.68038c-0.1522,0.02756 -0.31087,0.02856 -0.46907,-0.00133l-1.21902,-0.23032l0.03528,-0.1385c-0.21699,-0.02128 -0.42696,-0.06963 -0.62662,-0.15749c-0.57649,-0.25377 -0.40314,-1.16143 -0.60472,-1.7421l0.34766,-1.36704c0,0 0.34819,-0.79099 1.13614,-0.79815c0.72617,-1.49452 1.49196,-2.97583 2.56183,-4.2794c0.88873,-1.08286 2.68787,-1.52722 3.8749,-2.18466c3.78196,-2.09466 7.80535,-2.06242 11.96222,-1.86996c4.50805,0.84754 7.2562,3.77469 11.13449,5.56344c3.39442,1.56561 6.42228,3.95231 9.72434,5.79149c1.76107,0.98092 3.55765,1.51505 5.25595,2.60465c0.96052,0.64814 4.20683,1.86216 4.74833,3.06311c-0.02999,0.04296 -0.05679,0.08547 -0.08068,0.12708c-0.23617,0.11469 -1.05212,0.59259 -0.68956,1.54365c0.2414,0.63323 0.72895,0.75373 1.10179,0.73983c2.63466,7.02813 -4.99309,16.22968 -11.85643,18.93737c-10.95377,6.82276 -23.82806,2.25006 -35.03309,0.11631c-2.79667,-0.99871 -6.4453,-1.84007 -8.78197,-3.64249c-2.75983,-2.12882 -6.34989,-6.95196 -7.41763,-10.28659c-0.80171,-2.50393 -0.0347,-5.60244 0.55402,-8.11677c2.77942,-3.76837 7.41861,-3.59477 11.75419,-2.08504c-0.00007,0.02367 -0.00004,0.0474 0.00018,0.07116l1.28883,-0.06591l1.13474,0.30735z" data-paper-data="{&quot;index&quot;:null}" fill="#9519ff"/><path d="M224.09984,190.06453c-1.11924,0.24382 -1.40231,-0.72024 -1.40231,-0.72024l-0.15055,-0.51689c-0.26073,-1.09503 -0.60819,-2.15787 -0.9982,-3.20565c-0.50989,-0.53849 -1.42123,-0.67706 -2.39169,-0.57133c-1.07316,0.85361 -2.00505,1.99253 -2.74543,3.59998l-0.26987,0.47518c0,0 -0.51347,0.89067 -1.54749,0.44838c-1.03402,-0.44226 -0.52054,-1.33291 -0.52054,-1.33291l0.19453,-0.33033c0.70984,-1.51303 1.5467,-2.65194 2.48558,-3.54157c-2.37211,-0.64484 -4.76359,-0.81557 -6.8306,-0.09423c-0.00194,0.06918 -0.00927,0.14263 -0.02275,0.22055c-0.20609,1.19128 -1.4355,1.05363 -1.4355,1.05363c-0.23181,-0.02987 -0.45294,-0.06422 -0.66416,-0.10317c-0.49528,0.39717 -0.95583,0.87499 -1.37427,1.44231c-0.28478,1.21622 -0.61108,2.56614 -0.78136,3.91924c0.09058,0.19573 0.12317,0.44879 0.04024,0.77442c-0.03572,0.14032 -0.08442,0.26066 -0.14243,0.36383c-0.05272,1.05739 0.02536,2.09414 0.33035,3.04663c1.06776,3.33465 4.65188,8.13851 7.41171,10.26737c2.33668,1.80242 5.97476,2.63143 8.77143,3.63019c11.20502,2.13373 24.01072,6.71177 34.96449,-0.111c3.46507,-1.36706 7.12131,-4.38054 9.55341,-7.93402c-0.58819,-0.9118 0.38036,-1.59771 0.38036,-1.59771c0.3266,-0.23088 0.64907,-0.45842 0.96779,-0.68406c1.43693,-2.88113 1.96773,-5.94678 0.94039,-8.68726c-0.37287,0.0139 -0.86042,-0.10526 -1.10182,-0.73852c-0.36259,-0.95109 0.45347,-1.42659 0.68964,-1.5413c0.02389,-0.04164 0.05072,-0.08395 0.0807,-0.12693c-0.5415,-1.20096 -3.78675,-2.40832 -4.74729,-3.05644c-1.6983,-1.08958 -3.49212,-1.61566 -5.25321,-2.59653c-1.32301,-0.73687 -2.59929,-1.55856 -3.8723,-2.37949c-0.01168,0.02748 -0.02432,0.05394 -0.03781,0.07945c-0.83225,-0.68571 -2.02207,-1.05196 -3.29425,-1.33042c0.34312,-0.07403 0.6868,-0.14466 1.03143,-0.20959c-1.14967,-0.70626 -2.31754,-1.37071 -3.53469,-1.93211c-3.87826,-1.78875 -6.59716,-4.70823 -11.10521,-5.55577c-3.89443,-0.18033 -7.64955,-0.22685 -11.2181,1.49047c0.13129,0.21166 0.26229,0.40966 0.39366,0.59615c-1.12655,0.39242 -1.81884,0.89739 -2.17838,1.46778c-0.16338,-0.30742 -0.32993,-0.62914 -0.51402,-0.96964c-0.87043,0.37658 -1.74644,0.79718 -2.2876,1.45657c-0.73847,0.89975 -1.32942,1.88124 -1.86275,2.89356c0.74828,0.03786 0.98092,0.72579 0.98092,0.72579c0.36953,1.09903 0.79809,2.17382 1.23828,3.24276c2.44045,-0.81179 5.12271,-1.46831 7.84245,-2.98777c0,0 0.9723,-0.53618 1.5948,0.3013c0.62247,0.83751 -0.34982,1.37366 -0.34982,1.37366c-2.88249,1.57195 -5.80457,2.11212 -8.38664,3.00581c0.19887,0.48348 0.39497,0.96781 0.58394,1.45464c1.37805,0.72822 2.66256,1.52893 3.79627,2.33131c1.5228,-1.02543 3.65463,-0.83849 5.25208,-0.02654c0.42307,-0.10175 0.77391,-0.17039 0.95554,-0.21608l1.7986,0.47776c0,0 0.42792,0.12561 0.67497,0.47786c0.54393,0.31683 0.5264,1.01364 0.5264,1.01364c-0.0446,1.24019 0.09961,2.21742 -0.77217,3.35309c-1.39291,1.81457 -6.922,3.51741 -8.84833,1.9604c-0.19649,-0.15882 -1.26426,-2.95916 -1.29354,-3.35382c-0.04193,-0.56517 0.00195,-1.16192 0.19646,-1.70945c-0.34897,-0.2487 -0.72221,-0.50337 -1.11616,-0.75976c0.02888,0.113 0.05685,0.22633 0.08393,0.34003l0.12715,0.42885c0,0 0.28306,0.96403 -0.83617,1.20788zM219.01653,182.74177c0.37204,-0.20271 0.75402,-0.38681 1.1449,-0.55738c-0.38087,-0.917 -0.75689,-1.83706 -1.09728,-2.77202c-0.0682,0.14167 -0.13643,0.28331 -0.20487,0.42478c-0.50317,0.2619 -0.67459,0.71434 -0.60187,1.20756c-0.01108,0.03332 -0.02102,0.06718 -0.02979,0.10157c-0.17217,0.67612 0.17211,1.33353 0.7889,1.59551zM198.21703,184.67691c1.44302,2.63688 2.34976,4.26937 5.08042,5.13719c0.21651,-1.31944 0.54225,-2.61795 0.86609,-3.81998c0.3774,-0.52857 0.77773,-1.00336 1.19809,-1.42789c-1.21184,-0.75265 -1.9754,-1.90415 -2.89237,-3.52729l-0.05523,-0.08135c0,0 -0.64362,-0.99406 0.42396,-1.66484c1.06758,-0.67076 1.7112,0.3233 1.7112,0.3233l0.12715,0.2004c0.89127,1.59344 1.3567,2.62183 2.82681,3.09427c2.29218,-1.31639 4.94391,-1.60071 7.64041,-1.24269c1.81217,-2.7323 2.67657,-6.08458 4.89462,-8.62466c1.7944,-2.05497 4.29114,-3.30589 7.00753,-4.04352c-0.77137,-0.64669 -0.12553,-1.54137 -0.12553,-1.54137l0.71941,-0.99569c1.70795,-2.65542 3.26947,-5.41224 4.88469,-8.14763c0.94532,-3.66856 4.07975,-6.56544 8.17868,-6.48805c2.66427,0.05031 5.36092,1.22365 7.94947,1.71272c2.91078,0.54993 5.9809,0.90946 8.58262,2.18147c0.17455,-0.0561 0.35329,-0.10733 0.53638,-0.15346c0.3463,-0.08727 2.71966,0.83824 3.23615,1.02004c2.94146,1.03537 5.4816,2.47214 8.06819,4.10742c0.16125,-0.00312 0.27069,0.01757 0.27069,0.01757l0.42344,0.09676c4.0247,1.48533 6.24628,3.7024 9.23936,6.41892c3.14626,4.94896 0.67659,10.39263 -1.61119,15.46689c1.32059,0.64418 2.74397,1.6398 4.24443,1.39489c1.44596,-0.23602 5.00313,-3.02759 6.30767,-2.35883c2.42794,1.24469 1.26631,7.25625 1.02736,9.33105c-0.06858,0.59573 0.35901,1.29839 -0.01988,1.78893c-1.23259,1.59585 -4.79284,1.21519 -6.41362,1.2525c-1.48415,-0.27314 -3.11116,-0.54771 -4.58592,-1.07158c-0.05886,0.11407 -0.11123,0.18316 -0.11123,0.18316l-0.68468,0.88476c-2.3318,2.36321 -4.73089,4.15512 -7.3474,6.02274c-0.08422,0.15765 -0.17064,0.31465 -0.25926,0.47092c0.58824,1.83257 0.87036,4.1274 2.35454,5.25985l0.58977,0.81662c0,0 0.64362,0.99406 -0.42396,1.66484c-1.06758,0.67076 -1.7112,-0.3233 -1.7112,-0.3233l-0.13979,-0.31018c-1.38503,-1.21708 -1.93471,-2.77478 -2.44825,-4.42603c-2.60076,3.40272 -6.13654,6.21387 -9.68507,7.61382c-11.48535,7.29215 -25.04906,2.51806 -36.81979,0.3124c-3.10478,-1.09225 -7.0082,-2.0398 -9.59911,-4.0362c-3.14274,-2.42158 -6.9333,-7.53256 -8.17301,-11.32452c-0.36795,-1.1255 -0.48825,-2.33576 -0.45223,-3.56871c-3.86892,-1.04178 -5.29081,-3.22278 -7.20709,-6.68307l-0.07194,-0.9497c0,0 0.29975,-1.17723 1.50976,-0.94862c0.73198,0.13829 0.91145,0.62376 0.93901,0.98572zM258.72081,158.09431c-0.68084,0.8979 -1.55985,0.43098 -1.72046,0.33433c-4.00728,2.34577 -4.81509,8.27035 -6.37305,12.04371c-0.20835,0.50455 -0.41671,1.00905 -0.62503,1.51358l-0.53949,1.13102c0,0 -0.07383,0.1542 -0.22485,0.32404c0.24527,0.16459 0.50566,0.31587 0.78962,0.44654c3.45744,1.59095 6.50865,3.96771 9.85367,5.84873c1.78844,1.00572 3.64167,1.55863 5.3831,2.67628c2.41951,1.64848 5.63111,2.35078 5.73999,5.25542c0.24496,0.19689 0.50421,0.35787 0.8178,0.37725c0.69926,0.0432 0.7191,-1.198 1.07584,-1.79847c0.74535,-1.25466 1.2113,-2.48767 1.90126,-3.77549c2.0678,-3.85951 4.85344,-9.76198 2.24832,-13.66822c-2.55445,-2.31841 -4.40926,-4.21075 -7.70278,-5.53087c-0.56248,0.18212 -1.08233,-0.15148 -1.08233,-0.15148c-2.65602,-1.70435 -5.21398,-3.21854 -8.21734,-4.27591c-0.44604,-0.15702 -0.85345,-0.59252 -1.27572,-0.81751c-0.01533,0.02222 -0.0315,0.04458 -0.04858,0.06711zM229.10043,168.54135c3.11298,-0.55776 6.34985,-0.56855 9.04426,-0.43392c2.86211,0.54275 6.19125,1.76964 8.57165,3.33445c0.22238,0.14619 0.43199,0.30332 0.63479,0.46615l0.34025,-0.70757c0.20832,-0.50455 0.41668,-1.00905 0.625,-1.51358c1.58661,-3.84165 2.63045,-9.52225 6.19926,-12.47367c-2.04881,-0.68849 -4.38483,-0.92626 -6.4627,-1.31883c-4.96933,-0.93887 -11.4758,-3.71548 -13.21516,3.20023c-1.66494,2.90945 -3.34495,5.79243 -5.13201,8.60738zM281.91604,186.45773c-2.16681,0.31251 -3.73278,-0.77226 -5.50213,-1.53823c-0.50555,1.18612 -1.05041,2.31309 -1.69423,3.20759c0.1047,0.05486 0.16599,0.10208 0.16599,0.10208l0.08588,0.13585c2.87205,1.12795 4.60697,2.70609 7.90445,3.34871c0.66585,-0.01944 1.33156,-0.02518 1.99755,-0.05825c0.66178,-0.03288 1.85043,0.64066 1.98218,0.0111c0.28304,-1.35244 0.04785,-4.192 0.01919,-5.79661c-0.01136,-0.63603 0.39609,-1.39662 0.03294,-1.91136c-0.13756,-0.19499 -0.16287,0.50755 -0.37608,0.64531c-1.01857,0.65822 -3.41186,1.68022 -4.61578,1.85386zM275.7948,191.95475c-0.60616,-0.4521 -1.08379,-1.10502 -1.81255,-1.34244l-0.71516,-0.48168c0,0 -0.18656,-0.14379 -0.32355,-0.38681c-0.42458,0.20607 -0.88651,0.31752 -1.39356,0.31209c0.47492,1.91009 0.39581,3.92384 -0.10555,5.92418c1.35462,-1.05439 2.65984,-2.17324 3.95114,-3.48311zM228.54307,191.51976c-0.00567,0.20311 -0.03413,0.41286 0.09267,0.5534c0.14908,0.16521 0.36572,0.18895 0.60912,0.15007c-0.24954,-0.21435 -0.4886,-0.45032 -0.70177,-0.70344zM218.11857,182.30353c-0.01873,-0.28384 -0.04296,-0.56643 -0.07416,-0.84727c-0.12866,0.24098 -0.26079,0.47997 -0.39762,0.71616c0.15745,0.04193 0.31474,0.08569 0.47179,0.13111zM230.3558,190.22493c0.06079,0.20236 0.18539,0.36132 0.39896,0.42616c0.10991,-0.03655 0.21277,-0.07327 0.30891,-0.11011c-0.25234,-0.07765 -0.49321,-0.18439 -0.70784,-0.31605z" data-paper-data="{&quot;index&quot;:null}" fill="#000000"/><path d="M276.36955,184.89985c1.76935,0.76597 3.40526,1.82818 5.57207,1.51565c1.20392,-0.17368 3.52667,-1.13035 4.54522,-1.78859c0.21317,-0.13778 0.32686,-0.88896 0.46442,-0.69396c0.36314,0.51472 -0.03881,1.28918 -0.02745,1.92522c0.02865,1.60461 0.25168,4.48662 -0.03137,5.83909c-0.13178,0.62956 -1.32846,-0.03679 -1.99026,-0.00392c-0.666,0.03308 -1.34644,0.04634 -2.01228,0.06575c-3.29744,-0.64263 -5.09573,-2.25704 -7.96778,-3.38501l-0.08606,-0.13698c0,0 -0.06135,-0.04816 -0.16606,-0.10299c0.6438,-0.8945 1.19397,-2.04823 1.69955,-3.23433z" data-paper-data="{&quot;noHover&quot;:false,&quot;origItem&quot;:[&quot;Path&quot;,{&quot;applyMatrix&quot;:true,&quot;segments&quot;:[[[412.35667,304.82218],[3.08615,1.09709],[-1.71472,-0.60957]],[[406.22987,300.67951],[1.25817,1.29278],[-0.26336,-0.2706]],[[405.91677,299.59083],[0.27681,-0.25683],[-0.73074,0.67799]],[[405.24582,302.50505],[0.25627,-0.96332],[-0.64653,2.43037]],[[403.0916,311.31991],[0.09074,-2.13666],[-0.04224,0.99462]],[[406.02664,311.8722],[-0.96616,-0.23997],[0.97228,0.2415]],[[408.95826,312.53429],[-0.97721,-0.2207],[5.11754,-0.02983]],[[421.90656,309.71467],[-4.67128,0.8896],[0,0]],[422.08473,309.53288],[[422.36855,309.42541],[-0.17544,0.05328],[-0.61515,-1.54427]],[[421.07123,304.06425],[0.30092,1.94773],[-2.90454,0.65602]]],&quot;closed&quot;:true}],&quot;index&quot;:null}" fill="#9519ff"/><path d="M259.34613,203.76983c0.00561,0.0087 0.99228,1.50375 1.73935,2.17407c-1.26418,0.01895 -3.682,0.39271 -3.98334,0.41366c-5.67573,0.4073 -12.06971,0.49715 -17.1752,-1.97156c-1.81426,-0.87728 -3.37596,-2.24313 -4.89327,-3.62514c3.36677,0.27576 6.8617,0.06353 10.14054,0.19898c3.70856,0.1532 7.27794,0.55994 11.01252,-0.16621c0,0 0.58189,-0.11627 0.93144,-0.55709c0.75469,1.1393 1.44442,2.32355 2.22799,3.53329z" data-paper-data="{&quot;noHover&quot;:false,&quot;origItem&quot;:[&quot;Path&quot;,{&quot;applyMatrix&quot;:true,&quot;segments&quot;:[[[433.40186,342.55073],[1.92446,-1.9238],[-0.0138,0.01379]],[[429.35965,345.87942],[1.61788,-0.95887],[2.22012,0.46714]],[[436.19413,347.97815],[-0.52182,-0.14113],[9.8229,2.68098]],[[467.16814,350.26659],[-10.10872,2.72542],[3.59218,-0.96849]],[[477.41363,345.40834],[-3.29531,1.98469],[-6.0591,-0.65293]],[[459.45193,342.33201],[5.84104,0.87702],[-6.60661,-0.99197]],[[440.29907,338.27258],[6.25772,2.59425],[0,0]],[[438.90546,336.94781],[0.41834,0.9184],[-1.84189,1.80597]]],&quot;closed&quot;:true}],&quot;index&quot;:null}" fill="#9519ff"/><path d="M252.44715,212.08c0.08168,0.20536 0.0779,0.3815 0.0779,0.3815l-0.12232,0.39518c0.20638,0.07963 0.3603,0.18861 0.44625,0.33094c0.72911,1.20703 -2.5242,4.18815 -3.66731,4.61438c-2.94698,1.09877 -6.76922,-0.52931 -8.88159,-2.54348l-0.45299,0.3029l-0.78536,-0.87138c-0.20638,-0.22571 -0.29819,-0.5263 -0.22114,-0.82885c0.13663,-0.53645 0.75225,-0.87594 1.37504,-0.75827c0,0 0.83415,0.1576 1.06838,0.20187c3.8477,0.23328 7.33166,-0.75266 10.19399,-3.15331c0,0 0.83134,-0.69003 1.63243,0.02605c0.80112,0.71605 -0.03023,1.40607 -0.03023,1.40607c-0.20847,0.17155 -0.41951,0.33698 -0.63299,0.49638z" data-paper-data="{&quot;index&quot;:null}" fill="#9519ff"/><path d="M218.31024,208.71567c-0.14979,1.09945 -1.30097,2.01464 -2.96604,1.72415c-1.61402,-0.28159 -2.34426,-0.98229 -2.53763,-1.86558c-0.38603,-0.36285 -0.17143,-1.09147 -0.136,-2.13247l0.56356,-0.30426c0.2642,-0.5903 0.61141,-1.17618 0.97505,-1.71225l-0.15533,-0.05005l0.40296,-0.92822c0.19208,-0.465 0.76031,-0.74526 1.33465,-0.63675c0.35126,0.06636 0.62978,0.26395 0.78139,0.5199l0.59006,0.97907c0.64538,1.07343 1.15592,2.21644 2.43424,2.75347c0,0 1.01635,0.47172 0.46871,1.34712c-0.54764,0.87541 -1.56397,0.40371 -1.56397,0.40371c-0.06529,-0.0321 -0.12916,-0.06475 -0.19166,-0.09785z" data-paper-data="{&quot;index&quot;:null}" fill="#9519ff"/><path d="M220.37709,207.68511c0,0 1.03509,-0.4404 1.54639,0.45116c0.51129,0.89156 -0.52379,1.33198 -0.52379,1.33198l-1.03946,0.4381c-1.29779,0.40658 -2.35469,1.31779 -3.53354,1.97151c0,0 -0.61328,0.33821 -1.17752,0.05791l-1.5148,-0.01635c-6.23027,-2.96613 -3.97763,-6.5884 0.52039,-10.72241c0,0 0.79226,-0.72328 1.63199,-0.04084c0.83973,0.68242 0.04743,1.4057 0.04743,1.4057c-3.61589,3.27575 -5.76617,5.48549 -1.10459,7.60673l0.36879,-0.20843c0,0 0.16503,-0.0151 0.3766,0.02004c1.20836,-0.705 2.17082,-1.44267 3.54577,-1.92658l0.85628,-0.3685z" data-paper-data="{&quot;index&quot;:null}" fill="#000000"/><path d="M218.58257,205.04132c-3.45677,-1.88329 0.21669,-4.54726 3.16933,-5.73274c-0.15622,-0.17922 -0.25101,-0.43374 -0.16011,-0.79064c0.24736,-0.97133 1.37504,-0.75827 1.37504,-0.75827l0.48382,0.0914c7.10614,1.34255 18.58014,1.28843 24.52093,4.58366c4.44447,3.4467 5.55374,10.08517 -2.11245,11.36792c-4.98135,0.83353 -8.83095,-4.52466 -12.87469,-6.0279c-2.25819,-1.05483 -5.7964,-2.8474 -8.39289,-2.88656c-1.61974,-0.02443 -4.60623,0.91739 -6.00899,0.15316z" data-paper-data="{&quot;index&quot;:null}" fill="#000000"/><path d="M251.89777,209.19391c0,0 0.24736,-0.97135 1.18378,-0.79441c0.67299,0.12717 0.73456,0.6646 0.71594,0.95694c0.08379,0.24262 0.16759,0.48522 0.25139,0.72782c2.87848,10.95582 -12.50546,11.47271 -16.14644,4.25139c0,0 -0.40945,-0.85946 0.46827,-1.34537c0.87775,-0.48588 1.2872,0.37355 1.2872,0.37355c2.26138,5.2001 14.91836,6.07682 12.53776,-2.55927c-0.10439,-0.30108 -0.20879,-0.60216 -0.31318,-0.90324l0.0153,-0.70742z" data-paper-data="{&quot;index&quot;:null}" fill="#000000"/><path d="M251.16378,195.57389c-0.01237,-0.05739 -0.02789,-0.11807 -0.0464,-0.18183zM251.11241,195.37536c-0.3445,-1.16268 -1.67132,-3.32586 -3.23911,-5.29257c-2.59233,1.20615 -4.76987,2.81506 -5.86496,4.90865l-0.47754,0.82914c0,0 -0.51347,0.89067 -1.54749,0.44838c-1.03402,-0.44226 -0.52054,-1.33291 -0.52054,-1.33291l0.45125,-0.78196c1.33235,-2.41797 3.74311,-4.26932 6.59925,-5.65373c-1.3042,-1.39745 -2.62912,-2.46015 -3.60512,-2.59117c0,0 -1.12769,-0.21306 -0.88032,-1.18436c0.24736,-0.97133 1.37504,-0.75827 1.37504,-0.75827c1.6067,0.35524 3.48887,1.81571 5.19217,3.63288c3.55071,-1.371 7.50837,-2.13325 10.85512,-2.44707c0,0 1.14804,-0.10502 1.26998,0.88382c0.12194,0.98888 -1.02609,1.09389 -1.02609,1.09389c-2.83391,0.25214 -6.43607,0.9017 -9.70367,2.08402c1.70927,2.13941 3.05161,4.45105 3.43533,5.96019l-0.05752,0.62592c0,0 -0.24736,0.97133 -1.37504,0.75827c-1.104,-0.20858 -0.89013,-1.14388 -0.88066,-1.18312z" data-paper-data="{&quot;index&quot;:null}" fill="#000000"/><path d="M211.69765,154.34324c0.49741,-0.99482 1.4922,-0.49741 1.4922,-0.49741l0.60692,0.3118c3.33794,2.19166 5.96099,5.16736 8.6316,8.10503c0,0 0.74817,0.82298 -0.07481,1.57116c-0.82298,0.74817 -1.57116,-0.07481 -1.57116,-0.07481c-2.53779,-2.79157 -5.02539,-5.66646 -8.20393,-7.74018l-0.38341,-0.18336c0,0 -0.99482,-0.49741 -0.49741,-1.4922z" data-paper-data="{&quot;index&quot;:null}" fill="#000000"/><path d="M190.53672,170.64076c0.04512,-1.11131 1.15643,-1.0662 1.15643,-1.0662l0.45786,0.02414c6.57307,0.92915 12.43662,2.22373 18.6933,4.49837c0,0 1.04527,0.38009 0.66517,1.42536c-0.38009,1.04527 -1.42536,0.66517 -1.42536,0.66517c-6.11919,-2.2257 -11.81713,-3.47779 -18.24445,-4.38634l-0.23673,-0.00407c0,0 -1.11131,-0.04512 -1.0662,-1.15643z" data-paper-data="{&quot;index&quot;:null}" fill="#000000"/><path d="M198.33275,159.91795l1.63001,0.00944c6.42713,1.67715 11.14352,4.5068 15.54739,9.5309c0,0 0.7324,0.83704 -0.10464,1.56944c-0.83704,0.7324 -1.56944,-0.10464 -1.56944,-0.10464c-4.04196,-4.62806 -8.28122,-7.18146 -14.16236,-8.79012l-1.34097,0.00944c0,0 -1.11223,0 -1.11223,-1.11223c0,-1.11223 1.11223,-1.11223 1.11223,-1.11223z" data-paper-data="{&quot;index&quot;:null}" fill="#000000"/></g></g></svg>