<svg version="1.1" xmlns="http://www.w3.org/2000/svg" xmlns:xlink="http://www.w3.org/1999/xlink" width="62.95962" height="103.60385" viewBox="0,0,62.95962,103.60385"><g transform="translate(-205.46655,-131.62396)"><g data-paper-data="{&quot;isPaintingLayer&quot;:true}" fill-rule="nonzero" stroke="none" stroke-linecap="butt" stroke-linejoin="miter" stroke-miterlimit="10" stroke-dasharray="" stroke-dashoffset="0" style="mix-blend-mode: normal"><path d="M241.06448,145.40404c1.6058,1.41051 3.06553,3.0462 4.27746,5.01962l2.20126,1.22058c3.06892,6.68478 3.03716,14.03852 6.55716,20.40114c1.50869,2.72705 4.04769,4.88112 5.60166,7.62189c5.07033,8.94263 3.50676,18.71931 1.53759,28.31499c-6.09739,16.54504 -23.51903,30.39361 -39.48941,15.80968c0,0 -0.02008,-0.01818 -0.05766,-0.04875c-0.03585,-0.0326 -0.05689,-0.04968 -0.05689,-0.04968l-1.84257,-1.48753c-3.86668,-3.60592 -6.07298,-6.99671 -3.13147,-11.79848c0.26212,-0.4019 0.69279,-0.98505 0.89773,-1.37709c0.18935,0.16466 0.37641,0.32693 0.56575,0.49159l-0.07828,-0.04866c0,0 1.77345,2.05242 3.83514,0.26903c2.06171,-1.78337 0.09342,-3.64513 0.09342,-3.64513l-0.4698,-0.50097c-0.7927,-0.68931 -1.59578,-1.39114 -2.38845,-2.08047c0,0 -0.10898,-0.0953 -0.29692,-0.2153c0.11713,-3.60569 -0.75535,-7.16932 0.6306,-11.26202c2.11769,-6.25361 7.19757,-11.85083 9.8981,-17.92696c1.51581,-3.41054 2.40715,-6.84138 3.18161,-10.33576c1.01543,1.22565 1.93766,2.50873 2.9662,3.96956l-0.02601,0.33591c0,0 0.8488,2.5939 3.44632,1.76687c2.59749,-0.82704 1.78003,-3.15242 1.78003,-3.15242l-0.70752,-1.82042c-2.09862,-2.98061 -3.86245,-5.36566 -6.57169,-7.85076c0,0 -0.06165,-0.05678 -0.17424,-0.13921c-0.64881,-1.66208 -1.48227,-3.50364 -2.3391,-5.02261c1.8685,-2.71853 4.09004,-4.00316 7.7635,-5.27114c0.41362,-0.00138 1.72489,-0.09612 2.39652,-1.1876z" data-paper-data="{&quot;noHover&quot;:false,&quot;origItem&quot;:[&quot;Path&quot;,{&quot;applyMatrix&quot;:true,&quot;segments&quot;:[[[552.1385,344.97926],[0.30261,-0.02292],[-2.62093,1.12244]],[[546.7577,349.24295],[1.22331,-2.08831],[0.70745,1.06615]],[[548.67337,352.6043],[-0.56281,-1.18188],[0.08675,0.05436]],[[548.80866,352.69681],[0,0],[2.11416,1.675]],[[554.0535,358.08968],[-1.69359,-2.06994],[0,0]],[554.67083,359.38409],[[553.55665,361.98383],[1.85695,-0.74278],[-1.85695,0.74278]],[550.95692,360.86965],[[550.95767,360.62263],[0,0],[-0.83003,-1.01449]],[[548.58403,357.87234],[0.80798,0.8431],[-0.38163,2.59808]],[[546.83363,365.58478],[0.92856,-2.576],[-1.6543,4.58933]],[[540.5683,379.12759],[1.21841,-4.68834],[-0.7974,3.06832]],[[540.68392,387.36488],[-0.10527,-2.64473],[0.14387,0.07785]],[[540.91174,387.5057],[0,0],[0.61657,0.46243]],[[542.76145,388.89299],[-0.61657,-0.46243],[0,0]],[543.12981,389.23292],[[543.12981,392.06134],[1.41421,-1.41421],[-1.41421,1.41421]],[540.30138,392.06134],[[540.36145,392.09299],[0,0],[-0.14727,-0.11045]],[[539.91964,391.76162],[0.14727,0.11045],[-0.1292,0.29773]],[[539.47124,392.66984],[0.17052,-0.30797],[-1.89814,3.66955]],[[542.3655,401.12235],[-3.0205,-2.43386],[0,0]],[543.78738,402.1108],[[543.83148,402.14406],[-0.02796,-0.02196],[0.02912,0.02039]],[[543.8761,402.17662],[0,0],[12.45906,9.82604]],[[571.81933,388.54359],[-3.58547,12.43004],[0.93269,-7.12609]],[[569.18202,368.01486],[4.18399,6.27533],[-1.28233,-1.92329]],[[564.70837,362.76871],[1.24846,1.91564],[-2.91284,-4.46947]],[[558.87709,348.20638],[2.59982,4.72913],[0,0]],[[557.20797,347.43037],[0,0],[-0.99138,-1.37988]],[[553.82354,343.98377],[1.24979,0.9471],[-0.43366,0.83428]]],&quot;closed&quot;:true}]}" fill="#4c262f" stroke-width="0.5"/><path d="M224.32066,153.23602l-0.34575,0.05527c-0.90645,0.44564 -2.652,0.99333 -4.23836,1.59321c1.17597,-1.48478 2.59565,-3.10594 3.98286,-4.34693c0.33166,0.46825 0.71285,1.01607 1.02885,1.49332c-0.06694,0.13184 -0.12928,0.28554 -0.19578,0.42069c0,0 -0.14687,0.34653 -0.23184,0.78443z" data-paper-data="{&quot;noHover&quot;:false,&quot;origItem&quot;:[&quot;Path&quot;,{&quot;applyMatrix&quot;:true,&quot;segments&quot;:[[[542.01044,349.93643],[0,0],[0.0415,-0.10242]],[[542.13567,349.63277],[-0.04199,0.10002],[-0.25651,-0.3325]],[[541.34911,348.64688],[0.2675,0.32508],[-0.94938,0.9816]],[[538.78496,351.88168],[0.78187,-1.14879],[1.12905,-0.523]],[[541.63271,350.53804],[-0.6397,0.37412],[0,0]],[[541.88137,350.48656],[0,0],[0.03899,-0.32493]]],&quot;closed&quot;:true}]}" fill="#904f1d" stroke-width="0.5"/><path d="M236.06776,141.92404c-3.45316,1.30522 -6.0826,2.99348 -8.18627,5.37697c-0.8812,-1.23559 -1.92593,-2.46882 -2.87179,-3.67947c0.00568,-0.13971 -0.01539,-0.30279 -0.02792,-0.45845c-0.21891,-2.71719 -2.71013,-2.54762 -2.71013,-2.54762c-1.70226,0.15165 -3.99331,0.47799 -5.97625,1.11352c1.73284,-2.08181 3.83033,-3.89802 8.33974,-4.58864l1.0103,-0.12808c0,0 0.30114,-0.03628 0.67251,-0.17601c3.24816,1.69105 6.69116,3.30575 9.74974,5.08777z" data-paper-data="{&quot;noHover&quot;:false,&quot;origItem&quot;:[&quot;Path&quot;,{&quot;applyMatrix&quot;:true,&quot;segments&quot;:[[[542.57741,338.49539],[2.46645,1.06541],[-0.26438,0.12191]],[542.10783,338.65834],[[541.3946,338.8001],[0,0],[-3.26324,0.74423]],[[535.59796,342.50227],[1.15776,-1.61518],[1.41736,-0.5701]],[[539.71591,341.34857],[-1.23763,0.20115],[0,0]],[[541.99677,343.0212],[-0.30411,-1.97674],[0.01742,0.11325]],[[542.02738,343.34475],[-0.00325,-0.10253],[0.75627,0.83581]],[[544.2339,345.87771],[-0.71027,-0.85749],[1.41314,-1.85559]],[[549.87739,341.61012],[-2.45776,1.13801],[-2.33254,-1.142]]],&quot;closed&quot;:true}]}" fill="#904f1d" stroke-width="0.5"/><path d="M236.22999,143.10088c-0.83596,1.07655 -1.91251,0.24059 -1.91251,0.24059l-0.44234,-0.34758c-7.24515,-4.8658 -10.55149,-4.94101 -18.05637,-0.96969c0,0 -1.20496,0.63706 -1.84202,-0.5679c-0.63706,-1.20496 0.5679,-1.84202 0.5679,-1.84202c8.28582,-4.37657 12.94137,-4.19498 20.8503,1.11659l0.59443,0.45751c0,0 1.07655,0.83596 0.24059,1.91251z" fill="#f19f5f" stroke-width="0.5"/><path d="M238.67374,146.7278c-3.67346,1.26797 -5.86593,2.54817 -7.73443,5.26671c0.85681,1.51896 1.62466,3.096 2.27345,4.75808c0.11259,0.08243 0.1748,0.13908 0.1748,0.13908c2.70924,2.48511 4.50073,4.86676 6.59935,7.84738l0.71186,1.82044c0,0 0.827,2.59752 -1.77048,3.42454c-2.59749,0.82704 -3.42454,-1.77048 -3.42454,-1.77048l0.02535,-0.33574c-1.02853,-1.46083 -1.94074,-2.74679 -2.95617,-3.97245c-0.77446,3.49438 -1.62269,6.9018 -3.13851,10.31234c-2.70053,6.07613 -7.7323,11.54045 -9.85,17.79406c-1.38595,4.09273 -0.53628,7.60375 -0.65341,11.20948c0.18791,0.12 0.29585,0.21386 0.29585,0.21386c0.7927,0.68931 1.58536,1.37864 2.37803,2.06797l0.46731,0.49838c0,0 1.78337,2.06169 -0.27833,3.84506c-2.06171,1.78337 -3.84509,-0.27833 -3.84509,-0.27833l0.07853,0.04893c-0.18935,-0.16466 -0.37867,-0.32931 -0.56802,-0.49394c-0.20494,0.39205 -0.43683,0.78867 -0.69895,1.19054c-2.94151,4.80175 -0.76388,8.16955 3.10279,11.77546l1.83569,1.48367c0,0 0.02083,0.01695 0.05668,0.04955c0.03758,0.0306 0.05746,0.04866 0.05746,0.04866c15.97039,14.58393 33.23125,0.76155 39.32864,-15.78352c1.96917,-9.59568 3.50523,-19.22441 -1.56512,-28.16704c-1.554,-2.7408 -4.05669,-4.84501 -5.56542,-7.57203c-3.52001,-6.36262 -3.42533,-13.68562 -6.49426,-20.3704l-2.1927,-1.2192c-1.21194,-1.97342 -2.65594,-3.60798 -4.26175,-5.01849c-0.67164,1.09148 -1.97502,1.18612 -2.38867,1.1875zM224.41746,152.47012c0.06649,-0.13515 0.1332,-0.26864 0.20011,-0.40049c-0.31601,-0.47726 -0.64061,-0.9494 -0.97227,-1.41765c-1.38722,1.241 -2.62817,2.6604 -3.80414,4.14519c1.58635,-0.59988 3.09712,-1.10072 4.00357,-1.54636l0.3431,-0.04552c0.08499,-0.43787 0.22962,-0.73515 0.22962,-0.73515zM225.64751,158.44005c-3.93495,1.94812 -7.15178,3.74885 -10.91586,4.58198l0.20166,0.87614l-2.7229,0.62677c-0.27683,0.07051 -0.56957,0.09836 -0.87017,0.0766c-1.50158,-0.10869 -2.63076,-1.41408 -2.52207,-2.91569c0.03306,-0.45667 0.17677,-0.87888 0.40303,-1.2423l1.65121,-2.78032l0.04479,0.02658l0.04624,-0.16955c2.96401,-3.82839 5.71179,-7.93733 9.3194,-11.15012c-2.80578,0.72658 -4.69694,2.33174 -7.56003,3.94294c-1.56571,0.88108 -3.2231,3.10272 -4.85252,2.34587c-4.02513,-1.86963 -2.03189,-6.86835 -0.88962,-9.22317c3.40794,-7.02566 9.43992,-10.38003 16.85629,-11.55237l1.1423,-0.14488c0,0 0.5063,-0.06371 1.10839,0.0831c1.16795,-0.51385 2.40303,0.1365 2.40303,0.1365c7.25507,3.82041 14.34604,6.7274 19.46062,12.94334c1.31986,-0.10614 2.27451,0.99751 2.27451,0.99751l1.08723,1.33783c4.04872,7.14812 3.67406,15.4256 7.45542,22.24846c2.0499,3.69868 5.23406,6.41588 6.96731,10.43c4.18199,9.68534 2.75221,19.45014 0.64909,29.46686c-7.37785,20.31645 -29.10349,35.60801 -48.1852,18.37193l-2.08446,-1.70554c-5.79375,-5.55077 -8.1992,-11.35669 -3.96337,-18.64768c3.68258,-5.27882 0.21819,-11.06259 2.26917,-17.13914c3.79273,-11.23688 10.81838,-19.71044 13.70464,-31.55263c-0.15831,-0.41145 -0.32562,-0.81702 -0.50125,-1.21727c-0.58337,0.72961 -1.47384,0.90817 -1.97682,0.94829zM226.31409,136.97253c-0.37141,0.13973 -0.65441,0.17532 -0.65441,0.17532l-0.98353,0.12253c-4.50941,0.69063 -6.51164,2.38066 -8.24449,4.46246c1.98291,-0.63554 4.00935,-1.0115 5.71164,-1.16316c0,0 2.71718,-0.21889 2.93609,2.4983c0.01253,0.15566 0.01544,0.30316 0.00978,0.44287c0.94584,1.21064 1.86917,2.42492 2.75038,3.66053c2.10367,-2.38351 4.63879,-3.94097 8.09194,-5.24616c-3.05856,-1.78201 -6.3692,-3.26156 -9.61737,-4.95266z" fill="#000000" stroke-width="0.5"/><path d="M223.55944,184.64034c-0.13841,-0.93239 0.3532,-1.75819 0.3532,-1.75819c0.6657,-0.97497 0.99651,-2.29837 1.9971,-2.92492c4.13939,-2.59202 10.56671,-0.00134 13.51871,3.14959c1.19168,1.27198 1.54761,3.15615 2.64338,4.51162c0.24382,0.30161 0.75351,0.35029 1.13238,0.26738c2.24511,-0.4913 4.42275,-1.73993 6.71443,-1.56638c5.78596,0.43819 12.73844,3.59366 12.42407,10.28033c-0.15851,3.37146 -2.07303,6.43298 -3.63211,9.29067c-1.31195,1.77018 -2.46388,3.66313 -3.87684,5.35379c-2.19443,2.62573 -5.11286,4.39196 -7.49183,6.86436c-2.73732,2.84483 -5.18076,5.58967 -9.16721,6.65573c-6.15186,1.64514 -14.10679,-0.2269 -16.72033,-6.58419c-1.55638,-3.78582 -0.82831,-7.50767 1.95412,-10.53651c2.04006,-2.22071 6.59215,-2.11197 3.64715,-5.07558c-4.79617,-4.17239 -5.15249,-9.24354 -4.31987,-15.30581z" fill="#000000" stroke-width="0.5"/><path d="M227.3531,187.51979l2.212,-2.9392l4.02346,6.31696l4.29591,4.31039l-1.98768,2.71488l-6.70892,-5.31096z" fill="#904f1d" stroke-width="0"/><path d="M253.36946,200.74507l-8.55121,-0.30449l0.24619,-3.35572l6.06519,-0.4977l7.15838,-2.20225l-0.22078,3.67193z" data-paper-data="{&quot;index&quot;:null}" fill="#904f1d" stroke-width="0"/></g></g></svg>