<svg version="1.1" xmlns="http://www.w3.org/2000/svg" xmlns:xlink="http://www.w3.org/1999/xlink" width="40.92324" height="44.02605" viewBox="0,0,40.92324,44.02605"><g transform="translate(-218.81756,-158.13992)"><g data-paper-data="{&quot;isPaintingLayer&quot;:true}" fill="#87a3ad" fill-rule="nonzero" stroke="#000000" stroke-width="2" stroke-linecap="round" stroke-linejoin="miter" stroke-miterlimit="10" stroke-dasharray="" stroke-dashoffset="0" style="mix-blend-mode: normal"><path d="M219.82059,174.85019c0,0 0.20915,-1.18395 1.20195,-1.15532c0.49133,0.01417 15.92983,0.01792 16.36885,-0.27058c0.42096,-0.27663 -8.34525,-5.92778 -8.34525,-5.92778c0,0 0.43272,-1.75926 1.82555,-3.27281c1.8337,-1.99264 4.84135,-3.95156 5.8385,-4.8121c0.91762,-0.79193 2.09631,-0.33839 2.09631,-0.33839c0,0 18.41654,14.42786 19.9343,16.06284c1.16939,1.2597 1.43112,5.8567 1.43858,6.0059c0.009,0.17997 -0.86623,5.07683 -2.19977,6.30473c-5.6829,5.23275 -20.64386,13.60941 -20.64386,13.60941c0,0 -1.57621,-0.65536 -2.34868,-1.53818c-0.87532,-1.00037 -3.00591,-3.19907 -4.23174,-4.93809c-0.68739,-0.97516 -0.90697,-2.08076 -0.90697,-2.08076c0,0 8.81368,-4.57869 7.69916,-5.29249c-0.29438,-0.18854 -15.5284,0.06843 -15.85206,0.07089c-0.50562,0.00386 -1.47374,-0.79505 -1.47374,-0.79505z"/></g></g></svg>