<svg version="1.1" xmlns="http://www.w3.org/2000/svg" xmlns:xlink="http://www.w3.org/1999/xlink" width="84.02381" height="78.04439" viewBox="0,0,84.02381,78.04439"><g transform="translate(-197.46117,-142.94564)"><g data-paper-data="{&quot;isPaintingLayer&quot;:true}" fill="#ffffff" fill-rule="nonzero" stroke="#ff0000" stroke-width="0.5" stroke-linecap="butt" stroke-linejoin="miter" stroke-miterlimit="10" stroke-dasharray="" stroke-dashoffset="0" style="mix-blend-mode: normal"><path d="M204.95611,151.05509c-0.21016,-0.65759 0.15255,-1.36104 0.81015,-1.5712c0.65759,-0.21016 1.36104,0.15255 1.5712,0.81015c0.21016,0.65759 -0.15255,1.36104 -0.81015,1.5712c-0.65759,0.21016 -1.36104,-0.15255 -1.5712,-0.81015z"/><path d="M197.93366,158.09858c-0.1261,-0.39456 0.09153,-0.81662 0.48609,-0.94272c0.39456,-0.1261 0.81662,0.09153 0.94272,0.48609c0.1261,0.39456 -0.09153,0.81662 -0.48609,0.94272c-0.39456,0.1261 -0.81662,-0.09153 -0.94272,-0.48609z"/><path d="M198.3807,146.35763c-0.1261,-0.39456 0.09153,-0.81662 0.48609,-0.94272c0.39456,-0.1261 0.81662,0.09153 0.94272,0.48609c0.1261,0.39456 -0.09153,0.81662 -0.48609,0.94272c-0.39456,0.1261 -0.81662,-0.09153 -0.94272,-0.48609z"/><path d="M207.97061,155.09086c-0.1261,-0.39456 0.09153,-0.81662 0.48609,-0.94272c0.39456,-0.1261 0.81662,0.09153 0.94272,0.48609c0.1261,0.39456 -0.09153,0.81662 -0.48609,0.94272c-0.39456,0.1261 -0.81662,-0.09153 -0.94272,-0.48609z"/><path d="M228.8364,146.30412c0.14445,-0.38822 0.57625,-0.58582 0.96447,-0.44137c0.38822,0.14445 0.58582,0.57625 0.44137,0.96447c-0.14445,0.38822 -0.57625,0.58582 -0.96447,0.44137c-0.38822,-0.14445 -0.58582,-0.57625 -0.44137,-0.96447z"/><path d="M218.10868,153.28708c0.14445,-0.38822 0.57625,-0.58582 0.96447,-0.44137c0.38822,0.14445 0.58582,0.57625 0.44137,0.96447c-0.14445,0.38822 -0.57625,0.58582 -0.96447,0.44137c-0.38822,-0.14445 -0.58582,-0.57625 -0.44137,-0.96447z"/><path d="M247.19308,143.61329c0.18365,-0.37128 0.6335,-0.52338 1.00478,-0.33973c0.37128,0.18365 0.52338,0.6335 0.33973,1.00478c-0.18365,0.37128 -0.6335,0.52338 -1.00478,0.33973c-0.37128,-0.18365 -0.52338,-0.6335 -0.33973,-1.00478z"/><path d="M238.86748,148.84528c0.18365,-0.37128 0.6335,-0.52338 1.00478,-0.33973c0.37128,0.18365 0.52338,0.6335 0.33973,1.00478c-0.18365,0.37128 -0.6335,0.52338 -1.00478,0.33973c-0.37128,-0.18365 -0.52338,-0.6335 -0.33973,-1.00478z"/><path d="M247.45161,149.26628c0.30608,-0.6188 1.05584,-0.8723 1.67463,-0.56621c0.6188,0.30608 0.8723,1.05584 0.56621,1.67463c-0.30608,0.6188 -1.05584,0.8723 -1.67463,0.56621c-0.6188,-0.30608 -0.8723,-1.05584 -0.56621,-1.67463z"/><path d="M258.85403,156.53334c0,-0.41422 0.33578,-0.75 0.75,-0.75c0.41422,0 0.75,0.33578 0.75,0.75c0,0.41422 -0.33578,0.75 -0.75,0.75c-0.41422,0 -0.75,-0.33578 -0.75,-0.75z"/><path d="M262.85403,147.20001c0,-0.41422 0.33578,-0.75 0.75,-0.75c0.41422,0 0.75,0.33578 0.75,0.75c0,0.41422 -0.33578,0.75 -0.75,0.75c-0.41422,0 -0.75,-0.33578 -0.75,-0.75z"/><path d="M267.23498,164.15239c0,-0.41422 0.33578,-0.75 0.75,-0.75c0.41422,0 0.75,0.33578 0.75,0.75c0,0.41422 -0.33578,0.75 -0.75,0.75c-0.41422,0 -0.75,-0.33578 -0.75,-0.75z"/><path d="M276.75879,167.58096c0,-0.41422 0.33578,-0.75 0.75,-0.75c0.41422,0 0.75,0.33578 0.75,0.75c0,0.41422 -0.33578,0.75 -0.75,0.75c-0.41422,0 -0.75,-0.33578 -0.75,-0.75z"/><path d="M269.90165,191.58096c0,-0.41422 0.33578,-0.75 0.75,-0.75c0.41422,0 0.75,0.33578 0.75,0.75c0,0.41422 -0.33578,0.75 -0.75,0.75c-0.41422,0 -0.75,-0.33578 -0.75,-0.75z"/><path d="M274.65164,203.95001c-0.75,0 -0.75,-0.75 -0.75,-0.75l0.05364,0.08807c-0.12698,-0.31746 -0.25397,-0.63492 -0.38095,-0.95238c0,0 -0.27854,-0.69636 0.41781,-0.9749c0.69636,-0.27854 0.9749,0.41781 0.9749,0.41781c0.12698,0.31746 0.25397,0.63492 0.38095,0.95238l0.05364,0.46902c0,0 0,0.75 -0.75,0.75z"/><path d="M256.94926,204.53334c0,-0.41421 0.33579,-0.75 0.75,-0.75c0.41421,0 0.75,0.33579 0.75,0.75c0,0.41421 -0.33579,0.75 -0.75,0.75c-0.41421,0 -0.75,-0.33579 -0.75,-0.75z"/><path d="M247.99689,215.77144c0,-0.41421 0.33579,-0.75 0.75,-0.75c0.41421,0 0.75,0.33579 0.75,0.75c0,0.41421 -0.33579,0.75 -0.75,0.75c-0.41421,0 -0.75,-0.33579 -0.75,-0.75z"/><path d="M242.2826,208.72382c0,-0.41421 0.33579,-0.75 0.75,-0.75c0.41421,0 0.75,0.33579 0.75,0.75c0,0.41421 -0.33579,0.75 -0.75,0.75c-0.41421,0 -0.75,-0.33579 -0.75,-0.75z"/><path d="M219.91699,219.84959c0.07749,-0.4069 0.47017,-0.67394 0.87707,-0.59645c0.4069,0.07749 0.67394,0.47017 0.59645,0.87707c-0.07749,0.4069 -0.47017,0.67394 -0.87707,0.59645c-0.4069,-0.07749 -0.67394,-0.47017 -0.59645,-0.87707z"/><path d="M219.01658,207.26856c0.07749,-0.4069 0.47017,-0.67394 0.87707,-0.59645c0.4069,0.07749 0.67394,0.47017 0.59645,0.87707c-0.07749,0.4069 -0.47017,0.67394 -0.87707,0.59645c-0.4069,-0.07749 -0.67394,-0.47017 -0.59645,-0.87707z"/><path d="M212.92221,210.76155c0.07749,-0.4069 0.47017,-0.67394 0.87707,-0.59645c0.4069,0.07749 0.67394,0.47017 0.59645,0.87707c-0.07749,0.4069 -0.47017,0.67394 -0.87707,0.59645c-0.4069,-0.07749 -0.67394,-0.47017 -0.59645,-0.87707z"/><path d="M223.09714,200.09578c0.07749,-0.4069 0.47017,-0.67394 0.87707,-0.59645c0.4069,0.07749 0.67394,0.47017 0.59645,0.87707c-0.07749,0.4069 -0.47017,0.67394 -0.87707,0.59645c-0.4069,-0.07749 -0.67394,-0.47017 -0.59645,-0.87707z"/><path d="M197.71117,177.86668c0,-0.41421 0.33579,-0.75 0.75,-0.75c0.41421,0 0.75,0.33579 0.75,0.75c0,0.41421 -0.33579,0.75 -0.75,0.75c-0.41421,0 -0.75,-0.33579 -0.75,-0.75z"/><path d="M206.0516,215.65792c0.12915,-0.67817 0.7836,-1.12324 1.46178,-0.99409c0.67817,0.12915 1.12324,0.7836 0.99409,1.46178c-0.12915,0.67817 -0.7836,1.12324 -1.46178,0.99409c-0.67817,-0.12915 -1.12324,-0.7836 -0.99409,-1.46178z"/><path d="M239.68736,215.39048c0,-0.69036 0.55964,-1.25 1.25,-1.25c0.69036,0 1.25,0.55964 1.25,1.25c0,0.69036 -0.55964,1.25 -1.25,1.25c-0.69036,0 -1.25,-0.55964 -1.25,-1.25z"/><path d="M263.11593,209.10477c0,-0.69036 0.55964,-1.25 1.25,-1.25c0.69036,0 1.25,0.55964 1.25,1.25c0,0.69036 -0.55964,1.25 -1.25,1.25c-0.69036,0 -1.25,-0.55964 -1.25,-1.25z"/><path d="M278.73498,195.58096c0,-0.69036 0.55964,-1.25 1.25,-1.25c0.69036,0 1.25,0.55964 1.25,1.25c0,0.69036 -0.55964,1.25 -1.25,1.25c-0.69036,0 -1.25,-0.55964 -1.25,-1.25z"/></g></g></svg>