<svg version="1.1" xmlns="http://www.w3.org/2000/svg" xmlns:xlink="http://www.w3.org/1999/xlink" width="61.90164" height="78.21705" viewBox="0,0,61.90164,78.21705"><g transform="translate(-209.0492,-140.89148)"><g data-paper-data="{&quot;isPaintingLayer&quot;:true}" fill-rule="nonzero" stroke="none" stroke-linecap="butt" stroke-linejoin="miter" stroke-miterlimit="10" stroke-dasharray="" stroke-dashoffset="0" style="mix-blend-mode: normal"><path d="M223.5112,182.69308l-1.14722,-2.2057c-2.44644,-3.07909 -3.76703,-7.15641 -5.58472,-10.66763c-0.01278,-0.02467 -0.02611,-0.05047 -0.04011,-0.0769c1.98965,0.58517 4.95683,0.34681 6.09982,-2.70175c0.30877,-0.82351 -0.81689,-3.72388 -2.05523,-6.28373c2.60688,2.47132 5.73677,5.02564 8.73516,4.54793c7.59128,-1.20946 3.46497,-13.376 0.14234,-18.80242c0.2257,0.27807 0.45427,0.52239 0.63463,0.64609c1.1645,0.79851 2.27027,1.72272 3.19057,2.79355c3.58886,3.58966 7.43841,12.02987 11.71286,14.28813c5.17881,2.73609 5.13484,0.98795 7.07383,-2.55632c0.38529,-0.70428 0.81675,-1.39627 1.09689,-2.14709c0.29083,2.76608 1.84107,6.49787 3.16006,9.54675l-1.61721,0.01502c0,0 -2.16592,-0.14157 -2.16592,2.21238c0,2.35395 2.366,2.3745 2.366,2.3745l0.74528,-0.24799c5.33796,2.66898 7.35231,6.88862 9.44492,12.51412c1.4699,4.10223 1.10405,4.76967 0.93791,8.74938c-0.79177,18.9654 -19.54469,19.77594 -34.40212,19.84498c-3.89012,-0.77803 -7.89473,-0.58573 -11.65695,-2.06446c-2.99561,-1.1774 -3.83896,-4.65477 -4.8666,-7.27142c-3.42114,-8.71117 0.1342,-14.64515 3.08509,-22.13742c0.0863,0.11563 0.40267,0.19604 0.48169,0.2993l0.65018,1.39719c0,0 0.82478,2.16323 2.9302,1.11052c2.10544,-1.05271 1.04866,-3.17699 1.04866,-3.17699z" data-paper-data="{&quot;noHover&quot;:false,&quot;origItem&quot;:[&quot;Path&quot;,{&quot;applyMatrix&quot;:true,&quot;segments&quot;:[[[479.76778,377.989],[1.78885,-0.89443],[-1.78885,0.89443]],[477.0845,377.09457],[[476.53092,375.90058],[0,0],[-0.06713,-0.08774]],[[476.3201,375.62142],[0.07332,0.09824],[-2.50719,6.3657]],[[473.67051,394.37128],[-2.90673,-7.40132],[0.87312,2.2232]],[[477.78741,400.53504],[-2.54518,-1.00036],[3.19653,1.25637]],[[487.66232,402.27674],[-3.30518,-0.66104],[12.6234,-0.05867]],[[516.77998,385.46514],[-0.67271,16.11368],[0.14116,-3.3813]],[[515.97323,378.05801],[1.24889,3.4854],[-1.77798,-4.77962]],[[507.95509,367.4878],[4.53532,2.26766],[0,0]],[507.32207,367.69894],[[505.32207,365.69894],[0,2],[0,-2]],[507.32207,363.69894],[[508.53506,363.80469],[0,0],[-1.12066,-2.59044]],[[505.87884,355.72078],[0.24709,2.35016],[-0.23801,0.63791]],[[504.94607,357.5445],[0.32736,-0.59838],[-1.64743,3.01135]],[[498.9604,359.72787],[4.4001,2.32467],[-3.63171,-1.91871]],[[489.05965,347.59035],[3.04921,3.0499],[-0.78193,-0.90982]],[[486.35585,345.21505],[0.98939,0.67844],[-0.15325,-0.10509]],[[485.81778,344.66576],[0.19176,0.23627],[2.82302,4.61047]],[[485.72465,360.62737],[6.44981,-1.0276],[-2.54754,0.40588]],[[478.31567,356.75274],[2.2149,2.09971],[1.05215,2.17494]],[[480.07079,362.08162],[0.26233,-0.69967],[-0.97112,2.59015]],[[474.9001,364.3575],[1.69047,0.49719],[0.01192,0.02245]],[[474.93428,364.42265],[-0.01085,-0.02095],[1.54438,2.98328]],[[479.68833,373.44482],[-2.07858,-2.61611],[0,0]],[480.66221,375.30572]],&quot;closed&quot;:true}]}" fill="#9e8d62" stroke-width="0.5"/><path d="M242.77982,176.29678c0.55829,0.1861 0.37218,0.74439 0.37218,0.74439l-0.19234,0.5327c-0.93887,1.55857 -1.86421,3.02485 -2.85045,4.48948c1.6004,-1.42223 3.36641,-3.08756 5.04819,-1.72109c4.28064,3.47801 -1.35828,21.62384 -6.29093,22.857c-15.85322,3.9633 -8.36152,-13.1531 -4.35942,-17.82623c-0.77775,0.23158 -1.53546,0.48141 -2.23383,0.7648l-0.77325,0.04209c0,0 -0.58849,0 -0.58849,-0.58849c0,-0.58849 0.58849,-0.58849 0.58849,-0.58849l0.33612,0.04211c1.85225,-0.73187 4.06365,-1.26231 6.01978,-1.82217c0,0 0.00909,-0.00259 0.02533,-0.00598c1.47932,-2.07002 2.75944,-4.05767 4.0692,-6.24852l0.085,-0.29933c0,0 0.1861,-0.55829 0.74439,-0.37221z" fill="#000000" stroke-width="0.5"/><path d="M238.29479,198.2106c-0.41611,-0.41611 0,-0.83224 0,-0.83224l0.25507,-0.1153c0.5005,-2.41897 2.55197,-4.31828 3.65616,-6.52668c0,0 0.2632,-0.52634 0.78954,-0.26317c0.52634,0.2632 0.2632,0.78954 0.2632,0.78954c-1.03647,2.07294 -3.12393,3.98015 -3.55477,6.23114l-0.57693,0.71671c0,0 -0.41613,0.41611 -0.83226,0z" fill="#583820" stroke-width="0.5"/><path d="M256.52122,202.32076c-0.03352,-0.33836 0.27532,-0.94584 -0.05685,-1.01848c-3.48646,-0.76252 -3.94783,4.03969 -7.88738,1.41329c-4.18233,-2.78821 10.28768,-20.22442 14.25651,-19.60184c0.26044,-0.09927 0.54301,-0.15367 0.83831,-0.15367c0.12219,0 0.24222,0.00932 0.35938,0.02726c-1.77829,-4.15868 -3.91566,-7.32872 -8.28026,-9.51102l-0.74505,0.24851c0,0 -2.35395,0 -2.35395,-2.35395c0,-2.35395 2.35395,-2.35395 2.35395,-2.35395l1.42765,0.12448c-1.31899,-3.04888 -2.83547,-6.74847 -3.12631,-9.51457c-0.28012,0.75079 -0.71256,1.4422 -1.09786,2.14647c-1.93897,3.54427 -1.86619,5.30585 -7.045,2.56976c-4.27442,-2.25826 -8.06409,-10.6959 -11.65295,-14.28556c-0.9203,-1.07084 -2.01781,-1.99716 -3.18231,-2.79567c-0.18038,-0.1237 -0.40759,-0.36842 -0.63328,-0.64651c3.32263,5.42642 7.48166,17.57697 -0.10962,18.78643c-2.99839,0.47771 -6.1133,-2.08904 -8.72019,-4.56033c1.23834,2.55985 2.37448,5.44845 2.06573,6.27196c-1.14298,3.04853 -4.09613,3.26385 -6.08576,2.67865c0.01403,0.02641 0.02745,0.05202 0.04023,0.07667c1.8177,3.51125 3.14897,7.53977 5.59541,10.61888l1.14623,2.19023c0,0 1.05271,2.10542 -1.05271,3.15815c-2.10544,1.05271 -3.15815,-1.05271 -3.15815,-1.05271l-0.65155,-1.40529c-0.07902,-0.10327 -0.16183,-0.21294 -0.24813,-0.32856c-2.95089,7.49227 -6.53965,13.35695 -3.11851,22.06812c1.02764,2.61665 1.84988,6.07719 4.84549,7.25459c3.76223,1.47873 7.7324,1.27191 11.62254,2.04994c10.41218,-0.0484 22.67304,-0.43237 29.35023,-7.18546c-2.53942,-0.20675 -4.40149,-1.94274 -4.69587,-4.9158zM211.36625,169.21506c-0.07368,-1.68376 -0.33927,-3.90229 0.97129,-4.96199c1.09004,-0.88141 2.76728,0.18189 4.16259,0.5815c-0.73519,-1.42407 -0.92586,-3.76653 -0.89784,-6.03946l-0.23961,0.02662l-0.44567,-4.01099c-0.01201,-0.0963 -0.01817,-0.19439 -0.01817,-0.29394c0,-1.30006 1.05389,-2.35395 2.35395,-2.35395c0.55231,0 1.06022,0.19022 1.46176,0.50874l2.00592,1.56018l-0.01309,0.01685l0.06617,0.02568c1.30873,1.14757 2.81311,2.05872 4.11885,3.20968c0.11384,0.10035 4.15912,4.86404 5.03922,3.32291c0.20734,-0.36305 -2.20276,-4.99294 -2.2855,-5.20494c-1.21191,-3.10387 -4.22755,-10.53497 -2.21217,-13.49306c2.72225,-3.99562 9.95422,2.97405 11.5155,4.73226c2.72058,2.71999 5.01408,5.66219 7.34282,8.71875c0.68512,0.89923 1.37734,1.79357 2.03494,2.71312c0.62333,0.87162 1.50104,3.72605 1.76436,2.68732c0.86395,-3.40824 1.20176,-10.06366 7.48912,-8.11355c1.36484,0.42331 1.44151,2.47049 2.07388,3.75196c2.2718,4.60372 3.18631,10.2222 4.9569,15.0913c0,0 0.15098,0.41521 0.14225,0.95128c3.221,3.03445 5.09595,6.94213 6.86596,11.68661c1.54309,4.61904 1.40719,6.04466 1.22106,10.52061c-0.91745,22.06186 -21.81399,24.32742 -39.43774,24.2585c-4.36834,-0.87367 -8.9005,-0.62676 -13.09679,-2.44448c-8.3396,-3.61251 -10.36586,-17.31926 -8.74085,-25.1446c0.94577,-4.55445 4.06826,-8.2788 5.45429,-12.57678c0,0 0.09425,-0.2828 0.31635,-0.61358c-1.96802,-3.19878 -3.87272,-6.89592 -3.96973,-9.11252z" fill="#000000" stroke-width="0.5"/><path d="M260.57926,202.73544c0,0 1.69736,-6.47398 2.09982,-9.08618c0.34427,-2.23453 0.48776,-6.33714 0.48776,-6.33714l1.91162,3.76616c0,0 0.14034,2.00123 -0.20526,3.3774c-0.52347,2.08438 -2.62993,7.91189 -2.62993,7.91189z" fill="#330d0d" stroke-width="0"/><path d="M257.79915,199.05927c0,0 1.11848,-3.65293 1.29112,-5.08096c0.14766,-1.22156 -0.06327,-3.38493 -0.06327,-3.38493l2.20982,1.65382c0,0 0.31044,1.0211 0.08768,1.79512c-0.33739,1.17236 -1.91508,4.55457 -1.91508,4.55457z" fill="#330d0d" stroke-width="0"/></g></g></svg>