<svg version="1.1" xmlns="http://www.w3.org/2000/svg" xmlns:xlink="http://www.w3.org/1999/xlink" width="47.25757" height="43.16659" viewBox="0,0,47.25757,43.16659"><g transform="translate(-216.92814,-157.94315)"><g data-paper-data="{&quot;isPaintingLayer&quot;:true}" fill-rule="nonzero" stroke="#1542b7" stroke-linecap="round" stroke-linejoin="miter" stroke-miterlimit="10" stroke-dasharray="" stroke-dashoffset="0" style="mix-blend-mode: normal"><path d="M246.83734,160.85185c0,0 0.79891,0.96812 0.79505,1.47374c-0.00246,0.32366 -0.25943,15.55768 -0.07089,15.85206c0.7138,1.11452 5.29249,-7.69916 5.29249,-7.69916c0,0 1.1056,0.21958 2.08076,0.90697c1.73902,1.22583 3.93772,3.35642 4.93809,4.23174c0.88282,0.77247 1.53818,2.34868 1.53818,2.34868c0,0 -8.37666,14.96096 -13.60941,20.64386c-1.2279,1.33354 -6.12476,2.20877 -6.30473,2.19977c-0.1492,-0.00746 -4.7462,-0.26919 -6.0059,-1.43858c-1.63498,-1.51776 -16.06284,-19.9343 -16.06284,-19.9343c0,0 -0.45354,-1.17869 0.33839,-2.09631c0.86054,-0.99715 2.81946,-4.0048 4.8121,-5.8385c1.51355,-1.39283 3.27281,-1.82555 3.27281,-1.82555c0,0 5.65115,8.76621 5.92778,8.34525c0.2885,-0.43902 0.28475,-15.87752 0.27058,-16.36885c-0.02863,-0.9928 1.15532,-1.20195 1.15532,-1.20195z" data-paper-data="{&quot;index&quot;:null}" fill="#c24b99" stroke-width="5"/><path d="M246.83734,160.85185c0,0 0.79891,0.96812 0.79505,1.47374c-0.00246,0.32366 -0.25943,15.55768 -0.07089,15.85206c0.7138,1.11452 5.29249,-7.69916 5.29249,-7.69916c0,0 1.1056,0.21958 2.08076,0.90697c1.73902,1.22583 3.93772,3.35642 4.93809,4.23174c0.88282,0.77247 1.53818,2.34868 1.53818,2.34868c0,0 -8.37666,14.96096 -13.60941,20.64386c-1.2279,1.33354 -6.12476,2.20877 -6.30473,2.19977c-0.1492,-0.00746 -4.7462,-0.26919 -6.0059,-1.43858c-1.63498,-1.51776 -16.06284,-19.9343 -16.06284,-19.9343c0,0 -0.45354,-1.17869 0.33839,-2.09631c0.86054,-0.99715 2.81946,-4.0048 4.8121,-5.8385c1.51355,-1.39283 3.27281,-1.82555 3.27281,-1.82555c0,0 5.65115,8.76621 5.92778,8.34525c0.2885,-0.43902 0.28475,-15.87752 0.27058,-16.36885c-0.02863,-0.9928 1.15532,-1.20195 1.15532,-1.20195z" data-paper-data="{&quot;index&quot;:null}" fill="#00ffff" stroke-width="0.5"/></g></g></svg>