<svg version="1.1" xmlns="http://www.w3.org/2000/svg" xmlns:xlink="http://www.w3.org/1999/xlink" width="107.3546" height="87.85745" viewBox="0,0,107.3546,87.85745"><g transform="translate(-186.3227,-136.07127)"><g data-paper-data="{&quot;isPaintingLayer&quot;:true}" fill-rule="nonzero" stroke="none" stroke-width="0.5" stroke-linecap="butt" stroke-linejoin="miter" stroke-miterlimit="10" stroke-dasharray="" stroke-dashoffset="0" style="mix-blend-mode: normal"><g><path d="M217.31408,199.85613c-0.557,-1.29249 -1.08733,-2.59689 -1.60336,-3.88539c-0.008,-0.0689 -0.01868,-0.13976 -0.03187,-0.21232c-0.15226,-0.83743 -0.55294,-1.32031 -1.0012,-1.59311c-0.51062,-0.50075 -1.39385,-0.98915 -2.64618,-0.36299c-0.17565,0.08783 -0.32948,0.18287 -0.46378,0.28347c-6.48163,1.04847 -11.32702,0.71377 -16.3599,-4.27581c-1.01426,-1.00553 -2.09978,-2.06571 -2.61785,-3.39665c-0.46905,-1.205 -2.21254,-5.35666 -1.04367,-6.62427c0.58904,-0.6388 1.67729,-0.61622 2.30606,-1.21596c0.84086,-0.80204 1.38051,-1.87635 1.97725,-2.87345c1.31275,-2.19351 1.55487,-3.30007 3.67281,-4.6902c3.74974,-0.26152 7.04544,0.58012 10.32148,2.6241c2.10075,1.3107 4.34531,5.13516 7.36208,4.52458c1.78884,-0.36205 3.79753,-1.34016 4.43972,-3.04855c1.06281,-2.82736 -2.5954,-4.57109 -3.87964,-6.0484c-2.39745,-2.75786 -5.66359,-6.86748 -7.21005,-10.15904c-0.65399,-1.39197 -0.72198,-2.9977 -1.20655,-4.45731l-0.02505,-0.21796c0.4072,-0.64931 0.40812,-1.38283 0.40812,-1.38283c0,-3.34092 -0.27724,-6.7308 0.42225,-10.00017c0.10576,-0.49434 -0.01844,-1.09341 0.29694,-1.4885c0.18287,-0.22909 0.60262,-0.08077 0.87975,0.01475c1.55419,0.53568 4.31969,2.09496 6.09743,2.32342c1.26952,0.16315 2.59528,0.2379 3.84298,-0.04766c2.17566,-0.49795 3.76357,-2.93801 6.22477,-2.32712c5.48072,1.36037 6.08755,6.27986 7.60457,10.83091c1.02288,4.52965 3.05155,8.64938 5.78745,12.38613c2.00198,2.73433 2.60854,5.85886 7.19584,2.33733c2.08625,-1.60155 1.35274,-4.65474 1.53966,-6.73574c0.27316,-3.04115 0.92336,-6.7786 2.13726,-9.61069c0.3543,-0.82659 0.96763,-2.02362 2.03777,-2.16291c1.50158,-0.19546 3.03329,0.22916 4.51849,0.52429c1.01061,0.20082 1.97862,0.57663 2.9436,0.94855c-0.4703,0.99438 -0.70143,2.12846 -0.6024,3.19402c0.0999,1.07495 1.33251,1.71273 1.88911,2.63776c0.45712,0.7597 1.17044,2.63663 1.20639,3.57671c0.09705,2.53756 -0.56323,4.34326 -1.52813,6.54346c-0.58619,1.33665 -1.94135,2.71734 -1.5196,4.11462c0.3352,1.11051 6.37922,5.15118 7.83817,4.41393c3.31423,-1.67477 0.78104,-5.74498 2.78459,-7.80138c0.63277,-0.64946 1.78958,0.63421 2.62356,0.99011c1.44249,0.61558 2.80635,1.75708 4.35785,1.52779c4.80957,-0.71079 3.91559,-4.64803 4.96014,-7.81704c2.55809,-4.4009 4.63265,1.27002 5.3379,3.74849c0.24845,0.87316 1.16691,2.31612 0.63115,3.38525c-1.85248,3.6967 -8.45065,5.83244 -11.87935,7.05046c-2.71549,0.96466 -4.65511,1.15115 -5.49495,4.73845c-0.11226,0.47948 1.38841,5.10044 1.60787,5.93515c0.7996,3.04124 1.22317,5.96463 1.2323,9.10611c-0.01511,0.08455 -0.03084,0.16789 -0.04687,0.24968c-0.27464,-0.05474 -0.46686,-0.05454 -0.46686,-0.05454l-1.32964,0.01247c-1.10988,-0.10407 -3.01666,-0.17054 -4.08741,-0.80096c-5.99451,-3.52934 -4.73447,-10.73231 -5.34769,-16.39762c-0.12957,-1.197 0.13182,-2.52079 -0.44367,-3.57834c-3.36144,-6.17717 -8.36189,-2.33929 -12.09836,0.85187c-1.2531,1.45401 -3.83465,6.03361 -5.7833,6.4623c-1.51764,0.33388 -3.12672,-0.16175 -4.67879,-0.08584c-3.13379,0.15327 -5.95071,0.83465 -8.86552,1.97521c-7.17142,2.80616 -12.08979,8.94251 -14.22366,16.04138z" data-paper-data="{&quot;noHover&quot;:false,&quot;origItem&quot;:[&quot;Path&quot;,{&quot;applyMatrix&quot;:true,&quot;segments&quot;:[[[677.06919,248.25167],[-15.16754,5.93502],[6.16481,-2.41227]],[[695.7636,244.05767],[-6.62797,0.32417],[3.28264,-0.16055]],[[705.62148,244.24711],[-3.20981,0.70615],[4.12138,-0.90669]],[[717.80142,230.62934],[-2.6503,3.07522],[7.90264,-6.74931]],[[743.57858,228.8874],[-7.10945,-13.06471],[1.21716,2.23672]],[[744.51345,236.46932],[-0.27403,-2.53166],[1.29696,11.98214]],[[755.80528,271.18339],[-12.67838,-7.46456],[2.26464,1.33334]],[[764.29422,272.75228],[-2.3474,-0.22011],[0,0]],[767.10525,272.72747],[[768.09233,272.84325],[-0.58086,-0.11578],[0.0339,-0.17299]],[[768.19113,272.31561],[-0.03196,0.17883],[-0.01931,-6.64423]],[[765.57557,253.07201],[1.69115,6.43223],[-0.46416,-1.76542]],[[762.16981,240.53249],[-0.23742,1.01411],[1.77625,-7.58713]],[[773.78815,230.52676],[-5.74325,2.04025],[7.25171,-2.57612]],[[798.91222,215.63251],[-3.918,7.81851],[1.13313,-2.26121]],[[797.57789,208.4797],[0.52548,1.84674],[-1.49159,-5.24195]],[[786.48531,200.51898],[5.41036,-9.30789],[-2.20923,6.70245]],[[775.9968,217.06925],[10.17223,-1.50332],[-3.28141,0.48495]],[[766.58045,213.85091],[3.05086,1.30195],[-1.76387,-0.75273]],[[761.23038,211.73498],[1.3383,-1.3736],[-4.23751,4.34929]],[[755.34093,228.26101],[7.0096,-3.54214],[-3.08568,1.55928]],[[738.56413,218.91543],[0.70894,2.34872],[-0.89201,-2.95524]],[[741.7803,210.23107],[-1.23979,2.82702],[2.04076,-4.65342]],[[745.01992,196.41385],[0.20526,5.36694],[-0.07604,-1.98827]],[[742.47536,188.8613],[0.96681,1.60677],[-1.17721,-1.95645]],[[738.48722,183.29206],[0.21129,2.27352],[-0.20945,-2.25364]],[[739.76597,176.54179],[-0.99468,2.10311],[-2.04093,-0.78661]],[[733.54742,174.54219],[2.13744,0.42474],[-3.1412,-0.6242]],[[724.00277,173.44187],[3.17583,-0.41339],[-2.26334,0.29461]],[[719.79466,177.84428],[0.74934,-1.74824],[-2.56739,5.98985]],[[715.29141,198.1832],[0.57774,-6.43203],[-0.39534,4.40132]],[[712.05872,212.46114],[4.41241,-3.38727],[-9.70214,7.44803]],[[696.73907,207.65976],[4.23418,5.78311],[-5.78643,-7.90321]],[[684.53571,181.45986],[2.16338,9.58021],[-3.20849,-9.62548]],[[668.46502,158.54786],[11.59172,2.87718],[-5.20543,-1.29204]],[[655.31727,163.45975],[4.60151,-1.05317],[-2.63888,0.60397]],[[647.19648,163.55504],[2.68504,0.34506],[-3.75993,-0.4832]],[[634.30604,158.63584],[3.2871,1.13296],[-0.58613,-0.20202]],[[632.44641,158.6036],[0.38678,-0.48453],[-0.66703,0.83561]],[[631.82052,161.74951],[0.22369,-1.04553],[-1.47941,6.91472]],[[630.94038,182.88232],[0,-7.06605],[0,0]],[[630.07915,185.80349],[0.86123,-1.37329],[0,0]],[[630.13237,186.26401],[0,0],[1.02488,3.08708]],[[632.68864,195.68152],[-1.38318,-2.94402],[3.27076,6.96165]],[[647.94455,217.13799],[-5.07061,-5.83288],[2.71616,3.12449]],[[656.14733,229.89998],[2.24785,-5.97987],[-1.35823,3.61325]],[[646.56523,236.40281],[3.78339,-0.76573],[-6.38047,1.29136]],[[630.98991,226.81209],[4.44309,2.77212],[-6.92882,-4.323]],[[609.35946,221.25087],[7.9307,-0.55312],[-4.47944,2.94011]],[[601.59081,231.16025],[2.77647,-4.63927],[-1.2621,2.10887]],[[597.40814,237.23209],[1.77841,-1.69631],[-1.32984,1.26844]],[[592.53054,239.80224],[1.24581,-1.35106],[-2.47214,2.681]],[[594.73454,253.79962],[-0.99204,-2.54857],[1.09572,2.81495]],[[600.26836,260.97581],[-2.14515,-2.1267],[10.64454,10.55297]],[[634.85491,269.99505],[-13.70865,2.21751],[0.28405,-0.21277]],[[635.83567,269.39535],[-0.3715,0.18575],[2.64868,-1.32434]],[[641.42863,270.15882],[-1.07997,-1.05908],[0.94807,0.57698]],[[643.54251,273.52449],[-0.32203,-1.77116],[0.0279,0.15345]],[[643.60957,273.9732],[-0.01691,-0.14572],[1.0914,2.72518]],[[646.99286,282.18398],[-1.17806,-2.73361],[4.51314,-15.01409]]],&quot;closed&quot;:true}]}" fill="#225f8d"/><path d="M236.31527,209.93528c3.11571,1.31188 5.27253,3.89488 8.74277,4.67522c2.57924,0.57999 5.73311,-1.50674 8.70456,-0.76388c0.96314,0.24078 3.63495,2.99946 4.65167,5.06183c0.98725,-0.16817 1.93326,-0.4309 2.79608,-0.83648c2.46927,-1.16072 5.68944,-4.53657 7.02536,-6.83504c0.66718,-1.1479 1.10166,-2.48875 1.47396,-3.88018c-1.71006,2.25476 -3.87972,4.00484 -6.59863,3.40064c-0.62795,-0.13955 -5.51994,-2.8148 -5.92409,-3.25936c-0.43681,-0.4805 -0.05256,-1.48272 -0.29551,-1.97693c-0.6462,-1.3145 -3.00261,-2.0155 -2.90237,-3.74816c0.13387,-2.31398 2.1697,-5.21176 3.61549,-6.89851c0.36895,-0.43044 1.59907,-1.51599 2.95238,-2.38062c-1.04493,-1.74038 -1.74435,-3.73596 -1.99283,-5.91892c-0.30903,-2.71491 -0.07921,-5.6433 -0.26513,-8.38701c-0.06552,-0.96695 0.61614,-2.82103 -0.35083,-2.88626c-0.90326,-0.06093 -3.51446,2.42641 -4.22697,3.04027c-1.62664,1.90983 -3.23135,4.5868 -5.33603,6.28185c0.16065,1.3436 0.01993,2.80509 0.0338,3.58234c0.07726,4.33193 1.14468,12.27552 -2.5571,15.64077c-1.69912,1.54465 -5.48456,-1.73154 -6.27951,-1.42797c-1.21519,0.46405 -1.24275,1.92368 -2.88325,2.28823c-1.63996,0.36444 -6.94195,-2.59488 -7.59944,-4.09259c-0.40043,-0.91215 0.22456,-2.02043 0.0133,-2.51288c-0.82388,-1.92049 -3.35514,-2.418 -4.27908,-4.08377c-2.45064,3.24962 -3.97066,7.24284 -4.32222,11.52803c0,0 -0.02422,0.29066 -0.15774,0.65928c0.61547,1.00013 1.2777,1.96671 1.9984,2.88707c1.19001,1.51966 2.80758,2.81539 4.55531,3.99233c2.47519,-1.65348 5.90387,-4.62456 9.40763,-3.14929zM261.01132,198.19008c-3.34577,4.78531 -0.79992,3.87826 2.46407,4.77386c0.82414,0.22613 0.73613,2.17941 1.57613,2.0221c1.97829,-0.37051 2.94831,-3.455 3.97392,-5.94485c-1.90934,-0.57855 -3.67106,-1.51915 -5.18639,-2.7583c-0.10492,0.01424 -0.21203,0.02159 -0.32086,0.02159c-0.08057,0 -0.1602,-0.00403 -0.2387,-0.0119c-0.78494,0.44393 -1.57297,0.90319 -2.26818,1.89751zM229.61254,191.29203c-0.06896,0.09243 -0.33743,0.65211 -0.24594,0.82764c1.03795,1.99139 4.63411,2.67761 5.6075,4.62438c0.62491,1.24982 -0.37673,2.01674 0.81923,2.68599c0.34296,0.19191 0.85348,-1.6144 0.93125,-1.99613c0.29008,-1.42381 0.57529,-3.17558 2.24063,-3.59191c1.62774,-0.40694 3.02909,0.72766 3.26595,2.29852c0.07399,0.49072 0.47238,3.36983 0.94507,2.86736c0.49589,-0.52712 0.35459,-3.20293 0.37708,-3.82991c0.11081,-3.08921 0.41612,-5.86108 0.20531,-8.8826c-2.10553,0.06113 -4.43156,-0.35983 -6.39072,-0.00222c-0.92159,0.16822 -1.81433,0.39426 -2.67595,0.67382c-0.26933,0.83435 -0.98982,1.46598 -1.87396,1.60738c-1.01515,0.7463 -2.10611,1.24412 -3.20544,2.71769zM231.11914,183.33065c2.91481,-1.14055 5.70518,-1.82971 8.83897,-1.98298c1.55208,-0.07591 3.1433,0.42345 4.66094,0.08957c1.94864,-0.4287 4.50574,-4.98466 5.75884,-6.43866c3.73647,-3.19116 8.82634,-7.00078 12.18779,-0.82361c0.57549,1.05755 0.31245,2.38783 0.44202,3.58483c0.61322,5.66532 -0.65558,12.88393 5.33893,16.41328c1.07075,0.63042 2.9038,0.63772 4.01368,0.74179l1.32909,-0.01173c0,0 0.19207,0 0.4667,0.05474c0.01603,-0.08179 0.0316,-0.16492 0.04671,-0.24948c-0.00913,-3.14148 -0.43707,-6.05739 -1.23667,-9.09863c-0.21946,-0.83471 -1.72254,-5.44937 -1.61029,-5.92885c0.83983,-3.5873 2.77782,-3.76619 5.49331,-4.73084c3.42871,-1.21802 10.02652,-3.34551 11.879,-7.0422c0.53576,-1.06913 -0.38244,-2.50878 -0.63089,-3.38194c-0.70524,-2.47846 -2.68663,-8.16483 -5.24472,-3.76394c-1.04455,3.16901 -0.14954,7.1144 -4.95911,7.82519c-1.55149,0.22929 -3.00969,-0.90609 -4.45218,-1.52167c-0.83398,-0.3559 -1.89682,-1.6499 -2.52959,-1.00044c-2.00355,2.0564 0.52962,6.13896 -2.78461,7.81373c-1.45895,0.73725 -7.5971,-3.30821 -7.9323,-4.41872c-0.42175,-1.39728 0.93446,-2.76943 1.52065,-4.10608c0.9649,-2.2002 1.62879,-3.99541 1.53174,-6.53297c-0.03595,-0.94008 -0.74598,-2.81124 -1.2031,-3.57095c-0.5566,-0.92504 -1.78575,-1.55826 -1.88565,-2.63321c-0.09903,-1.06555 0.13431,-2.19724 0.60461,-3.19162c-0.96498,-0.37192 -1.9296,-0.74461 -2.94021,-0.94544c-1.4852,-0.29513 -3.01126,-0.7157 -4.51284,-0.52025c-1.07014,0.1393 -1.63535,1.25493 -1.98965,2.08152c-1.2139,2.83208 -1.85603,6.57536 -2.1292,9.61651c-0.18692,2.081 0.55779,5.14926 -1.52846,6.7508c-4.5873,3.52153 -5.24136,0.46418 -7.24334,-2.27016c-2.7359,-3.73674 -4.74704,-7.85801 -5.76991,-12.38767c-1.51702,-4.55106 -2.11772,-9.47273 -7.59844,-10.8331c-2.4612,-0.61089 -4.04078,1.82445 -6.21643,2.32241c-1.2477,0.28557 -2.5701,0.2082 -3.83962,0.04505c-1.77775,-0.22846 -4.54059,-1.79019 -6.09477,-2.32586c-0.27713,-0.09552 -0.69638,-0.24434 -0.87926,-0.01524c-0.31538,0.39509 -0.19017,0.99309 -0.29593,1.48743c-0.69948,3.26937 -0.41614,6.65095 -0.41614,9.99188c0,0 0,0.73186 -0.4072,1.38117l0.02516,0.21774c0.48458,1.45961 0.55465,3.06075 1.20864,4.45273c1.54646,3.29156 4.81575,7.38704 7.2132,10.14491c1.28424,1.4773 4.9412,3.20668 3.87838,6.03404c-0.64219,1.70839 -2.74171,2.71258 -4.53055,3.07463c-3.01677,0.61057 -5.26347,-3.22393 -7.36422,-4.53462c-3.27604,-2.04397 -6.47743,-2.89094 -10.22717,-2.62942c-2.11794,1.39012 -2.36037,2.49178 -3.67312,4.68529c-0.59674,0.9971 -1.13677,2.06881 -1.97762,2.87085c-0.62877,0.59974 -1.71716,0.5764 -2.30619,1.2152c-1.16886,1.26761 0.57303,5.41315 1.04208,6.61815c0.51807,1.33095 1.60221,2.38747 2.61646,3.393c5.03288,4.98959 9.87135,5.31289 16.35299,4.26442c0.1343,-0.1006 0.28807,-0.19572 0.46372,-0.28355c1.25233,-0.62617 2.1338,-0.13977 2.64443,0.36098c0.44826,0.2728 0.84721,0.75391 0.99947,1.59133c0.01319,0.07255 0.02371,0.14326 0.03171,0.21216c0.51603,1.2885 1.04266,2.58968 1.59967,3.88217c2.13387,-7.09886 7.04908,-13.2375 14.22049,-16.04365zM205.20742,141.03587c0.47694,-1.29301 0.70381,-2.87854 1.78984,-3.72699c3.88011,-3.03131 7.08264,0.62095 10.75502,1.30899c2.75627,0.5164 4.06472,-1.82442 6.69148,-2.32552c9.27644,-1.76966 12.51792,7.46322 14.76222,14.19614c0.32996,1.51166 0.86221,2.97942 1.46408,4.40481c0.3505,0.83007 0.61718,1.69565 0.9999,2.51137c0.77155,1.64446 2.33983,2.97628 2.84696,4.69364c-0.01346,-0.14628 -0.02174,-0.27843 -0.02083,-0.37176c0.01899,-1.94768 0.1899,-3.90184 0.53512,-5.81877c0.60129,-3.33877 1.10323,-8.26564 3.82594,-10.67391c4.19857,-3.71368 10.29711,-1.2775 14.89026,0.25355l2.29478,0.76492c0.96601,0.29709 1.6682,1.19654 1.6682,2.25999c0,0.86001 -0.45922,1.61276 -1.14582,2.02642l-1.79489,1.12181c0.00902,0.01577 0.01858,0.03157 0.02869,0.04741c0.28804,0.45122 0.95072,0.5684 1.24301,1.01689c1.74382,2.67574 2.2584,6.40951 1.8161,9.72382c0.08456,-0.07206 0.17327,-0.13975 0.26657,-0.20254c4.2876,-2.8854 5.7104,0.49607 9.18296,1.64943c0.74126,0.2462 0.17289,-1.55464 0.32793,-2.32019c0.20174,-0.99617 0.64685,-1.92713 0.97027,-2.89069c0.75101,-1.06219 1.19931,-2.42372 2.25303,-3.18658c6.22858,-4.5093 10.48922,2.96737 11.79562,7.76572c0.71326,2.61977 1.66782,3.54547 0.412,6.52546c-1.75659,4.16829 -8.3278,7.16048 -12.07506,8.75073c-0.03366,0.01428 -5.00217,1.20636 -4.96784,1.89826c0.07035,1.41774 1.15684,2.60589 1.51837,3.97855c0.94468,3.58678 1.37889,7.01047 1.37054,10.71618c-0.6112,3.32159 -1.69237,5.15562 -3.08373,8.09521c-1.50343,3.17636 -1.71797,7.28908 -3.46377,10.31293c-1.80262,3.12226 -5.84192,7.2554 -9.13936,8.80824c-2.90111,1.3662 -6.39468,1.40191 -9.52686,1.52745c-7.68593,0.30808 -14.34255,-0.79635 -21.79515,-2.24359c-4.4531,-2.6939 -9.9262,-5.50899 -13.25079,-9.59752c-3.22771,-3.96939 -5.36316,-8.88761 -7.28624,-13.65066c-4.49183,0.76973 -8.74971,1.18356 -13.19476,-0.77898c-5.42571,-2.39551 -10.32265,-7.17286 -11.52696,-13.13646c-0.40831,-2.0219 -0.63611,-5.95994 0.63905,-7.85763c0.64721,-0.96317 2.05436,-1.12766 2.90823,-1.91345c0.7509,-0.69103 2.16638,-4.0072 2.52987,-4.55044c1.69021,-2.52601 2.26001,-2.47318 4.85544,-4.05815c5.2878,-0.6252 9.68477,0.23026 14.28064,3.10645c0.14343,0.08976 0.35734,0.25589 0.61253,0.46766c-0.05142,-0.08307 -0.0951,-0.1502 -0.13023,-0.19799c-2.08338,-2.83389 -4.99268,-5.81648 -6.49991,-9.01564c-0.72847,-1.54621 -0.8559,-3.31246 -1.39857,-4.93324l-0.35828,-2.2383c0,0 -0.15469,-1.08286 0.48296,-1.88063c-0.08891,-3.37983 -0.51255,-7.23379 0.64147,-10.36241zM265.41924,168.36637c-0.00466,-0.16024 0.00184,-0.32971 0.01743,-0.50379c-0.37752,0.10254 -0.82516,0.13629 -0.67467,0.37451c0.12703,0.20108 0.38136,0.17939 0.65724,0.12928z" fill="#000000"/><path d="M226.87217,213.11584c-1.74774,-1.17694 -3.37164,-2.48184 -4.56165,-4.00151c-0.7207,-0.92036 -1.38549,-1.89267 -2.00096,-2.8928c0.13352,-0.36862 0.15739,-0.66025 0.15739,-0.66025c0.35156,-4.28519 1.86955,-8.30095 4.32019,-11.55057c0.92394,1.66577 3.54912,2.16747 4.373,4.08796c0.21126,0.49244 -0.41474,1.59351 -0.01432,2.50566c0.65749,1.49771 5.94823,4.43533 7.58819,4.0709c1.6405,-0.36455 1.66698,-1.82533 2.88217,-2.28938c0.79495,-0.30357 4.54076,2.95871 6.23988,1.41406c3.70177,-3.36525 2.62332,-11.21773 2.54605,-15.54966c-0.01386,-0.77725 0.15594,-2.32859 -0.0047,-3.67219c2.10468,-1.69505 3.71699,-4.36926 5.34363,-6.27909c0.71251,-0.61386 3.32794,-3.09897 4.2312,-3.03804c0.96697,0.06522 0.28835,1.92128 0.35388,2.88823c0.18592,2.74371 -0.03373,5.68178 0.2753,8.39668c0.24848,2.18295 0.95591,4.19411 2.00084,5.93449c-1.35331,0.86463 -2.5822,1.95539 -2.95115,2.38582c-1.44579,1.68675 -3.48624,4.61465 -3.62012,6.92863c-0.10024,1.73266 2.2528,2.43917 2.89899,3.75367c0.24295,0.49421 -0.14393,1.4998 0.29288,1.9803c0.40415,0.44456 5.22248,3.06059 5.85042,3.20014c2.71891,0.6042 4.88265,-1.13552 6.5927,-3.39029c-0.3723,1.39143 -0.72273,2.77501 -1.38992,3.92291c-1.33592,2.29847 -4.56759,5.68717 -7.03686,6.84788c-0.86281,0.40558 -1.81297,0.67118 -2.80023,0.83935c-1.01672,-2.06236 -3.6914,-4.81942 -4.65454,-5.0602c-2.97144,-0.74286 -6.14711,1.34922 -8.72635,0.76923c-3.47023,-0.78034 -5.6537,-3.37151 -8.76941,-4.68339c-3.50376,-1.47527 -6.94133,1.48797 -9.41652,3.14145z" data-paper-data="{&quot;noHover&quot;:false,&quot;origItem&quot;:[&quot;Path&quot;,{&quot;applyMatrix&quot;:true,&quot;segments&quot;:[[[688.059,304.52043],[-7.41045,-3.12019],[6.58973,2.77463]],[[706.54994,314.40851],[-7.33954,-1.65041],[5.45509,1.22667]],[[724.96007,312.79291],[-6.2846,-1.57115],[2.03705,0.50926]],[[734.79835,323.49867],[-2.15036,-4.3619],[2.08804,-0.35567]],[[740.71205,321.72951],[-1.82485,0.8578],[5.22251,-2.45492]],[[755.57068,307.2734],[-2.82546,4.86127],[1.41109,-2.42781]],[[758.68811,299.06682],[-0.78742,2.94287],[-3.61677,4.76882]],[[744.73201,306.25917],[5.75049,1.27789],[-1.32811,-0.29514]],[[732.20256,299.36562],[0.85478,0.94025],[-0.92386,-1.01625]],[[731.57756,295.18441],[0.51384,1.04525],[-1.36671,-2.78017]],[[725.43906,287.25705],[-0.21201,3.66458],[0.28314,-4.89407]],[[733.08581,272.6667],[-3.05784,3.56748],[0.78032,-0.91037]],[[739.3301,267.63169],[-2.86225,1.82869],[-2.21002,-3.68091]],[[735.11527,255.11319],[0.52553,4.61694],[-0.65359,-5.74203]],[[734.55452,237.37467],[0.39323,5.80295],[-0.13858,-2.0451]],[[733.81252,231.27024],[2.04514,0.13795],[-1.91039,-0.12886]],[[724.87249,237.7004],[1.50695,-1.29831],[-3.44034,4.03928]],[[713.58679,250.98651],[4.45139,-3.58503],[0.33977,2.84171]],[[713.65827,258.56315],[-0.02932,-1.64388],[0.16341,9.16203]],[[708.25001,291.64337],[7.82925,-7.1175],[-3.59364,3.26694]],[[694.96886,288.62321],[1.68132,-0.64205],[-2.57013,0.98146]],[[688.87078,293.46282],[3.46966,-0.77103],[-3.46851,0.77078]],[[672.79798,284.807],[1.39059,3.16766],[-0.8469,-1.92919]],[[672.82612,279.49227],[0.44681,1.04152],[-1.74251,-4.06184]],[[663.77588,270.8551],[1.95413,3.52311],[-5.1831,6.87294]],[[654.63439,295.23688],[0.74355,-9.06317],[0,0]],[[654.30077,296.63126],[0.2824,-0.77964],[1.30171,2.11527]],[[658.52739,302.7374],[-1.52429,-1.94656],[2.51686,3.21409]],[[668.16187,311.18117],[-3.69646,-2.48922],[5.23503,-3.4971]]],&quot;closed&quot;:true}]}" fill="#225f8d"/><path d="M263.26938,196.24638c0.0785,0.00787 0.16057,0.01143 0.24113,0.01143c0.10883,0 0.21937,-0.00779 0.32429,-0.02202c1.51532,1.23915 3.32614,2.21189 5.23548,2.79044c-1.02561,2.48985 -2.03172,5.63575 -4.01002,6.00626c-0.84,0.15732 -0.77538,-1.79746 -1.59951,-2.02359c-3.26399,-0.8956 -5.83284,-0.06213 -2.48708,-4.84744c0.69521,-0.99432 1.51076,-1.47114 2.2957,-1.91508z" data-paper-data="{&quot;noHover&quot;:false,&quot;origItem&quot;:[&quot;Path&quot;,{&quot;applyMatrix&quot;:true,&quot;segments&quot;:[[[740.29113,279.67935],[1.47036,-2.10299],[-7.07629,10.12092]],[[745.50263,289.77605],[-6.90334,-1.89419],[1.74305,0.47827]],[[748.83614,294.05278],[-1.77659,0.33273],[4.18409,-0.78362]],[[757.24098,281.47943],[-2.16917,5.26602],[-4.03826,-1.22363]],[[746.27178,275.64562],[3.20491,2.6208],[-0.22191,0.03011]],[[745.59317,275.69129],[0.23017,0],[-0.1704,0]],[[745.08833,275.66612],[0.16602,0.01665],[-1.66014,0.93892]]],&quot;closed&quot;:true}]}" fill="#225f8d"/><path d="M232.78648,188.53908c0.88414,-0.14139 1.62149,-0.78272 1.89083,-1.61707c0.86163,-0.27957 1.77462,-0.50758 2.69621,-0.67581c1.95915,-0.35761 4.31459,0.07853 6.42012,0.0174c0.21081,3.02153 -0.08479,5.84046 -0.1956,8.92967c-0.02249,0.62697 0.10847,3.31992 -0.38742,3.84704c-0.47269,0.50246 -0.94615,-2.43319 -1.02014,-2.92391c-0.23686,-1.57086 -1.55427,-2.66229 -3.18201,-2.25535c-1.66534,0.41634 -1.99245,2.19631 -2.28252,3.62012c-0.07777,0.38173 -0.59531,2.18773 -0.93826,1.99581c-1.19596,-0.66925 -0.2066,-1.43935 -0.8315,-2.68917c-0.97339,-1.94677 -4.59871,-2.68115 -5.63666,-4.67254c-0.09149,-0.17553 0.17784,-0.74076 0.2468,-0.83319c1.09932,-1.47357 2.205,-1.99669 3.22015,-2.74299z" data-paper-data="{&quot;noHover&quot;:false,&quot;origItem&quot;:[&quot;Path&quot;,{&quot;applyMatrix&quot;:true,&quot;segments&quot;:[[[673.88275,265.08998],[2.32507,-3.1166],[-0.14584,0.19549]],[[673.36258,266.84043],[-0.1935,-0.37124],[2.19527,4.21178]],[[685.22243,276.62098],[-2.05871,-4.11741],[1.32168,2.64337]],[[686.9551,282.30184],[-2.52946,-1.41546],[0.72535,0.4059]],[[688.92469,278.08003],[-0.16448,0.80735],[0.61351,-3.01136]],[[693.66362,270.48314],[-3.5222,0.88055],[3.44266,-0.86067]],[[700.5711,275.3445],[-0.50095,-3.32236],[0.15649,1.03788]],[[702.56992,281.40897],[-0.99974,1.06271],[1.04881,-1.11486]],[[703.36744,273.30872],[-0.04756,1.32605],[0.23436,-6.53368]],[[703.80167,254.52202],[0.44586,6.39053],[-4.45319,0.12928]],[[690.28531,254.51733],[4.14361,-0.75635],[-1.94916,0.35579]],[[684.62567,255.94246],[1.82234,-0.59128],[-0.56964,1.76465]],[[680.66225,259.34206],[1.86995,-0.29905],[-2.14704,1.57843]]],&quot;closed&quot;:true}]}" fill="#225f8d"/></g></g></g></svg>