<svg version="1.1" xmlns="http://www.w3.org/2000/svg" xmlns:xlink="http://www.w3.org/1999/xlink" width="72.01713" height="74.62882" viewBox="0,0,72.01713,74.62882"><g transform="translate(-223.63095,-139.34299)"><g data-paper-data="{&quot;isPaintingLayer&quot;:true}" fill-rule="nonzero" stroke="none" stroke-width="0.5" stroke-linecap="butt" stroke-linejoin="miter" stroke-miterlimit="10" stroke-dasharray="" stroke-dashoffset="0" style="mix-blend-mode: normal"><path d="M255.93223,153.00223c2.47429,0.07091 4.77696,0.38487 7.1994,0.71255c1.04164,1.13382 2.2321,2.26814 2.72179,2.75783l0.27269,0.40448c0,0 1.50813,2.00427 3.50813,0.50427c2,-1.5 0.44849,-3.41435 0.44849,-3.41435l-0.73394,-0.93846c-0.78655,-0.78655 -1.63519,-1.58481 -2.63608,-2.06463c-0.00531,-0.039 0.0197,-0.17228 0.01276,-0.2098c0.05683,0.00371 0.10751,0.00183 0.14397,-0.00917c0.59189,-0.17861 1.10707,-0.56114 1.68696,-0.77552c0.88026,-0.32543 1.8384,-0.44604 2.69106,-0.83812c0.49768,-0.22885 0.82272,-0.74148 1.30769,-0.99615c0.49944,-0.26226 0.16922,1.12266 0.15142,1.68649c0.3222,2.57757 0.29389,7.01131 1.88473,9.14733c1.98009,2.65866 4.05798,1.57672 5.3319,5.04565c0.81154,2.20985 1.59939,5.13651 1.87246,7.46567c0.11603,0.98967 -0.26912,2.05228 0.052,2.99556c0.48642,1.42882 1.07409,3.02157 2.29349,3.91104c1.31478,0.95905 3.54799,-0.18317 4.80828,0.84644c1.62923,1.33103 1.5698,3.59902 1.56206,5.43175c-0.02006,4.7512 -1.72124,7.93732 -4.86294,11.39996c-7.53791,5.16287 -14.12259,5.18907 -23.00487,4.94454c-5.32042,-0.14647 -11.74253,-0.25331 -16.65847,-2.61672c-5.00031,-2.40398 -10.6059,-5.3658 -14.06709,-9.50898c-1.98875,-2.99081 -5.37067,-7.88461 -5.98699,-11.53833c-0.39589,-2.34692 1.52822,-5.74554 2.80989,-7.44214c2.91477,-3.85842 8.74038,-6.78593 9.8573,-11.63011c0.92028,-3.99136 0.52973,-8.71287 0.32673,-13.06038c3.3376,1.86318 5.87151,5.00601 8.94294,7.3719c-0.02076,0.10831 0.00497,0.30188 -0.02231,0.40632l1.84109,3.1488c0,0 1.77551,1.76418 3.54328,-0.00359c1.32129,-1.32129 0.67045,-2.64357 0.25588,-3.22671c0.80281,0.11345 1.63387,0.06931 2.44631,0.09259z" data-paper-data="{&quot;noHover&quot;:false,&quot;origItem&quot;:[&quot;Path&quot;,{&quot;applyMatrix&quot;:true,&quot;segments&quot;:[[[506.99996,305.91522],[1.60563,0.2269],[0.82914,1.16628]],[[506.49425,312.36666],[2.64258,-2.64258],[-3.53553,3.53553]],[499.42318,312.36666],[[495.64158,305.89553],[0,0],[0.05456,-0.20887]],[[495.78493,305.25682],[-0.04153,0.21663],[-6.14285,-4.73177]],[[477.90924,290.50646],[6.6752,3.72637],[0.40601,8.69502]],[[477.278,316.60473],[1.84057,-7.98273],[-2.23383,9.68836]],[[461.60832,342.40208],[5.82954,-7.71685],[-2.56334,3.39321]],[[456.85085,353.81623],[-0.79178,-4.69384],[1.23265,7.30744]],[[467.66329,373.69406],[-3.9775,-5.98162],[6.92237,8.28637]],[[492.01737,396.69744],[-10.00062,-4.80795],[9.83189,4.72683]],[[525.27584,401.91985],[-10.64085,-0.29294],[17.76456,0.48906]],[[571.22179,392.06431],[-15.07581,10.32573],[6.2834,-6.92527]],[[580.9292,369.29545],[-0.04012,9.50241],[0.01547,-3.66547]],[[577.80091,358.44649],[3.25845,2.66205],[-2.52058,-2.05923]],[[568.18446,356.75306],[2.62957,1.9181],[-2.43881,-1.77895]],[[563.59549,348.94579],[0.97283,2.85763],[-0.64225,-1.88657]],[[563.49159,342.968],[0.23205,1.97934],[-0.54613,-4.65832]],[[559.75505,328.06991],[1.62308,4.4197],[-2.54784,-6.93787]],[[549.10953,318.0062],[3.96018,5.31731],[-3.18169,-4.27204]],[[545.36363,299.73016],[0.64439,5.15513],[0.03559,-1.12765]],[[545.06379,296.35882],[0.99887,-0.52452],[-0.96995,0.50933]],[[542.45072,298.35229],[0.99536,-0.4577],[-1.70532,0.78417]],[[537.07611,300.03185],[1.76051,-0.65087],[-1.15978,0.42877]],[[533.70731,301.58476],[1.18377,-0.35723],[-0.07292,0.022]],[[533.41992,301.60328],[0.11367,0.00742],[0.01388,0.07505]],[[533.4567,301.83283],[-0.01061,-0.078],[2.00179,0.95963]],[[538.74189,305.96742],[-1.5731,-1.5731],[0,0]],[540.21409,307.84661],[[539.21409,314.84661],[4,-3],[-4,3]],[532.21409,313.84661],[[531.67082,313.03849],[0,0],[-0.97938,-0.97938]],[[526.24448,307.52775],[2.08328,2.26764],[-4.84489,-0.65537]],[[511.8815,306.10297],[4.94858,0.14182],[-1.62487,-0.04657]]],&quot;closed&quot;:true}]}" fill="#cf9c49"/><path d="M274.78329,182.70535c-1.00159,0.0278 -4.76182,0.83568 -5.57558,-0.4274c-2.83642,-4.40258 3.81076,-3.94374 4.87274,-6.81383c1.04264,-2.81785 -5.84166,-3.77763 -5.89258,-6.17063c-0.06137,-2.88428 6.70052,-5.06069 8.71595,-6.11876c0.35805,-0.18797 1.2129,-0.57389 2.02296,-0.73303c-1.1677,-1.02488 -2.59222,-1.05242 -3.97359,-2.90719c-1.59085,-2.13602 -1.55075,-6.56045 -1.87295,-9.13802c0.0178,-0.56383 0.34952,-1.94793 -0.14992,-1.68567c-0.48498,0.25467 -0.80886,0.76788 -1.30654,0.99674c-0.85266,0.39208 -1.80705,0.51435 -2.6873,0.83978c-0.57989,0.21439 -1.09251,0.59784 -1.6844,0.77645c-0.03646,0.011 -0.08686,0.01297 -0.1437,0.00926c0.00694,0.03752 0.01308,0.07578 0.01839,0.11478c1.00089,0.47982 1.85604,1.28074 2.64259,2.06729l0.7361,0.93959c0,0 1.5,2 -0.5,3.5c-2,1.5 -3.5,-0.5 -3.5,-0.5l-0.27164,-0.40406c-0.48969,-0.48969 -1.67153,-1.62155 -2.71317,-2.75537c-2.42245,-0.32768 -4.7072,-0.64148 -7.18149,-0.71239c-0.17815,-0.0051 -0.35692,-0.00703 -0.53594,-0.00812l0.30407,-0.58371c-0.01164,-0.00247 -0.02328,-0.00498 -0.03491,-0.00753c-0.32777,-0.07192 -0.64413,-0.93548 -0.78463,-0.63073c-0.18238,0.39559 0.27899,0.81345 0.46184,1.22167c-0.61972,-0.00328 -1.24199,0.00064 -1.85119,-0.08545c0.41457,0.58314 1.06844,1.90443 -0.25285,3.22572c-1.76777,1.76777 -3.53553,0 -3.53553,0l-1.8908,-3.23557c0.02728,-0.10443 0.05091,-0.21104 0.07168,-0.31935c-3.07143,-2.36589 -5.60025,-5.512 -8.93785,-7.37518c0.203,4.34751 0.60466,9.05777 -0.31562,13.04914c-1.11692,4.84418 -4.92007,9.04025 -7.83484,12.89867c-1.28167,1.69661 -2.77462,3.36015 -2.37873,5.70708c0.61632,3.65372 3.41747,6.9481 5.40622,9.93891c3.46119,4.14318 7.17673,9.09772 12.17704,11.50169c4.91594,2.36342 11.30881,2.46473 16.62923,2.6112c8.88228,0.24453 15.43507,0.2351 22.97298,-4.92777c3.1417,-3.46263 4.83365,-6.63323 4.85371,-11.38443c0.00774,-1.83274 0.06508,-4.09345 -1.56414,-5.42448c-0.9955,-0.8133 -2.59803,-0.27165 -3.87545,-0.48083c-2.48683,3.14958 -6.47633,3.31597 -10.64016,3.43154zM238.83254,139.75355l1.85535,0.5252c3.70941,1.89251 6.34835,4.96988 9.54306,7.55256c0.97946,-0.22669 2.16933,-0.02332 3.18477,-0.08942c2.9001,-0.18878 5.81228,0.22182 8.69319,0.64791c1.50725,-2.36067 5.1721,-3.18022 7.43005,-3.9947c1.1465,-0.41356 2.19069,-1.53393 3.39624,-1.35465c4.7275,0.70302 4.21228,2.68796 4.88878,6.04033c0.13782,1.10254 0.0442,5.7681 0.81435,6.64988c0.4258,0.48752 1.288,0.30999 1.81866,0.68063c2.43324,1.69952 3.18112,2.97133 4.27962,5.70855c0.99321,2.47487 1.85291,6.05077 2.16268,8.67477c0.12446,1.0543 -1.02576,2.93054 0.00495,3.18486c0.61591,0.15197 1.25632,-0.45969 1.87564,-0.32232c1.20624,0.26756 2.41416,0.73779 3.39352,1.49108c2.95289,2.27125 3.46384,5.97395 3.47455,9.35569c0.01982,6.25667 -2.41533,10.65728 -6.56733,15.15269c-3.33531,2.32698 -6.94153,4.51148 -10.91095,5.57081c-5.01769,1.33908 -10.37549,0.72999 -15.49527,0.58654c-6.03449,-0.16908 -13.08453,-0.40857 -18.64162,-3.09932c-5.75405,-2.78612 -10.04182,-8.23005 -14.02417,-13.01995c-3.11944,-4.66799 -7.42401,-9.97167 -6.14727,-15.98079c1.36713,-6.43458 8.65869,-10.13998 10.07365,-16.61069c1.02428,-4.68409 0.11163,-10.46529 0.11163,-15.26023c0,0 0,-2.5 2.5,-2.5c0.59081,0 1.042,0.13962 1.38656,0.35288c0.50779,-0.04021 0.89934,0.05768 0.89934,0.05768zM252.94605,153.33067c0.01788,0.00009 0.03576,0.00019 0.05364,0.0003l-0.02979,0.0572c-0.00727,-0.01915 -0.01525,-0.03831 -0.02384,-0.0575z" fill="#000000"/><path d="M240.85055,170.08856c0.18239,-0.62312 1.0929,-2.46195 1.04381,-2.54584c-0.85478,-1.46045 -1.95484,-2.82925 -0.17761,-4.4194c1.21082,-1.08336 5.52046,1.00697 7.97049,-0.44215c1.84001,-1.08831 2.03887,-4.97868 5.11937,-3.2184c2.26153,1.2923 0.25728,4.58934 1.38015,6.32909c2.90955,4.50798 7.44732,10.00362 1.18538,14.56091c-0.76344,0.55561 -2.51233,2.73038 -3.59057,2.42712c-2.28141,-0.64165 -2.43455,-1.41425 -3.07645,-3.5343c-0.07414,-0.24488 0.05092,-0.67586 -0.19622,-0.74206c-1.87277,-0.50165 -4.31657,1.23033 -6.04023,-0.2471c-0.45849,0.55856 -1.15429,0.91488 -1.93332,0.91488c-1.38071,0 -2.5,-1.11929 -2.5,-2.5c0,-0.13127 0.01012,-0.26019 0.02962,-0.386c-0.50459,-1.78301 0.11314,-3.89939 0.78559,-6.19675z" fill="#000000"/><path d="M236.44025,195.50959c0,-0.2764 0.04485,-0.54232 0.12768,-0.79088l0.55809,-1.81378l0.01545,-0.02557l0.00229,-0.02979l0.1438,-0.43141l0.20049,-0.31507l0.13688,-0.34746l2.15705,-3.01988l0.15906,-0.1355l0.10751,-0.17918l0.57521,-0.57521l0.1543,-0.09258l0.11347,-0.13966l1.72565,-1.29423l0.20943,-0.08818l0.17253,-0.14789l0.28761,-0.1438l0.49261,-0.10947l0.02532,-0.01066l0.00769,0.00332l0.73217,-0.1627l0.01619,0.01079l0.0174,-0.0087l1.21341,0.43336l1.29423,0.86283l0.20072,0.2208l0.24954,0.16363l1.72565,1.86945l0.07629,0.1395l0.12103,0.1031l0.51735,0.72429l2.56029,2.04823l1.46439,1.06501l0.10992,0.0687l0.03036,-0.0506l0.18888,-0.18888l0.03577,-0.04173l0.20676,-0.34461l0.28761,-0.2876l0.42292,-0.25376l0.09484,-0.16598l0.31164,-0.07791l0.27545,-0.16527l0.18443,0.0503l0.47848,-0.11962h0.08128l0.66996,-0.19142l0.1032,-0.00344l0.09332,-0.04421l0.71902,-0.1438l0.12435,0.00592l0.11717,-0.04206l1.35656,-0.13566l0.78206,-0.13034l0.10432,0.00834l0.09906,-0.03373l1.72564,-0.1438l0.1047,0.01709l0.10291,-0.02573h4.2948l0.02337,-0.01558l0.07009,0.01558h0.06966l0.55728,0.13932l0.56076,0.12461l0.0623,0.03116l0.06966,0.01741l0.01393,0.02438l0.42932,0.21466l0.15497,0.13284l0.12453,0.00692l0.32251,0.37626l0.37626,0.32251l0.00692,0.12454l0.13284,0.15497l0.07085,0.14171l0.02438,0.01394l0.01741,0.06966l0.0091,0.01819l1.68083,0.10505l0.31017,0.09847l0.32446,0.02496l1.72564,0.57522l0.15181,0.0966l0.17566,0.03904l0.36747,0.18373l0.017,-0.00267l0.04262,0.03248l0.14813,0.07407l0.40737,0.34917l0.10911,0.08313l0.1907,0.04767l0.0988,0.1729l0.02816,0.02146l0.10346,0.12932l0.04068,0.03487l0.00095,0.01718l0.26751,0.33438l0.39793,0.2274l0.26913,1.07648l0.0324,0.07069l-0.00903,0.0228l0.02,0.08003v0.28761l-0.3125,1.25l-0.44949,0.25686l-0.17627,0.44532l-0.57703,0.09052l-0.09545,0.08677l-0.12811,0.21352l-0.57522,0.57521l-0.19486,0.11691l-0.14988,0.1708l-1.86945,1.29424l-0.10312,0.03888l-0.07957,0.07625l-1.00662,0.57522l-0.09745,0.02741l-0.07841,0.06403l-1.94753,0.91648l-0.08841,0.16577l-0.19224,0.45656l-0.17745,0.23659l-0.00353,0.00663l-0.00182,0.00051l-0.24861,0.33148l-0.09328,0.07579l-0.05687,0.10589l-1.43804,1.58184l-0.25802,0.17202l-0.47846,0.76553l-0.33049,0.31868l-0.28951,0.35632l-0.57522,0.43141l-0.12096,0.05093l-0.0928,0.0928l-0.42379,0.25427l-0.19446,0.2139l-0.42089,0.49104l-0.03826,0.00213l-0.47904,0.31936l-0.17448,0.23263l-0.32851,0.26692l-0.28474,0.31321l-0.4468,0.29787l-0.01026,0.01538l-0.18425,0.1675l-0.12811,0.21352l-0.30578,0.30578l-1.18764,1.58351l-0.66666,0.54166l-0.08334,0.14584l-0.13888,0.03472l-0.11112,0.09028l-0.16666,-0.02084l-0.83334,0.20834h-0.2876l-1.25,-0.3125l-0.28044,-0.49078l-0.28771,-0.19181l-0.08298,-0.09127l-0.05846,-0.03341l-0.07227,-0.03489l-0.02446,-0.02039l-0.13116,-0.07495l-0.01085,-0.0434l-1.52681,-1.27234l-1.26098,-0.98077l-0.04561,-0.05819l-0.0658,-0.03374l-1.15043,-1.00663l-0.11355,-0.16352l-0.16074,-0.11746l-0.38424,-0.46108l-0.05018,-0.02509l-2.20563,-0.96496l-0.68198,-0.2728l-0.086,-0.06211l-0.10356,-0.02301l-0.61736,-0.30868l-0.30898,-0.07725l-0.01253,-0.00669l-0.04404,0.01201l-0.53243,-0.31946l-0.34956,-0.18643h-0.4565l-0.99599,0.12449l-0.15682,-0.01901l-0.15326,0.03832h-0.21414l-2.30654,0.13568l-1.22974,0.13664l-0.01401,-0.00189l-0.01331,0.00477l-1.25698,0.1257l-0.39869,0.09968h-0.30776l-0.29857,0.07464h-0.28761l-0.29857,-0.07464h-0.09595l-0.03023,-0.03154l-0.82525,-0.20632l-0.14445,-0.25279l-0.28551,-0.0571l-0.69174,-1.08704l-0.14381,-0.43141l-0.00752,-0.09774l-0.04613,-0.08649l-0.43141,-1.72565v-0.10189l-0.04063,-0.09345l-0.11156,-0.66934l-0.08177,-0.24532l-0.03082,-0.4007l-0.09747,-0.38987v-1.43804l0.06039,-0.24157l-0.01184,-0.24873l0.1438,-0.71901l0.04306,-0.09091l-0.02229,-0.08172l0.28973,-0.48289l0.24108,-0.50893l0.08035,-0.02679l0.05175,-0.08625l0.11256,-0.11257l0.13198,-0.19796l0.00213,-0.03827l0.49104,-0.42088l0.33132,-0.3012c-0.00283,-0.01123 -0.00558,-0.02249 -0.00826,-0.03378l-0.02573,-0.02745l0.00395,-0.07377c-0.02991,-0.15461 -0.04557,-0.31429 -0.04557,-0.47764z" fill="#000000"/></g></g></svg>