<svg version="1.1" xmlns="http://www.w3.org/2000/svg" xmlns:xlink="http://www.w3.org/1999/xlink" width="68.14264" height="73.17624" viewBox="0,0,68.14264,73.17624"><defs><radialGradient cx="239.37143" cy="199.33582" r="9.85411" gradientUnits="userSpaceOnUse" id="color-1"><stop offset="0" stop-color="#a5724c"/><stop offset="1" stop-color="#a5724c" stop-opacity="0"/></radialGradient></defs><g transform="translate(-205.92867,-145.93226)"><g data-paper-data="{&quot;isPaintingLayer&quot;:true}" fill-rule="nonzero" stroke-linecap="butt" stroke-linejoin="miter" stroke-miterlimit="10" stroke-dasharray="" stroke-dashoffset="0" style="mix-blend-mode: normal"><g stroke="none" stroke-width="0.5"><path d="M221.84878,185.03992l-1.26288,-2.06355c-2.69309,-2.88064 -4.14683,-6.6952 -6.14778,-9.98014c-0.01407,-0.02308 -0.02874,-0.04722 -0.04415,-0.07195c2.19025,0.54746 5.45658,0.32445 6.7148,-2.52763c0.3399,-0.77044 -0.89925,-3.48389 -2.26244,-5.87877c2.86972,2.31205 6.31516,4.70176 9.61585,4.25483c8.35664,-1.13151 3.8143,-12.51397 0.15669,-17.59067c0.24846,0.26015 0.50006,0.48872 0.6986,0.60445c1.28191,0.74705 2.49916,1.6117 3.51225,2.61352c3.95068,3.35831 8.18836,11.25459 12.89376,13.36731c5.70094,2.55976 5.65254,0.92428 7.78702,-2.39157c0.42415,-0.65889 0.8991,-1.30629 1.20748,-2.00872c0.32015,2.58782 2.02669,6.07911 3.47866,8.93151l-1.78026,0.01404c0,0 -2.38429,-0.13244 -2.38429,2.06981c0,2.20225 2.60454,2.22147 2.60454,2.22147l0.82042,-0.23201c5.87614,2.49697 8.09358,6.44468 10.39718,11.70763c1.6181,3.83786 1.21535,4.46228 1.03247,8.18551c-0.8716,17.74316 -21.51521,18.50145 -37.87058,18.56604c-4.28233,-0.72789 -8.69068,-0.54798 -12.83222,-1.93141c-3.29763,-1.10152 -4.22602,-4.3548 -5.35726,-6.80281c-3.76606,-8.14977 0.14773,-13.70132 3.39612,-20.71074c0.095,0.10817 0.44327,0.1834 0.53025,0.28001l0.71573,1.30715c0,0 0.90794,2.02382 3.22563,1.03895c2.31772,-0.98487 1.15439,-2.97224 1.15439,-2.97224z" data-paper-data="{&quot;noHover&quot;:false,&quot;origItem&quot;:[&quot;Path&quot;,{&quot;applyMatrix&quot;:true,&quot;segments&quot;:[[[479.76778,377.989],[1.78885,-0.89443],[-1.78885,0.89443]],[477.0845,377.09457],[[476.53092,375.90058],[0,0],[-0.06713,-0.08774]],[[476.3201,375.62142],[0.07332,0.09824],[-2.50719,6.3657]],[[473.67051,394.37128],[-2.90673,-7.40132],[0.87312,2.2232]],[[477.78741,400.53504],[-2.54518,-1.00036],[3.19653,1.25637]],[[487.66232,402.27674],[-3.30518,-0.66104],[12.6234,-0.05867]],[[516.77998,385.46514],[-0.67271,16.11368],[0.14116,-3.3813]],[[515.97323,378.05801],[1.24889,3.4854],[-1.77798,-4.77962]],[[507.95509,367.4878],[4.53532,2.26766],[0,0]],[507.32207,367.69894],[[505.32207,365.69894],[0,2],[0,-2]],[507.32207,363.69894],[[508.53506,363.80469],[0,0],[-1.12066,-2.59044]],[[505.87884,355.72078],[0.24709,2.35016],[-0.23801,0.63791]],[[504.94607,357.5445],[0.32736,-0.59838],[-1.64743,3.01135]],[[498.9604,359.72787],[4.4001,2.32467],[-3.63171,-1.91871]],[[489.05965,347.59035],[3.04921,3.0499],[-0.78193,-0.90982]],[[486.35585,345.21505],[0.98939,0.67844],[-0.15325,-0.10509]],[[485.81778,344.66576],[0.19176,0.23627],[2.82302,4.61047]],[[485.72465,360.62737],[6.44981,-1.0276],[-2.54754,0.40588]],[[478.31567,356.75274],[2.2149,2.09971],[1.05215,2.17494]],[[480.07079,362.08162],[0.26233,-0.69967],[-0.97112,2.59015]],[[474.9001,364.3575],[1.69047,0.49719],[0.01192,0.02245]],[[474.93428,364.42265],[-0.01085,-0.02095],[1.54438,2.98328]],[[479.68833,373.44482],[-2.07858,-2.61611],[0,0]],[480.66221,375.30572]],&quot;closed&quot;:true}]}" fill="#9e8d62"/><path d="M208.47936,172.43051c-0.08111,-1.57524 -0.37349,-3.6508 1.06921,-4.6422c1.19995,-0.82462 3.04628,0.17017 4.58227,0.54402c-0.80931,-1.33229 -1.0192,-3.52379 -0.98836,-5.65024l-0.26377,0.0249l-0.49061,-3.7525c-0.01321,-0.09009 -0.02,-0.18186 -0.02,-0.275c0,-1.21628 1.16014,-2.20225 2.59128,-2.20225c0.60798,0 1.16711,0.17796 1.60913,0.47595l2.20816,1.45962l-0.01441,0.01576l0.07284,0.02403c1.44068,1.07361 3.09674,1.92603 4.53412,3.00283c0.12531,0.09388 4.57845,4.55057 5.54728,3.10876c0.22824,-0.33965 -2.42483,-4.67117 -2.51592,-4.8695c-1.3341,-2.90384 -4.65378,-9.85602 -2.43521,-12.62347c2.99671,-3.73812 10.95782,2.78238 12.67651,4.42729c2.99487,2.5447 5.51961,5.29728 8.08313,8.15686c0.75418,0.84129 1.51621,1.67798 2.24011,2.53826c0.68616,0.81545 1.65239,3.48592 1.94224,2.51413c0.95105,-3.18859 1.32292,-9.41509 8.24417,-7.59066c1.50246,0.39603 1.58684,2.31129 2.28297,3.51016c2.50085,4.30702 3.50756,9.56341 5.45666,14.11872c0,0 0.1662,0.38845 0.15659,0.88997c3.54575,2.8389 5.60974,6.49473 7.55819,10.93345c1.69867,4.32136 1.54906,5.6551 1.34418,9.84259c-1.00995,20.64005 -24.01331,22.75961 -43.4139,22.69513c-4.80877,-0.81737 -9.79786,-0.58637 -14.41724,-2.28694c-9.18041,-3.37971 -11.41096,-16.2031 -9.62211,-23.52412c1.04112,-4.26092 4.47843,-7.74526 6.00421,-11.76625c0,0 0.10375,-0.26457 0.34823,-0.57404c-2.16644,-2.99263 -4.26317,-6.4515 -4.36995,-8.52525zM257.33897,176.41713l-0.82017,0.23249c0,0 -2.59128,0 -2.59128,-2.20225c0,-2.20225 2.59128,-2.20225 2.59128,-2.20225l1.57159,0.11645c-1.45197,-2.8524 -3.12136,-6.31356 -3.44151,-8.9014c-0.30836,0.70241 -0.7844,1.34925 -1.20855,2.00815c-2.13446,3.31585 -2.05434,4.96391 -7.75527,2.40415c-4.70537,-2.11272 -8.87713,-10.0066 -12.82781,-13.36491c-1.01309,-1.00182 -2.22124,-1.86845 -3.50314,-2.6155c-0.19858,-0.11573 -0.44868,-0.34468 -0.69714,-0.60484c3.65761,5.07671 8.23597,16.4442 -0.12067,17.57571c-3.30069,0.44692 -6.72965,-1.9544 -9.59937,-4.26643c1.3632,2.39488 2.61387,5.09732 2.274,5.86775c-1.25823,2.85206 -4.50911,3.05351 -6.69933,2.50602c0.01544,0.02471 0.03022,0.04867 0.04429,0.07173c2.00095,3.28496 3.46645,7.05386 6.15955,9.93453l1.26179,2.04909c0,0 1.15885,1.96973 -1.15885,2.95463c-2.31772,0.98487 -3.47657,-0.98487 -3.47657,-0.98487l-0.71724,-1.31471c-0.08699,-0.09661 -0.17815,-0.19922 -0.27315,-0.30739c-3.2484,7.00942 -7.19899,12.49614 -3.43292,20.64591c1.13125,2.44802 2.03638,5.68554 5.33402,6.78706c4.14154,1.38343 8.51198,1.18994 12.79434,1.91783c10.83009,-0.04278 23.47705,-0.36586 31.03907,-5.7309c2.86645,-0.59167 2.99562,-2.74853 3.639,-4.84593c1.94723,-6.34801 1.52372,-12.12456 0.8349,-18.56414c0,0 -0.04757,-0.44469 -0.3842,-0.80958c-1.90538,-3.62533 -4.25748,-6.41054 -8.83663,-8.35638z" fill="#000000"/><path d="" fill="#000000"/></g><path d="M235.9762,187.64262c-0.02659,-0.06053 -0.0428,-0.13436 -0.0428,-0.2244c0,-0.5 0.5,-0.5 0.5,-0.5l0.0219,0.01493c0.71772,-0.17943 1.42772,-0.36724 2.13948,-0.57059c6.03366,-1.50536 11.95023,-1.12141 17.15257,2.78393c1.79392,0.99508 4.62758,2.4052 5.34363,4.52302c0.81337,2.40565 0.14795,7.20993 -1.38369,9.08556c-1.49314,-0.0112 -3.57498,1.96569 -5.2885,2.33548c-3.40268,0.73432 -6.93706,0.89282 -10.33632,1.72231c-6.48368,0.03833 -13.58799,0.70609 -19.96252,-0.62544c-6.46799,-1.6357 -8.42286,-8.23694 -3.14796,-12.45074c4.48306,-2.69774 9.83329,-4.42902 14.73062,-6.07694c0,0 0.12824,-0.04275 0.2736,-0.01711z" fill="#000000" stroke="none" stroke-width="0.5"/><path d="M237.24106,192.93434c-0.00053,0.01096 -0.00136,0.02166 -0.00249,0.0321l0.02209,0.02209l-0.03065,0.03065c-0.04791,0.21788 -0.23149,0.30731 -0.34199,0.34199l-0.04456,0.04456c-0.09048,0.09048 -0.21548,0.14645 -0.35355,0.14645c-0.09284,0 -0.17978,-0.02531 -0.25428,-0.0694c-3.66034,0.90611 -5.07079,6.30919 -6.56907,9.08686c6.10806,0.13487 11.81061,0.12599 17.87573,-0.82459c2.32838,-0.57315 2.01377,-1.65651 0.50551,-3.35462c-1.94956,-2.19496 -3.80427,-3.98088 -6.51006,-5.21773c-1.14712,-0.53645 -2.83314,-1.42889 -3.71385,-0.93393c-0.00692,0.16758 -0.09632,0.31386 -0.22867,0.39934l-0.22147,0.14765c-0.01275,0.0329 -0.02465,0.06715 -0.03569,0.10279zM232.48381,194.98694c-0.05356,-0.251 0.14808,-0.45265 0.14808,-0.45265l-0.03735,0.112c0.51715,-1.45012 2.43697,-2.61921 4.04376,-2.70829c0.04969,-0.09803 0.10585,-0.18617 0.16784,-0.26511l0.00479,-0.03352l0.01997,0.00285c1.05275,-1.26833 3.68884,-0.0331 5.12456,0.62192c2.97048,1.36333 12.71512,8.75702 5.78407,10.46126c-4.51883,0.71224 -8.92454,1.11246 -13.50526,1.08983c-1.75703,-0.00868 -3.89547,0.07585 -5.43949,-0.75567c0.06524,-2.34405 1.58165,-5.73763 3.68902,-8.07262z" fill="#583820" stroke="#613f25" stroke-width="0.5"/><path d="M238.11597,195.6605c2.18778,1.02818 4.99711,2.36162 6.95565,3.92225l0.0387,-0.07728l0.627,0.31401c0.187,0.08825 0.30677,0.28772 0.28375,0.50496c-0.02909,0.27461 -0.27528,0.47364 -0.54989,0.44455l-0.49785,-0.05274c-1.2523,-0.13266 -2.21783,0.05264 -3.46972,0.14397c-1.33202,0.06236 -6.82239,1.20276 -7.73314,-0.35601c-0.79772,-1.3653 1.85227,-3.35254 3.00692,-4.53776c-0.08597,-0.12671 -0.16632,-0.34438 0.03631,-0.58813c0.23326,-0.2806 0.50107,-0.18619 0.62877,-0.11468c0.11444,-0.04752 0.264,-0.05557 0.44007,0.05709c0.15924,0.10189 0.21975,0.22546 0.23343,0.33975z" fill="#583820" stroke="none" stroke-width="0.5"/><path d="M229.51732,199.33582c0,-5.44227 4.41183,-9.85411 9.85411,-9.85411c5.44227,0 9.85411,4.41183 9.85411,9.85411c0,5.44227 -4.41183,9.85411 -9.85411,9.85411c-5.44227,0 -9.85411,-4.41183 -9.85411,-9.85411z" fill="url(#color-1)" stroke="none" stroke-width="0"/></g></g></svg>