<svg version="1.1" xmlns="http://www.w3.org/2000/svg" xmlns:xlink="http://www.w3.org/1999/xlink" width="72.01713" height="76.55455" viewBox="0,0,72.01713,76.55455"><g transform="translate(-223.44758,-139.48677)"><g data-paper-data="{&quot;isPaintingLayer&quot;:true}" fill-rule="nonzero" stroke="none" stroke-width="0.5" stroke-linecap="butt" stroke-linejoin="miter" stroke-miterlimit="10" stroke-dasharray="" stroke-dashoffset="0" style="mix-blend-mode: normal"><path d="M255.93223,153.00222c2.47429,0.07091 4.77696,0.38487 7.1994,0.71255c1.04164,1.13382 2.2321,2.26814 2.72179,2.75783l0.27269,0.40448c0,0 1.50813,2.00427 3.50813,0.50427c2,-1.5 0.44849,-3.41435 0.44849,-3.41435l-0.73394,-0.93846c-0.78655,-0.78655 -1.63519,-1.58481 -2.63608,-2.06463c-0.00531,-0.039 0.0197,-0.17228 0.01276,-0.2098c0.05683,0.00371 0.10751,0.00183 0.14397,-0.00917c0.59189,-0.17861 1.10707,-0.56114 1.68696,-0.77552c0.88026,-0.32543 1.8384,-0.44604 2.69106,-0.83812c0.49768,-0.22885 0.82272,-0.74148 1.30769,-0.99615c0.49944,-0.26226 0.16922,1.12266 0.15142,1.68649c0.3222,2.57757 0.29389,7.01131 1.88473,9.14733c1.98009,2.65866 4.05798,1.57672 5.3319,5.04565c0.81154,2.20985 1.59939,5.13651 1.87246,7.46567c0.11603,0.98967 -0.26912,2.05228 0.052,2.99556c0.48642,1.42882 1.07409,3.02157 2.29349,3.91104c1.31478,0.95905 3.54799,-0.18317 4.80828,0.84644c1.62923,1.33103 1.5698,3.59902 1.56206,5.43175c-0.02006,4.7512 -1.72124,7.93732 -4.86294,11.39996c-7.53791,5.16287 -14.12259,5.18907 -23.00487,4.94454c-5.32042,-0.14647 -11.74253,-0.25331 -16.65847,-2.61672c-5.00031,-2.40398 -8.73645,-7.37905 -12.19764,-11.52223c-1.98875,-2.99081 -4.79546,-6.30277 -5.41178,-9.95649c-0.39589,-2.34692 1.09681,-4.01989 2.37848,-5.71649c2.91477,-3.85842 6.72713,-8.08017 7.84405,-12.92435c0.92028,-3.99136 0.52973,-8.71287 0.32673,-13.06038c3.3376,1.86318 5.87151,5.00601 8.94294,7.3719c-0.02076,0.10831 0.00497,0.30188 -0.02231,0.40632l1.84109,3.1488c0,0 1.77551,1.76418 3.54328,-0.00359c1.32129,-1.32129 0.67045,-2.64357 0.25588,-3.22671c0.80281,0.11345 1.63387,0.06931 2.44631,0.09259z" data-paper-data="{&quot;noHover&quot;:false,&quot;origItem&quot;:[&quot;Path&quot;,{&quot;applyMatrix&quot;:true,&quot;segments&quot;:[[[506.99996,305.91522],[1.60563,0.2269],[0.82914,1.16628]],[[506.49425,312.36666],[2.64258,-2.64258],[-3.53553,3.53553]],[499.42318,312.36666],[[495.64158,305.89553],[0,0],[0.05456,-0.20887]],[[495.78493,305.25682],[-0.04153,0.21663],[-6.14285,-4.73177]],[[477.90924,290.50646],[6.6752,3.72637],[0.40601,8.69502]],[[477.278,316.60473],[1.84057,-7.98273],[-2.23383,9.68836]],[[461.60832,342.40208],[5.82954,-7.71685],[-2.56334,3.39321]],[[456.85085,353.81623],[-0.79178,-4.69384],[1.23265,7.30744]],[[467.66329,373.69406],[-3.9775,-5.98162],[6.92237,8.28637]],[[492.01737,396.69744],[-10.00062,-4.80795],[9.83189,4.72683]],[[525.27584,401.91985],[-10.64085,-0.29294],[17.76456,0.48906]],[[571.22179,392.06431],[-15.07581,10.32573],[6.2834,-6.92527]],[[580.9292,369.29545],[-0.04012,9.50241],[0.01547,-3.66547]],[[577.80091,358.44649],[3.25845,2.66205],[-2.52058,-2.05923]],[[568.18446,356.75306],[2.62957,1.9181],[-2.43881,-1.77895]],[[563.59549,348.94579],[0.97283,2.85763],[-0.64225,-1.88657]],[[563.49159,342.968],[0.23205,1.97934],[-0.54613,-4.65832]],[[559.75505,328.06991],[1.62308,4.4197],[-2.54784,-6.93787]],[[549.10953,318.0062],[3.96018,5.31731],[-3.18169,-4.27204]],[[545.36363,299.73016],[0.64439,5.15513],[0.03559,-1.12765]],[[545.06379,296.35882],[0.99887,-0.52452],[-0.96995,0.50933]],[[542.45072,298.35229],[0.99536,-0.4577],[-1.70532,0.78417]],[[537.07611,300.03185],[1.76051,-0.65087],[-1.15978,0.42877]],[[533.70731,301.58476],[1.18377,-0.35723],[-0.07292,0.022]],[[533.41992,301.60328],[0.11367,0.00742],[0.01388,0.07505]],[[533.4567,301.83283],[-0.01061,-0.078],[2.00179,0.95963]],[[538.74189,305.96742],[-1.5731,-1.5731],[0,0]],[540.21409,307.84661],[[539.21409,314.84661],[4,-3],[-4,3]],[532.21409,313.84661],[[531.67082,313.03849],[0,0],[-0.97938,-0.97938]],[[526.24448,307.52775],[2.08328,2.26764],[-4.84489,-0.65537]],[[511.8815,306.10297],[4.94858,0.14182],[-1.62487,-0.04657]]],&quot;closed&quot;:true}]}" fill="#cf9c49"/><path d="M248.73004,160.38252c0.51807,-0.95886 1.23669,-1.84556 1.75341,-2.80491c4.15249,0.24649 7.35901,-0.40026 10.21391,3.22641c3.00318,3.81503 3.14916,10.48855 -0.07267,14.29658c-1.38658,1.63886 -2.94951,3.65092 -5.07273,3.96782c-1.25501,0.18732 -1.53431,-2.06375 -2.54512,-2.83082c-0.82571,-0.62661 -3.59757,0.35986 -3.9706,0.32769c-1.56627,-0.13509 -3.37175,-0.11497 -4.58163,-1.11879c-0.83706,-0.6945 -0.21852,-2.194 -0.62644,-3.20227c-0.48978,-1.21059 -2.39075,-2.09943 -2.02583,-3.35333c1.76442,-6.06275 3.9465,-1.3165 6.69162,-2.68582c0.61125,-0.3049 -1.87079,0.07626 -1.95909,-0.60108c-0.18922,-1.45162 0.89025,-2.78917 1.33538,-4.18376c0,0 0.27974,-0.59945 0.85979,-1.03774z" fill="#000000"/><path d="M275.70101,162.13015c1.10802,-0.26609 2.29192,-0.13987 3.48587,0.52443c-1.26274,-1.82936 -2.97835,-1.43097 -4.63211,-3.65148c-1.59085,-2.13602 -1.55075,-6.56045 -1.87295,-9.13802c0.0178,-0.56383 0.34952,-1.94793 -0.14992,-1.68567c-0.48498,0.25467 -0.80886,0.76788 -1.30654,0.99674c-0.85266,0.39208 -1.80705,0.51435 -2.6873,0.83978c-0.57989,0.21439 -1.09251,0.59784 -1.6844,0.77645c-0.03646,0.011 -0.08686,0.01297 -0.1437,0.00926c0.00694,0.03752 0.01308,0.07578 0.01839,0.11478c1.00089,0.47982 1.85604,1.28074 2.64259,2.06729l0.7361,0.93959c0,0 1.5,2 -0.5,3.5c-2,1.5 -3.5,-0.5 -3.5,-0.5l-0.27164,-0.40406c-0.48969,-0.48969 -1.67153,-1.62155 -2.71317,-2.75537c-2.42245,-0.32768 -4.7072,-0.64148 -7.18149,-0.71239c-0.81244,-0.02328 -1.63796,0.01957 -2.44077,-0.09388c0.41457,0.58314 1.06844,1.90443 -0.25285,3.22572c-1.76777,1.76777 -3.53553,0 -3.53553,0l-1.8908,-3.23557c0.02728,-0.10443 0.05091,-0.21104 0.07168,-0.31935c-3.07143,-2.36589 -5.60025,-5.512 -8.93785,-7.37518c0.203,4.34751 0.60466,9.05777 -0.31562,13.04914c-1.11692,4.84418 -4.92007,9.04025 -7.83484,12.89867c-1.28167,1.69661 -2.77462,3.36015 -2.37873,5.70708c0.61632,3.65372 3.41747,6.9481 5.40622,9.93891c3.46119,4.14318 7.17673,9.09772 12.17704,11.50169c4.91594,2.36342 11.30881,2.46473 16.62923,2.6112c8.88228,0.24453 15.43507,0.2351 22.97298,-4.92777c3.1417,-3.46263 4.83365,-6.63323 4.85371,-11.38443c0.00774,-1.83274 0.06508,-4.09345 -1.56414,-5.42448c-1.26029,-1.02962 -3.49344,0.11234 -4.80822,-0.84672c-0.01757,-0.01281 -0.035,-0.02577 -0.0523,-0.03887c-0.36443,0.92965 -1.26955,1.58794 -2.32841,1.58794c-0.54007,0 -1.04015,-0.17125 -1.44888,-0.46242l-0.96571,-0.66857c-0.30743,0.62352 -0.62663,1.20477 -0.95477,1.71431c-0.86605,1.34481 -1.56788,3.13959 -3.07064,3.68757c-4.8078,1.75314 -7.93525,-0.95851 -6.06208,-5.86825c0.05684,-0.14899 0.12214,-0.29265 0.19489,-0.43161l-0.03565,-0.01664l0.93233,-1.99784c-0.65333,-0.45073 -1.21256,-1.21617 -1.68653,-2.46842c-0.94664,-2.50104 1.61863,-8.79794 2.29923,-11.13239c0,0 0.7,-2.4 3.1,-1.7c1.04841,0.30579 1.50526,0.93598 1.68731,1.5488zM238.64918,139.89734l1.85535,0.5252c3.70941,1.89251 6.34835,4.96988 9.54306,7.55256c0.97946,-0.22669 2.16933,-0.02332 3.18477,-0.08942c2.9001,-0.18878 5.81228,0.22182 8.69319,0.64791c1.50725,-2.36067 5.1721,-3.18022 7.43005,-3.9947c1.1465,-0.41356 2.19069,-1.53393 3.39624,-1.35465c4.7275,0.70302 4.21228,2.68796 4.88878,6.04033c0.13782,1.10254 0.0442,5.7681 0.81435,6.64988c0.4258,0.48752 1.288,0.30999 1.81866,0.68063c2.43324,1.69952 3.18112,2.97133 4.27962,5.70855c0.99321,2.47487 1.85291,6.05077 2.16268,8.67477c0.12446,1.0543 -1.02576,2.93054 0.00495,3.18486c0.61591,0.15197 1.25632,-0.45969 1.87564,-0.32232c1.20624,0.26756 2.41416,0.73779 3.39352,1.49108c2.95289,2.27125 3.46384,5.97395 3.47455,9.35569c0.01982,6.25667 -2.41533,10.65728 -6.56733,15.15269c-3.33531,2.32698 -6.94153,4.51148 -10.91095,5.57081c-5.01769,1.33908 -10.37549,0.72999 -15.49527,0.58654c-6.03449,-0.16908 -13.08453,-0.40857 -18.64162,-3.09932c-5.75405,-2.78612 -10.04182,-8.23005 -14.02417,-13.01995c-3.11944,-4.66799 -7.42401,-9.97167 -6.14727,-15.98079c1.36713,-6.43458 8.65869,-10.13998 10.07365,-16.61069c1.02428,-4.68409 0.11163,-10.46529 0.11163,-15.26023c0,0 0,-2.5 2.5,-2.5c0.59081,0 1.042,0.13962 1.38656,0.35288c0.50779,-0.04021 0.89934,0.05768 0.89934,0.05768zM253.1204,152.89106c-0.01164,-0.00247 -0.02328,-0.00498 -0.03491,-0.00753c-0.32777,-0.07192 -0.64413,-0.93548 -0.78463,-0.63073c-0.19095,0.41419 0.32379,0.85278 0.48568,1.27917z" fill="#000000"/><path d="M238.90935,183.54672c-0.32455,-0.58236 -0.91589,-2.07094 0.65671,-3.25039c2,-1.5 3.5,0.5 3.5,0.5c3.52105,4.78189 7.00382,7.05894 12.89881,7.40064c1.18598,0.06875 3.18931,0.23566 4.33748,-0.50512c1.64783,-1.06315 3.61971,-4.77451 6.06504,-4.16078c7.22955,1.81449 1.32524,4.50524 3.02066,7.61764c0.49668,0.91179 2.62292,0.22489 2.8592,1.23594c0.3768,1.61241 -0.76218,3.24665 -1.46084,4.74789c-0.21873,0.47 -1.30908,0.47413 -1.20584,0.98214c0.19432,0.95618 2.08884,1.30739 1.86409,2.25688c-0.80244,3.39008 -5.36962,4.60999 -7.62154,6.69123c-2.31373,3.74604 -1.25613,8.72509 -7.2815,8.97332c-2.88881,0.11901 -5.36845,-1.81658 -6.74459,-4.14246c-0.76774,-1.29759 -0.0858,-3.49539 -1.35001,-4.31694c-1.33465,-0.86733 -5.97735,1.38152 -7.86528,1.23298c-5.85858,-0.46093 -10.39411,-6.60044 -10.07577,-12.50096c0.29827,-5.5284 6.31367,-7.76816 8.2622,-12.47785z" fill="#000000"/></g></g></svg>