<svg version="1.1" xmlns="http://www.w3.org/2000/svg" xmlns:xlink="http://www.w3.org/1999/xlink" width="51.9745" height="53.94854" viewBox="0,0,51.9745,53.94854"><defs><radialGradient cx="240.00001" cy="180" r="23.98314" gradientUnits="userSpaceOnUse" id="color-1"><stop offset="0" stop-color="#ffffff"/><stop offset="1" stop-color="#f8b2b2"/></radialGradient><radialGradient cx="240.00001" cy="180" r="23.98314" gradientUnits="userSpaceOnUse" id="color-2"><stop offset="0" stop-color="#ee5a70"/><stop offset="1" stop-color="#ee5a70" stop-opacity="0"/></radialGradient><radialGradient cx="240.00002" cy="180" r="23.98314" gradientUnits="userSpaceOnUse" id="color-3"><stop offset="0" stop-color="#ffffff"/><stop offset="1" stop-color="#f8b2b2"/></radialGradient><radialGradient cx="240.00001" cy="180" r="23.98314" gradientUnits="userSpaceOnUse" id="color-4"><stop offset="0" stop-color="#ffffff"/><stop offset="1" stop-color="#f8b2b2"/></radialGradient></defs><g transform="translate(-214.0063,-153.36424)"><g data-paper-data="{&quot;isPaintingLayer&quot;:true}" fill-rule="nonzero" stroke-linecap="round" stroke-linejoin="miter" stroke-miterlimit="10" stroke-dasharray="" stroke-dashoffset="0" style="mix-blend-mode: normal"><path d="M217.01538,174.13429c0,0 0.23822,-1.34853 1.36904,-1.31592c0.55963,0.01614 18.14428,0.02041 18.64433,-0.30819c0.47948,-0.31509 -9.50534,-6.75182 -9.50534,-6.75182c0,0 0.49287,-2.00382 2.07932,-3.72777c2.08861,-2.26964 5.51436,-4.50088 6.65012,-5.48104c1.04518,-0.90202 2.38772,-0.38543 2.38772,-0.38543c0,0 20.97667,16.43351 22.70542,18.29578c1.33195,1.43481 1.63006,6.67085 1.63856,6.8408c0.01025,0.20499 -0.98665,5.78257 -2.50557,7.18117c-6.47289,5.96017 -23.51362,15.50129 -23.51362,15.50129c0,0 -1.79532,-0.74646 -2.67518,-1.75201c-0.997,-1.13943 -3.42377,-3.64378 -4.82001,-5.62455c-0.78295,-1.11072 -1.03305,-2.37001 -1.03305,-2.37001c0,0 10.03889,-5.21519 8.76944,-6.02821c-0.3353,-0.21475 -17.68704,0.07794 -18.0557,0.08074c-0.57591,0.0044 -1.67861,-0.90557 -1.67861,-0.90557z" fill="url(#color-1)" stroke="url(#color-2)" stroke-width="6"/><path d="M217.01539,174.13429c0,0 0.23822,-1.34853 1.36904,-1.31592c0.55963,0.01614 18.14428,0.02041 18.64433,-0.30819c0.47948,-0.31509 -9.50534,-6.75182 -9.50534,-6.75182c0,0 0.49287,-2.00382 2.07932,-3.72777c2.08861,-2.26964 5.51436,-4.50088 6.65012,-5.48104c1.04518,-0.90202 2.38772,-0.38543 2.38772,-0.38543c0,0 20.97667,16.43351 22.70542,18.29578c1.33195,1.43481 1.63006,6.67085 1.63856,6.8408c0.01025,0.20499 -0.98665,5.78257 -2.50557,7.18117c-6.47289,5.96017 -23.51362,15.50129 -23.51362,15.50129c0,0 -1.79532,-0.74646 -2.67518,-1.75201c-0.997,-1.13943 -3.42377,-3.64378 -4.82001,-5.62455c-0.78295,-1.11072 -1.03305,-2.37001 -1.03305,-2.37001c0,0 10.03889,-5.21519 8.76944,-6.02821c-0.3353,-0.21475 -17.68704,0.07794 -18.0557,0.08074c-0.57591,0.0044 -1.67861,-0.90557 -1.67861,-0.90557z" fill="url(#color-3)" stroke="#c73248" stroke-width="4"/><path d="M217.01539,174.13429c0,0 0.23822,-1.34853 1.36904,-1.31592c0.55963,0.01614 18.14428,0.02041 18.64433,-0.30819c0.47948,-0.31509 -9.50534,-6.75182 -9.50534,-6.75182c0,0 0.49287,-2.00382 2.07932,-3.72777c2.08861,-2.26964 5.51436,-4.50088 6.65012,-5.48104c1.04518,-0.90202 2.38772,-0.38543 2.38772,-0.38543c0,0 20.97667,16.43351 22.70542,18.29578c1.33195,1.43481 1.63006,6.67085 1.63856,6.8408c0.01025,0.20499 -0.98665,5.78257 -2.50557,7.18117c-6.47289,5.96017 -23.51362,15.50129 -23.51362,15.50129c0,0 -1.79532,-0.74646 -2.67518,-1.75201c-0.997,-1.13943 -3.42377,-3.64378 -4.82001,-5.62455c-0.78295,-1.11072 -1.03305,-2.37001 -1.03305,-2.37001c0,0 10.03889,-5.21519 8.76944,-6.02821c-0.3353,-0.21475 -17.68704,0.07794 -18.0557,0.08074c-0.57591,0.0044 -1.67861,-0.90557 -1.67861,-0.90557z" fill="#ffffff" stroke="#a52a3d" stroke-width="2"/><path d="M217.01539,174.13429c0,0 0.23822,-1.34853 1.36904,-1.31592c0.55963,0.01614 18.14428,0.02041 18.64433,-0.30819c0.47948,-0.31509 -9.50534,-6.75182 -9.50534,-6.75182c0,0 0.49287,-2.00382 2.07932,-3.72777c2.08861,-2.26964 5.51436,-4.50088 6.65012,-5.48104c1.04518,-0.90202 2.38772,-0.38543 2.38772,-0.38543c0,0 20.97667,16.43351 22.70542,18.29578c1.33195,1.43481 1.63006,6.67085 1.63856,6.8408c0.01025,0.20499 -0.98665,5.78257 -2.50557,7.18117c-6.47289,5.96017 -23.51362,15.50129 -23.51362,15.50129c0,0 -1.79532,-0.74646 -2.67518,-1.75201c-0.997,-1.13943 -3.42377,-3.64378 -4.82001,-5.62455c-0.78295,-1.11072 -1.03305,-2.37001 -1.03305,-2.37001c0,0 10.03889,-5.21519 8.76944,-6.02821c-0.3353,-0.21475 -17.68704,0.07794 -18.0557,0.08074c-0.57591,0.0044 -1.67861,-0.90557 -1.67861,-0.90557z" fill="url(#color-4)" stroke="#a52a3d" stroke-width="2"/><path d="M218.25898,174.45165c0,0 0.22533,-0.62676 1.29497,-0.59592c0.40462,0.01167 10.39186,-0.00509 15.34818,-0.2136c1.52779,-0.06427 2.69498,-0.91301 2.80644,-0.98624c0.45353,-0.29803 -9.12081,-7.55435 -9.12081,-7.55435c0,0 0.07693,-0.46803 1.57754,-2.09871c1.97561,-2.14685 5.21601,-4.25736 6.29032,-5.18449c0.98863,-0.85321 2.25854,-0.36458 2.25854,-0.36458c0,0 19.84172,15.54438 21.47694,17.30588c1.25988,1.35718 1.54187,6.30992 1.54991,6.47067c0.00969,0.19389 -0.93326,5.46971 -2.37,6.79263c-6.12268,5.63769 -22.24141,14.66259 -22.24141,14.66259c0,0 -1.69819,-0.70607 -2.53043,-1.65722c-0.94306,-1.07778 -3.23853,-3.44663 -4.55922,-5.32023c-0.74059,-1.05063 -0.45811,-1.8525 -0.45811,-1.8525c0,0 9.75526,-4.28421 8.55449,-5.05325c-0.08742,-0.05599 -0.02961,-1.32223 -1.97514,-1.43535c-5.11249,-0.29725 -15.24035,-0.17708 -15.49294,-0.17516c-0.54474,0.00416 -1.97708,-0.20777 -1.97708,-0.20777z" fill="none" stroke="#ffb7c2" stroke-width="2"/></g></g></svg>