<svg version="1.1" xmlns="http://www.w3.org/2000/svg" xmlns:xlink="http://www.w3.org/1999/xlink" width="43.11643" height="47.25757" viewBox="0,0,43.11643,47.25757"><g transform="translate(-219.57057,-156.5732)"><g data-paper-data="{&quot;isPaintingLayer&quot;:true}" fill-rule="nonzero" stroke-linecap="round" stroke-linejoin="miter" stroke-miterlimit="10" stroke-dasharray="" stroke-dashoffset="0" style="mix-blend-mode: normal"><path d="M259.7783,186.4824c0,0 -0.96812,0.79891 -1.47374,0.79505c-0.32366,-0.00246 -15.55768,-0.25943 -15.85206,-0.07089c-1.11452,0.7138 7.69916,5.29249 7.69916,5.29249c0,0 -0.21958,1.1056 -0.90697,2.08076c-1.22583,1.73902 -3.35642,3.93772 -4.23174,4.93809c-0.77247,0.88282 -2.34868,1.53818 -2.34868,1.53818c0,0 -14.96096,-8.37666 -20.64386,-13.60941c-1.33354,-1.2279 -2.20877,-6.12476 -2.19977,-6.30473c0.00746,-0.1492 0.26919,-4.7462 1.43858,-6.0059c1.51776,-1.63498 19.9343,-16.06284 19.9343,-16.06284c0,0 1.17869,-0.45354 2.09631,0.33839c0.99715,0.86054 4.0048,2.81946 5.8385,4.8121c1.39283,1.51355 1.82555,3.27281 1.82555,3.27281c0,0 -8.76621,5.65115 -8.34525,5.92778c0.43902,0.2885 15.87752,0.28475 16.36885,0.27058c0.9928,-0.02863 1.20195,1.15532 1.20195,1.15532z" data-paper-data="{&quot;index&quot;:null}" fill="#c24b99" stroke="#3c1f56" stroke-width="5"/><path d="M259.7783,186.4824c0,0 -0.96812,0.79891 -1.47374,0.79505c-0.32366,-0.00246 -15.55768,-0.25943 -15.85206,-0.07089c-1.11452,0.7138 7.69916,5.29249 7.69916,5.29249c0,0 -0.21958,1.1056 -0.90697,2.08076c-1.22583,1.73902 -3.35642,3.93772 -4.23174,4.93809c-0.77247,0.88282 -2.34868,1.53818 -2.34868,1.53818c0,0 -14.96096,-8.37666 -20.64386,-13.60941c-1.33354,-1.2279 -2.20877,-6.12476 -2.19977,-6.30473c0.00746,-0.1492 0.26919,-4.7462 1.43858,-6.0059c1.51776,-1.63498 19.9343,-16.06284 19.9343,-16.06284c0,0 1.17869,-0.45354 2.09631,0.33839c0.99715,0.86054 4.0048,2.81946 5.8385,4.8121c1.39283,1.51355 1.82555,3.27281 1.82555,3.27281c0,0 -8.76621,5.65115 -8.34525,5.92778c0.43902,0.2885 15.87752,0.28475 16.36885,0.27058c0.9928,-0.02863 1.20195,1.15532 1.20195,1.15532z" data-paper-data="{&quot;index&quot;:null}" fill="#c24b99" stroke="#3c1f56" stroke-width="0.5"/></g></g></svg>